<svg width="289" height="20" viewBox="0 0 289 20" fill="none" xmlns="http://www.w3.org/2000/svg">
<mask id="path-1-inside-1_610_290" fill="white">
<path d="M4.1748 11.0962H0V8.38623H4.1748V4.24805H7.00684V8.38623H11.1938V11.0962H7.00684V15.4541H4.1748V11.0962ZM17.9443 15.0391C18.2943 15.2425 18.6849 15.4215 19.1162 15.5762C19.5475 15.7308 19.991 15.861 20.4468 15.9668C20.9106 16.0645 21.3745 16.1418 21.8384 16.1987C22.3104 16.2476 22.758 16.272 23.1812 16.272C24.1252 16.272 24.9756 16.1499 25.7324 15.9058C26.4974 15.6616 27.1566 15.3158 27.71 14.8682C28.2633 14.4206 28.7028 13.8875 29.0283 13.269C29.362 12.6424 29.5695 11.9507 29.6509 11.1938C29.2277 11.5275 28.7598 11.8164 28.2471 12.0605C27.7344 12.3047 27.1891 12.5081 26.6113 12.6709C26.0417 12.8255 25.4517 12.9435 24.8413 13.0249C24.2391 13.0981 23.6328 13.1348 23.0225 13.1348C21.8343 13.1348 20.752 12.9924 19.7754 12.7075C18.807 12.4227 17.9769 12.0117 17.2852 11.4746C16.5934 10.9375 16.0563 10.2865 15.6738 9.52148C15.2995 8.74837 15.1123 7.87354 15.1123 6.89697C15.1123 5.93669 15.2995 5.04557 15.6738 4.22363C16.0563 3.40169 16.6178 2.68962 17.3584 2.0874C18.099 1.47705 19.0186 1.00098 20.1172 0.65918C21.2158 0.309245 22.4894 0.134277 23.938 0.134277C25.3459 0.134277 26.6317 0.313314 27.7954 0.671387C28.9591 1.02946 29.9561 1.58691 30.7861 2.34375C31.6162 3.10059 32.2591 4.06494 32.7148 5.23682C33.1787 6.40055 33.4106 7.79215 33.4106 9.41162C33.4106 11.145 33.1502 12.6587 32.6294 13.9526C32.1167 15.2384 31.4087 16.3086 30.5054 17.1631C29.6102 18.0176 28.5522 18.6564 27.3315 19.0796C26.1108 19.5028 24.7925 19.7144 23.3765 19.7144C22.7824 19.7144 22.1639 19.6777 21.521 19.6045C20.8862 19.5312 20.2555 19.4214 19.6289 19.2749C19.0023 19.1284 18.396 18.9453 17.8101 18.7256C17.2323 18.5059 16.7033 18.2536 16.2231 17.9688L17.9443 15.0391ZM18.9819 6.83594C18.9819 7.2347 19.0674 7.60905 19.2383 7.95898C19.4092 8.30892 19.6737 8.6141 20.0317 8.87451C20.3979 9.12679 20.8659 9.33024 21.4355 9.48486C22.0052 9.63135 22.6929 9.70459 23.4985 9.70459C24.174 9.70459 24.8128 9.65169 25.415 9.5459C26.0173 9.4401 26.5747 9.29362 27.0874 9.10645C27.6001 8.91927 28.064 8.69954 28.479 8.44727C28.9022 8.19499 29.2643 7.91829 29.5654 7.61719C29.3701 6.28255 28.7842 5.27751 27.8076 4.60205C26.8311 3.91846 25.5493 3.57666 23.9624 3.57666C23.1649 3.57666 22.4569 3.65804 21.8384 3.8208C21.2199 3.98356 20.6991 4.21143 20.2759 4.50439C19.8527 4.78923 19.5312 5.13102 19.3115 5.52979C19.0918 5.92855 18.9819 6.36393 18.9819 6.83594ZM48.1689 3.78418H37.0728V0.366211H54.0283L44.0796 19.4458H39.6851L48.1689 3.78418ZM56.5186 16.0522H60.8521V4.1748C60.2824 4.30501 59.7331 4.47591 59.2041 4.6875C58.6833 4.89909 58.2072 5.15544 57.7759 5.45654L55.8716 2.73438C56.5715 2.29492 57.2835 1.92464 58.0078 1.62354C58.7402 1.31429 59.4767 1.07015 60.2173 0.891113C60.966 0.703939 61.7147 0.569661 62.4634 0.488281C63.2202 0.406901 63.973 0.366211 64.7217 0.366211L64.7095 0.390625H64.7217V16.0522H68.8599V19.4458H56.5186V16.0522ZM80.6641 14.9048C81.1279 15.1408 81.6284 15.3442 82.1655 15.5151C82.7108 15.6779 83.2682 15.8162 83.8379 15.9302C84.4157 16.0441 84.9935 16.1296 85.5713 16.1865C86.1572 16.2354 86.7269 16.2598 87.2803 16.2598C88.2568 16.2598 89.0991 16.1906 89.8071 16.0522C90.5233 15.9058 91.1092 15.7023 91.5649 15.4419C92.0288 15.1815 92.3706 14.8722 92.5903 14.5142C92.8182 14.1479 92.9321 13.7451 92.9321 13.3057C92.9321 12.8581 92.8141 12.4471 92.5781 12.0728C92.3503 11.6984 92.0044 11.377 91.5405 11.1084C91.0848 10.8398 90.507 10.6323 89.8071 10.4858C89.1154 10.3312 88.3057 10.2539 87.3779 10.2539C86.9629 10.2539 86.495 10.2743 85.9741 10.3149C85.4533 10.3475 84.8999 10.4045 84.314 10.4858C83.728 10.5672 83.1177 10.6812 82.4829 10.8276C81.8481 10.966 81.2052 11.1369 80.5542 11.3403V0.366211H95.1904V3.79639H84.1309V7.49512C84.7412 7.35677 85.38 7.24284 86.0474 7.15332C86.7147 7.05566 87.4593 7.00684 88.2812 7.00684C89.624 7.00684 90.8244 7.15332 91.8823 7.44629C92.9403 7.73926 93.8314 8.15837 94.5557 8.70361C95.2881 9.24886 95.8455 9.90804 96.228 10.6812C96.6105 11.4461 96.8018 12.3047 96.8018 13.2568C96.8018 14.2415 96.5942 15.1326 96.1792 15.9302C95.7723 16.7196 95.166 17.395 94.3604 17.9565C93.5628 18.5181 92.5781 18.9494 91.4062 19.2505C90.2425 19.5516 88.9038 19.7021 87.3901 19.7021C86.6089 19.7021 85.8317 19.6574 85.0586 19.5679C84.2936 19.4865 83.549 19.3685 82.8247 19.2139C82.1004 19.0511 81.4046 18.8558 80.7373 18.6279C80.0781 18.3919 79.4596 18.1274 78.8818 17.8345L80.6641 14.9048ZM99.8779 9.86328C99.8779 8.3252 100.11 6.9458 100.574 5.7251C101.038 4.50439 101.697 3.47087 102.551 2.62451C103.406 1.77002 104.443 1.11898 105.664 0.671387C106.885 0.223796 108.252 0 109.766 0C111.279 0 112.646 0.223796 113.867 0.671387C115.088 1.11898 116.125 1.77002 116.98 2.62451C117.834 3.47087 118.494 4.50439 118.958 5.7251C119.421 6.9458 119.653 8.3252 119.653 9.86328C119.653 11.4014 119.421 12.7808 118.958 14.0015C118.494 15.2222 117.834 16.2557 116.98 17.1021C116.125 17.9484 115.088 18.5954 113.867 19.043C112.646 19.4906 111.279 19.7144 109.766 19.7144C108.252 19.7144 106.885 19.4906 105.664 19.043C104.443 18.5954 103.406 17.9484 102.551 17.1021C101.697 16.2557 101.038 15.2222 100.574 14.0015C100.11 12.7808 99.8779 11.4014 99.8779 9.86328ZM103.748 9.85107C103.748 10.8927 103.886 11.8123 104.163 12.6099C104.447 13.4074 104.85 14.0788 105.371 14.624C105.892 15.1611 106.523 15.5721 107.263 15.8569C108.004 16.1336 108.838 16.272 109.766 16.272C110.693 16.272 111.528 16.1336 112.268 15.8569C113.009 15.5721 113.639 15.1611 114.16 14.624C114.681 14.0788 115.08 13.4074 115.356 12.6099C115.641 11.8123 115.784 10.8927 115.784 9.85107C115.784 8.81755 115.641 7.90609 115.356 7.1167C115.08 6.31917 114.681 5.64779 114.16 5.10254C113.639 4.55729 113.009 4.14632 112.268 3.86963C111.528 3.5848 110.693 3.44238 109.766 3.44238C108.838 3.44238 108.004 3.5848 107.263 3.86963C106.523 4.14632 105.892 4.55729 105.371 5.10254C104.85 5.64779 104.447 6.31917 104.163 7.1167C103.886 7.90609 103.748 8.81755 103.748 9.85107ZM132.788 14.9048C133.252 15.1408 133.752 15.3442 134.29 15.5151C134.835 15.6779 135.392 15.8162 135.962 15.9302C136.54 16.0441 137.118 16.1296 137.695 16.1865C138.281 16.2354 138.851 16.2598 139.404 16.2598C140.381 16.2598 141.223 16.1906 141.931 16.0522C142.647 15.9058 143.233 15.7023 143.689 15.4419C144.153 15.1815 144.495 14.8722 144.714 14.5142C144.942 14.1479 145.056 13.7451 145.056 13.3057C145.056 12.8581 144.938 12.4471 144.702 12.0728C144.474 11.6984 144.128 11.377 143.665 11.1084C143.209 10.8398 142.631 10.6323 141.931 10.4858C141.239 10.3312 140.43 10.2539 139.502 10.2539C139.087 10.2539 138.619 10.2743 138.098 10.3149C137.577 10.3475 137.024 10.4045 136.438 10.4858C135.852 10.5672 135.242 10.6812 134.607 10.8276C133.972 10.966 133.329 11.1369 132.678 11.3403V0.366211H147.314V3.79639H136.255V7.49512C136.865 7.35677 137.504 7.24284 138.171 7.15332C138.839 7.05566 139.583 7.00684 140.405 7.00684C141.748 7.00684 142.948 7.15332 144.006 7.44629C145.064 7.73926 145.955 8.15837 146.68 8.70361C147.412 9.24886 147.97 9.90804 148.352 10.6812C148.735 11.4461 148.926 12.3047 148.926 13.2568C148.926 14.2415 148.718 15.1326 148.303 15.9302C147.896 16.7196 147.29 17.395 146.484 17.9565C145.687 18.5181 144.702 18.9494 143.53 19.2505C142.367 19.5516 141.028 19.7021 139.514 19.7021C138.733 19.7021 137.956 19.6574 137.183 19.5679C136.418 19.4865 135.673 19.3685 134.949 19.2139C134.224 19.0511 133.529 18.8558 132.861 18.6279C132.202 18.3919 131.584 18.1274 131.006 17.8345L132.788 14.9048ZM153.809 14.9048C154.769 15.3768 155.794 15.7227 156.885 15.9424C157.983 16.154 159.054 16.2598 160.095 16.2598C161.023 16.2598 161.825 16.1865 162.5 16.04C163.175 15.8854 163.733 15.6779 164.172 15.4175C164.612 15.1571 164.937 14.8478 165.149 14.4897C165.361 14.1317 165.466 13.7451 165.466 13.3301C165.466 12.7686 165.275 12.2681 164.893 11.8286C164.51 11.381 163.928 11.0474 163.147 10.8276C162.374 10.5998 161.393 10.5103 160.205 10.5591C159.025 10.6079 157.633 10.8398 156.03 11.2549L156.042 8.39844L163.171 3.75977H153.076V0.366211H168.347V3.68652L162.073 7.66602C163.22 7.66602 164.246 7.8125 165.149 8.10547C166.052 8.39844 166.813 8.80127 167.432 9.31396C168.05 9.82666 168.522 10.4329 168.848 11.1328C169.173 11.8327 169.336 12.5854 169.336 13.3911C169.336 14.3433 169.124 15.21 168.701 15.9912C168.286 16.7643 167.68 17.4276 166.882 17.981C166.085 18.5262 165.108 18.9494 163.953 19.2505C162.805 19.5516 161.503 19.7021 160.046 19.7021C158.5 19.7021 157.072 19.5394 155.762 19.2139C154.451 18.8802 153.206 18.4204 152.026 17.8345L153.809 14.9048ZM173.669 10.437C173.669 8.70361 173.926 7.19401 174.438 5.9082C174.959 4.61426 175.667 3.54004 176.562 2.68555C177.466 1.83105 178.528 1.19222 179.749 0.769043C180.969 0.345866 182.288 0.134277 183.704 0.134277C184.298 0.134277 184.9 0.166829 185.51 0.231934C186.129 0.2889 186.735 0.382487 187.329 0.512695C187.923 0.642904 188.497 0.813802 189.05 1.02539C189.612 1.22884 190.133 1.47298 190.613 1.75781L188.892 4.6875C188.534 4.48405 188.151 4.31315 187.744 4.1748C187.345 4.02832 186.93 3.91439 186.499 3.83301C186.068 3.74349 185.632 3.67839 185.193 3.6377C184.753 3.59701 184.322 3.57666 183.899 3.57666C182.955 3.57666 182.1 3.69873 181.335 3.94287C180.579 4.18701 179.924 4.53288 179.37 4.98047C178.817 5.42806 178.373 5.96517 178.04 6.5918C177.714 7.21029 177.511 7.89795 177.429 8.65479C177.852 8.32113 178.32 8.03223 178.833 7.78809C179.346 7.54395 179.887 7.34456 180.457 7.18994C181.034 7.02718 181.624 6.90918 182.227 6.83594C182.837 6.75456 183.447 6.71387 184.058 6.71387C185.246 6.71387 186.324 6.85628 187.292 7.14111C188.269 7.42594 189.103 7.83691 189.795 8.37402C190.487 8.91113 191.02 9.56624 191.394 10.3394C191.777 11.1043 191.968 11.9751 191.968 12.9517C191.968 13.9119 191.777 14.8031 191.394 15.625C191.02 16.4469 190.462 17.1631 189.722 17.7734C188.981 18.3757 188.062 18.8517 186.963 19.2017C185.864 19.5435 184.591 19.7144 183.142 19.7144C181.734 19.7144 180.448 19.5353 179.285 19.1772C178.121 18.8192 177.124 18.2617 176.294 17.5049C175.464 16.748 174.817 15.7878 174.353 14.624C173.897 13.4521 173.669 12.0565 173.669 10.437ZM177.515 12.2314C177.71 13.5661 178.296 14.5752 179.272 15.2588C180.249 15.9342 181.531 16.272 183.118 16.272C183.915 16.272 184.623 16.1906 185.242 16.0278C185.86 15.8651 186.381 15.6413 186.804 15.3564C187.227 15.0635 187.549 14.7176 187.769 14.3188C187.988 13.9201 188.098 13.4847 188.098 13.0127C188.098 12.6139 188.013 12.2396 187.842 11.8896C187.671 11.5397 187.402 11.2386 187.036 10.9863C186.678 10.7259 186.214 10.5225 185.645 10.376C185.075 10.2214 184.387 10.144 183.582 10.144C182.906 10.144 182.267 10.1969 181.665 10.3027C181.063 10.4085 180.505 10.555 179.993 10.7422C179.48 10.9294 179.012 11.1491 178.589 11.4014C178.174 11.6536 177.816 11.9303 177.515 12.2314ZM204.395 13.6353C204.395 13.0656 204.472 12.5366 204.626 12.0483C204.781 11.5601 204.993 11.1165 205.261 10.7178C205.53 10.3109 205.839 9.9528 206.189 9.64355C206.547 9.32617 206.93 9.04948 207.336 8.81348C206.775 8.26009 206.368 7.71077 206.116 7.16553C205.863 6.61214 205.737 6.08317 205.737 5.57861C205.737 4.77295 205.924 4.03646 206.299 3.36914C206.681 2.70182 207.227 2.12809 207.935 1.64795C208.643 1.15967 209.501 0.785319 210.51 0.524902C211.519 0.256348 212.655 0.12207 213.916 0.12207C215.177 0.12207 216.313 0.256348 217.322 0.524902C218.331 0.785319 219.189 1.15967 219.897 1.64795C220.605 2.12809 221.147 2.70182 221.521 3.36914C221.903 4.03646 222.095 4.77295 222.095 5.57861C222.095 6.08317 221.969 6.61214 221.716 7.16553C221.464 7.71077 221.057 8.26009 220.496 8.81348C220.894 9.04948 221.273 9.32617 221.631 9.64355C221.989 9.9528 222.302 10.3109 222.571 10.7178C222.839 11.1165 223.051 11.5601 223.206 12.0483C223.36 12.5366 223.438 13.0656 223.438 13.6353C223.438 14.5874 223.214 15.4419 222.766 16.1987C222.327 16.9474 221.692 17.5822 220.862 18.103C220.04 18.6157 219.039 19.0104 217.859 19.2871C216.687 19.5638 215.373 19.7021 213.916 19.7021C212.459 19.7021 211.141 19.5638 209.961 19.2871C208.789 19.0104 207.788 18.6157 206.958 18.103C206.136 17.5822 205.501 16.9474 205.054 16.1987C204.614 15.4419 204.395 14.5874 204.395 13.6353ZM209.607 5.74951C209.607 6.05062 209.68 6.33545 209.827 6.604C209.981 6.86442 210.225 7.09635 210.559 7.2998C210.901 7.49512 211.344 7.64974 211.89 7.76367C212.443 7.8776 213.118 7.93457 213.916 7.93457C214.714 7.93457 215.385 7.8776 215.93 7.76367C216.484 7.64974 216.927 7.49512 217.261 7.2998C217.603 7.09635 217.847 6.86442 217.993 6.604C218.148 6.33545 218.225 6.05062 218.225 5.74951C218.225 5.4484 218.148 5.16764 217.993 4.90723C217.847 4.63867 217.603 4.40674 217.261 4.21143C216.927 4.00798 216.484 3.84928 215.93 3.73535C215.385 3.62142 214.714 3.56445 213.916 3.56445C213.118 3.56445 212.443 3.62142 211.89 3.73535C211.344 3.84928 210.901 4.00798 210.559 4.21143C210.225 4.40674 209.981 4.63867 209.827 4.90723C209.68 5.16764 209.607 5.4484 209.607 5.74951ZM208.264 13.4521C208.264 13.8672 208.382 14.2497 208.618 14.5996C208.862 14.9414 209.22 15.2344 209.692 15.4785C210.164 15.7227 210.754 15.9139 211.462 16.0522C212.17 16.1906 212.988 16.2598 213.916 16.2598C214.844 16.2598 215.662 16.1906 216.37 16.0522C217.078 15.9139 217.668 15.7227 218.14 15.4785C218.612 15.2344 218.966 14.9414 219.202 14.5996C219.446 14.2497 219.568 13.8672 219.568 13.4521C219.568 13.0371 219.45 12.6587 219.214 12.3169C218.986 11.967 218.636 11.6699 218.164 11.4258C217.7 11.1816 217.114 10.9904 216.406 10.8521C215.698 10.7137 214.868 10.6445 213.916 10.6445C212.964 10.6445 212.134 10.7137 211.426 10.8521C210.718 10.9904 210.128 11.1816 209.656 11.4258C209.192 11.6699 208.842 11.967 208.606 12.3169C208.378 12.6587 208.264 13.0371 208.264 13.4521ZM228.589 14.9048C229.053 15.1408 229.553 15.3442 230.09 15.5151C230.636 15.6779 231.193 15.8162 231.763 15.9302C232.34 16.0441 232.918 16.1296 233.496 16.1865C234.082 16.2354 234.652 16.2598 235.205 16.2598C236.182 16.2598 237.024 16.1906 237.732 16.0522C238.448 15.9058 239.034 15.7023 239.49 15.4419C239.954 15.1815 240.295 14.8722 240.515 14.5142C240.743 14.1479 240.857 13.7451 240.857 13.3057C240.857 12.8581 240.739 12.4471 240.503 12.0728C240.275 11.6984 239.929 11.377 239.465 11.1084C239.01 10.8398 238.432 10.6323 237.732 10.4858C237.04 10.3312 236.23 10.2539 235.303 10.2539C234.888 10.2539 234.42 10.2743 233.899 10.3149C233.378 10.3475 232.825 10.4045 232.239 10.4858C231.653 10.5672 231.042 10.6812 230.408 10.8276C229.773 10.966 229.13 11.1369 228.479 11.3403V0.366211H243.115V3.79639H232.056V7.49512C232.666 7.35677 233.305 7.24284 233.972 7.15332C234.639 7.05566 235.384 7.00684 236.206 7.00684C237.549 7.00684 238.749 7.15332 239.807 7.44629C240.865 7.73926 241.756 8.15837 242.48 8.70361C243.213 9.24886 243.77 9.90804 244.153 10.6812C244.535 11.4461 244.727 12.3047 244.727 13.2568C244.727 14.2415 244.519 15.1326 244.104 15.9302C243.697 16.7196 243.091 17.395 242.285 17.9565C241.488 18.5181 240.503 18.9494 239.331 19.2505C238.167 19.5516 236.829 19.7021 235.315 19.7021C234.534 19.7021 233.757 19.6574 232.983 19.5679C232.218 19.4865 231.474 19.3685 230.75 19.2139C230.025 19.0511 229.329 18.8558 228.662 18.6279C228.003 18.3919 227.384 18.1274 226.807 17.8345L228.589 14.9048ZM249.609 14.9048C250.57 15.3768 251.595 15.7227 252.686 15.9424C253.784 16.154 254.854 16.2598 255.896 16.2598C256.824 16.2598 257.625 16.1865 258.301 16.04C258.976 15.8854 259.534 15.6779 259.973 15.4175C260.413 15.1571 260.738 14.8478 260.95 14.4897C261.161 14.1317 261.267 13.7451 261.267 13.3301C261.267 12.7686 261.076 12.2681 260.693 11.8286C260.311 11.381 259.729 11.0474 258.948 10.8276C258.175 10.5998 257.194 10.5103 256.006 10.5591C254.826 10.6079 253.434 10.8398 251.831 11.2549L251.843 8.39844L258.972 3.75977H248.877V0.366211H264.148V3.68652L257.874 7.66602C259.021 7.66602 260.046 7.8125 260.95 8.10547C261.853 8.39844 262.614 8.80127 263.232 9.31396C263.851 9.82666 264.323 10.4329 264.648 11.1328C264.974 11.8327 265.137 12.5854 265.137 13.3911C265.137 14.3433 264.925 15.21 264.502 15.9912C264.087 16.7643 263.481 17.4276 262.683 17.981C261.886 18.5262 260.909 18.9494 259.753 19.2505C258.606 19.5516 257.304 19.7021 255.847 19.7021C254.301 19.7021 252.873 19.5394 251.562 19.2139C250.252 18.8802 249.007 18.4204 247.827 17.8345L249.609 14.9048ZM268.677 9.86328C268.677 8.3252 268.909 6.9458 269.373 5.7251C269.836 4.50439 270.496 3.47087 271.35 2.62451C272.205 1.77002 273.242 1.11898 274.463 0.671387C275.684 0.223796 277.051 0 278.564 0C280.078 0 281.445 0.223796 282.666 0.671387C283.887 1.11898 284.924 1.77002 285.779 2.62451C286.633 3.47087 287.292 4.50439 287.756 5.7251C288.22 6.9458 288.452 8.3252 288.452 9.86328C288.452 11.4014 288.22 12.7808 287.756 14.0015C287.292 15.2222 286.633 16.2557 285.779 17.1021C284.924 17.9484 283.887 18.5954 282.666 19.043C281.445 19.4906 280.078 19.7144 278.564 19.7144C277.051 19.7144 275.684 19.4906 274.463 19.043C273.242 18.5954 272.205 17.9484 271.35 17.1021C270.496 16.2557 269.836 15.2222 269.373 14.0015C268.909 12.7808 268.677 11.4014 268.677 9.86328ZM272.546 9.85107C272.546 10.8927 272.685 11.8123 272.961 12.6099C273.246 13.4074 273.649 14.0788 274.17 14.624C274.691 15.1611 275.321 15.5721 276.062 15.8569C276.803 16.1336 277.637 16.272 278.564 16.272C279.492 16.272 280.326 16.1336 281.067 15.8569C281.807 15.5721 282.438 15.1611 282.959 14.624C283.48 14.0788 283.879 13.4074 284.155 12.6099C284.44 11.8123 284.583 10.8927 284.583 9.85107C284.583 8.81755 284.44 7.90609 284.155 7.1167C283.879 6.31917 283.48 5.64779 282.959 5.10254C282.438 4.55729 281.807 4.14632 281.067 3.86963C280.326 3.5848 279.492 3.44238 278.564 3.44238C277.637 3.44238 276.803 3.5848 276.062 3.86963C275.321 4.14632 274.691 4.55729 274.17 5.10254C273.649 5.64779 273.246 6.31917 272.961 7.1167C272.685 7.90609 272.546 8.81755 272.546 9.85107Z"/>
</mask>
<path d="M4.1748 11.0962H4.6748V10.5962H4.1748V11.0962ZM0 11.0962H-0.5V11.5962H0V11.0962ZM0 8.38623V7.88623H-0.5V8.38623H0ZM4.1748 8.38623V8.88623H4.6748V8.38623H4.1748ZM4.1748 4.24805V3.74805H3.6748V4.24805H4.1748ZM7.00684 4.24805H7.50684V3.74805H7.00684V4.24805ZM7.00684 8.38623H6.50684V8.88623H7.00684V8.38623ZM11.1938 8.38623H11.6938V7.88623H11.1938V8.38623ZM11.1938 11.0962V11.5962H11.6938V11.0962H11.1938ZM7.00684 11.0962V10.5962H6.50684V11.0962H7.00684ZM7.00684 15.4541V15.9541H7.50684V15.4541H7.00684ZM4.1748 15.4541H3.6748V15.9541H4.1748V15.4541ZM4.1748 11.0962V10.5962H0V11.0962V11.5962H4.1748V11.0962ZM0 11.0962H0.5V8.38623H0H-0.5V11.0962H0ZM0 8.38623V8.88623H4.1748V8.38623V7.88623H0V8.38623ZM4.1748 8.38623H4.6748V4.24805H4.1748H3.6748V8.38623H4.1748ZM4.1748 4.24805V4.74805H7.00684V4.24805V3.74805H4.1748V4.24805ZM7.00684 4.24805H6.50684V8.38623H7.00684H7.50684V4.24805H7.00684ZM7.00684 8.38623V8.88623H11.1938V8.38623V7.88623H7.00684V8.38623ZM11.1938 8.38623H10.6938V11.0962H11.1938H11.6938V8.38623H11.1938ZM11.1938 11.0962V10.5962H7.00684V11.0962V11.5962H11.1938V11.0962ZM7.00684 11.0962H6.50684V15.4541H7.00684H7.50684V11.0962H7.00684ZM7.00684 15.4541V14.9541H4.1748V15.4541V15.9541H7.00684V15.4541ZM4.1748 15.4541H4.6748V11.0962H4.1748H3.6748V15.4541H4.1748ZM17.9443 15.0391L18.1956 14.6068L17.7654 14.3566L17.5132 14.7858L17.9443 15.0391ZM19.1162 15.5762L18.9475 16.0468L19.1162 15.5762ZM20.4468 15.9668L20.3337 16.4539L20.3438 16.4561L20.4468 15.9668ZM21.8384 16.1987L21.7774 16.6951L21.7869 16.6961L21.8384 16.1987ZM25.7324 15.9058L25.5804 15.4294L25.5789 15.4299L25.7324 15.9058ZM29.0283 13.269L28.587 13.034L28.5859 13.0362L29.0283 13.269ZM29.6509 11.1938L30.148 11.2473L30.2752 10.0649L29.3413 10.8012L29.6509 11.1938ZM26.6113 12.6709L26.7423 13.1535L26.7469 13.1522L26.6113 12.6709ZM24.8413 13.0249L24.9017 13.5213L24.9074 13.5205L24.8413 13.0249ZM19.7754 12.7075L19.6343 13.1872L19.6354 13.1875L19.7754 12.7075ZM17.2852 11.4746L16.9785 11.8695L17.2852 11.4746ZM15.6738 9.52148L15.2238 9.73941L15.2266 9.74509L15.6738 9.52148ZM15.6738 4.22363L15.2205 4.01267L15.2188 4.01639L15.6738 4.22363ZM17.3584 2.0874L17.6739 2.47534L17.6764 2.47325L17.3584 2.0874ZM20.1172 0.65918L20.2657 1.13662L20.2689 1.1356L20.1172 0.65918ZM32.7148 5.23682L32.2488 5.41805L32.2504 5.42195L32.7148 5.23682ZM32.6294 13.9526L32.1656 13.7659L32.165 13.7674L32.6294 13.9526ZM30.5054 17.1631L30.1618 16.7998L30.1601 16.8014L30.5054 17.1631ZM27.3315 19.0796L27.1678 18.6072L27.3315 19.0796ZM21.521 19.6045L21.4637 20.1012L21.4644 20.1013L21.521 19.6045ZM19.6289 19.2749L19.5151 19.7618L19.6289 19.2749ZM17.8101 18.7256L17.6323 19.1929L17.6345 19.1938L17.8101 18.7256ZM16.2231 17.9688L15.792 17.7155L15.5398 18.1448L15.968 18.3988L16.2231 17.9688ZM20.0317 8.87451L19.7376 9.27901L19.7481 9.28627L20.0317 8.87451ZM21.4355 9.48486L21.3046 9.96745L21.311 9.96911L21.4355 9.48486ZM28.479 8.44727L28.223 8.01778L28.2193 8.02L28.479 8.44727ZM29.5654 7.61719L29.919 7.97074L30.0965 7.79321L30.0602 7.54479L29.5654 7.61719ZM27.8076 4.60205L27.5209 5.01167L27.5232 5.01327L27.8076 4.60205ZM20.2759 4.50439L20.5551 4.91922L20.5605 4.91549L20.2759 4.50439ZM17.9443 15.0391L17.693 15.4713C18.0724 15.6919 18.4912 15.8833 18.9475 16.0468L19.1162 15.5762L19.2849 15.1055C18.8786 14.9598 18.5161 14.7931 18.1956 14.6068L17.9443 15.0391ZM19.1162 15.5762L18.9475 16.0468C19.3974 16.2081 19.8595 16.3438 20.3337 16.4538L20.4468 15.9668L20.5598 15.4797C20.1226 15.3782 19.6977 15.2535 19.2849 15.1055L19.1162 15.5762ZM20.4468 15.9668L20.3438 16.4561C20.8214 16.5566 21.2993 16.6363 21.7774 16.695L21.8384 16.1987L21.8993 15.7025C21.4498 15.6473 20.9999 15.5723 20.5498 15.4775L20.4468 15.9668ZM21.8384 16.1987L21.7869 16.6961C22.274 16.7465 22.7389 16.772 23.1812 16.772V16.272V15.772C22.7771 15.772 22.3468 15.7487 21.8898 15.7014L21.8384 16.1987ZM23.1812 16.272V16.772C24.1678 16.772 25.0712 16.6444 25.8859 16.3816L25.7324 15.9058L25.5789 15.4299C24.88 15.6554 24.0825 15.772 23.1812 15.772V16.272ZM25.7324 15.9058L25.8844 16.3821C26.701 16.1215 27.417 15.7482 28.0244 15.2569L27.71 14.8682L27.3955 14.4794C26.8962 14.8833 26.2938 15.2018 25.5804 15.4294L25.7324 15.9058ZM27.71 14.8682L28.0244 15.2569C28.6296 14.7674 29.113 14.1816 29.4708 13.5019L29.0283 13.269L28.5859 13.0362C28.2926 13.5934 27.8971 14.0737 27.3955 14.4794L27.71 14.8682ZM29.0283 13.269L29.4697 13.504C29.8355 12.817 30.0603 12.063 30.148 11.2473L29.6509 11.1938L29.1537 11.1404C29.0787 11.8383 28.8885 12.4678 28.587 13.034L29.0283 13.269ZM29.6509 11.1938L29.3413 10.8012C28.9489 11.1106 28.513 11.3801 28.0321 11.6091L28.2471 12.0605L28.462 12.512C29.0066 12.2527 29.5065 11.9444 29.9605 11.5865L29.6509 11.1938ZM28.2471 12.0605L28.0321 11.6091C27.5464 11.8404 27.0278 12.0341 26.4758 12.1896L26.6113 12.6709L26.7469 13.1522C27.3504 12.9822 27.9224 12.769 28.462 12.512L28.2471 12.0605ZM26.6113 12.6709L26.4804 12.1884C25.9329 12.337 25.3646 12.4507 24.7752 12.5293L24.8413 13.0249L24.9074 13.5205C25.5387 13.4363 26.1504 13.3141 26.7423 13.1534L26.6113 12.6709ZM24.8413 13.0249L24.7809 12.5286C24.1989 12.5993 23.6128 12.6348 23.0225 12.6348V13.1348V13.6348C23.6529 13.6348 24.2793 13.5969 24.9017 13.5212L24.8413 13.0249ZM23.0225 13.1348V12.6348C21.8739 12.6348 20.8396 12.4971 19.9154 12.2275L19.7754 12.7075L19.6354 13.1875C20.6643 13.4876 21.7947 13.6348 23.0225 13.6348V13.1348ZM19.7754 12.7075L19.9165 12.2278C18.999 11.958 18.2272 11.573 17.5918 11.0797L17.2852 11.4746L16.9785 11.8695C17.7266 12.4504 18.6149 12.8874 19.6343 13.1872L19.7754 12.7075ZM17.2852 11.4746L17.5918 11.0797C16.9577 10.5873 16.4693 9.99431 16.121 9.29788L15.6738 9.52148L15.2266 9.74509C15.6434 10.5786 16.2292 11.2877 16.9785 11.8695L17.2852 11.4746ZM15.6738 9.52148L16.1238 9.30358C15.7866 8.60715 15.6123 7.80843 15.6123 6.89697H15.1123H14.6123C14.6123 7.93864 14.8123 8.88959 15.2238 9.73939L15.6738 9.52148ZM15.1123 6.89697H15.6123C15.6123 6.00358 15.786 5.18368 16.1289 4.43087L15.6738 4.22363L15.2188 4.01639C14.813 4.90747 14.6123 5.86979 14.6123 6.89697H15.1123ZM15.6738 4.22363L16.1271 4.43458C16.476 3.68495 16.9889 3.03235 17.6739 2.47533L17.3584 2.0874L17.0429 1.69948C16.2468 2.34689 15.6366 3.11844 15.2205 4.01268L15.6738 4.22363ZM17.3584 2.0874L17.6764 2.47325C18.3581 1.91144 19.2169 1.4629 20.2657 1.13661L20.1172 0.65918L19.9687 0.181751C18.8202 0.539057 17.8399 1.04266 17.0404 1.70156L17.3584 2.0874ZM20.1172 0.65918L20.2689 1.1356C21.3078 0.804699 22.5283 0.634277 23.938 0.634277V0.134277V-0.365723C22.4505 -0.365723 21.1238 -0.186209 19.9654 0.182764L20.1172 0.65918ZM23.938 0.134277V0.634277C25.3036 0.634277 26.539 0.807943 27.6484 1.14928L27.7954 0.671387L27.9425 0.193497C26.7243 -0.181316 25.3881 -0.365723 23.938 -0.365723V0.134277ZM27.7954 0.671387L27.6484 1.14928C28.7476 1.4875 29.6781 2.01016 30.4493 2.71323L30.7861 2.34375L31.123 1.97427C30.234 1.16367 29.1707 0.571413 27.9425 0.193497L27.7954 0.671387ZM30.7861 2.34375L30.4493 2.71323C31.2159 3.41219 31.8177 4.30937 32.2488 5.41804L32.7148 5.23682L33.1808 5.05559C32.7005 3.82051 32.0166 2.78898 31.123 1.97427L30.7861 2.34375ZM32.7148 5.23682L32.2504 5.42195C32.685 6.51233 32.9106 7.83787 32.9106 9.41162H33.4106H33.9106C33.9106 7.74644 33.6724 6.28878 33.1793 5.05168L32.7148 5.23682ZM33.4106 9.41162H32.9106C32.9106 11.096 32.6575 12.5438 32.1656 13.7659L32.6294 13.9526L33.0932 14.1393C33.643 12.7736 33.9106 11.194 33.9106 9.41162H33.4106ZM32.6294 13.9526L32.165 13.7674C31.6761 14.9935 31.0067 16.0006 30.1618 16.7999L30.5054 17.1631L30.849 17.5263C31.8107 16.6166 32.5573 15.4834 33.0938 14.1378L32.6294 13.9526ZM30.5054 17.1631L30.1601 16.8014C29.3191 17.6042 28.3238 18.2064 27.1678 18.6072L27.3315 19.0796L27.4953 19.552C28.7807 19.1064 29.9013 18.4309 30.8506 17.5248L30.5054 17.1631ZM27.3315 19.0796L27.1678 18.6072C26.0046 19.0104 24.7421 19.2144 23.3765 19.2144V19.7144V20.2144C24.8429 20.2144 26.2171 19.9951 27.4953 19.552L27.3315 19.0796ZM23.3765 19.7144V19.2144C22.8029 19.2144 22.2034 19.179 21.5776 19.1077L21.521 19.6045L21.4644 20.1013C22.1245 20.1765 22.7619 20.2144 23.3765 20.2144V19.7144ZM21.521 19.6045L21.5783 19.1078C20.9627 19.0368 20.3509 18.9302 19.7427 18.788L19.6289 19.2749L19.5151 19.7618C20.1602 19.9126 20.8098 20.0257 21.4637 20.1012L21.521 19.6045ZM19.6289 19.2749L19.7427 18.788C19.1365 18.6463 18.5508 18.4694 17.9856 18.2574L17.8101 18.7256L17.6345 19.1938C18.2412 19.4212 18.8681 19.6105 19.5151 19.7618L19.6289 19.2749ZM17.8101 18.7256L17.9878 18.2582C17.434 18.0476 16.9313 17.8075 16.4782 17.5387L16.2231 17.9688L15.968 18.3988C16.4753 18.6997 17.0305 18.9641 17.6323 19.1929L17.8101 18.7256ZM16.2231 17.9688L16.6543 18.222L18.3754 15.2923L17.9443 15.0391L17.5132 14.7858L15.792 17.7155L16.2231 17.9688ZM18.9819 6.83594H18.4819C18.4819 7.30886 18.5839 7.75846 18.789 8.1784L19.2383 7.95898L19.6876 7.73957C19.5509 7.45963 19.4819 7.16054 19.4819 6.83594H18.9819ZM19.2383 7.95898L18.789 8.1784C19.0004 8.61126 19.3227 8.97706 19.7377 9.27888L20.0317 8.87451L20.3258 8.47014C20.0247 8.25113 19.818 8.00658 19.6876 7.73957L19.2383 7.95898ZM20.0317 8.87451L19.7481 9.28627C20.1733 9.57916 20.6972 9.80253 21.3046 9.9674L21.4355 9.48486L21.5665 9.00232C21.0346 8.85795 20.6226 8.67442 20.3154 8.46276L20.0317 8.87451ZM21.4355 9.48486L21.311 9.96911C21.9332 10.1291 22.6652 10.2046 23.4985 10.2046V9.70459V9.20459C22.7206 9.20459 22.0772 9.1336 21.5601 9.00062L21.4355 9.48486ZM23.4985 9.70459V10.2046C24.2 10.2046 24.868 10.1497 25.5016 10.0384L25.415 9.5459L25.3285 9.05344C24.7577 9.15373 24.148 9.20459 23.4985 9.20459V9.70459ZM25.415 9.5459L25.5016 10.0384C26.1293 9.92808 26.7155 9.77449 27.2589 9.57612L27.0874 9.10645L26.9159 8.63677C26.4339 8.81275 25.9052 8.95213 25.3285 9.05344L25.415 9.5459ZM27.0874 9.10645L27.2589 9.57612C27.7986 9.37909 28.2925 9.14573 28.7387 8.87453L28.479 8.44727L28.2193 8.02C27.8354 8.25336 27.4016 8.45946 26.9159 8.63677L27.0874 9.10645ZM28.479 8.44727L28.735 8.87674C29.1883 8.60651 29.5845 8.30524 29.919 7.97074L29.5654 7.61719L29.2119 7.26363C28.9442 7.53135 28.616 7.78346 28.223 8.01779L28.479 8.44727ZM29.5654 7.61719L30.0602 7.54479C29.8478 6.09347 29.1987 4.95625 28.092 4.19083L27.8076 4.60205L27.5232 5.01327C28.3697 5.59876 28.8925 6.47163 29.0707 7.68959L29.5654 7.61719ZM27.8076 4.60205L28.0943 4.19244C27.0099 3.43335 25.6184 3.07666 23.9624 3.07666V3.57666V4.07666C25.4802 4.07666 26.6522 4.40357 27.5209 5.01167L27.8076 4.60205ZM23.9624 3.57666V3.07666C23.132 3.07666 22.3799 3.16127 21.7111 3.33726L21.8384 3.8208L21.9656 4.30434C22.5338 4.15481 23.1977 4.07666 23.9624 4.07666V3.57666ZM21.8384 3.8208L21.7111 3.33726C21.0495 3.51138 20.4723 3.76028 19.9913 4.0933L20.2759 4.50439L20.5605 4.91549C20.9258 4.66257 21.3903 4.45575 21.9656 4.30434L21.8384 3.8208ZM20.2759 4.50439L19.9967 4.0896C19.5156 4.41341 19.1361 4.81208 18.8736 5.28848L19.3115 5.52979L19.7494 5.77109C19.9264 5.44997 20.1898 5.16504 20.5551 4.91919L20.2759 4.50439ZM19.3115 5.52979L18.8736 5.28848C18.6116 5.76392 18.4819 6.28277 18.4819 6.83594H18.9819H19.4819C19.4819 6.4451 19.572 6.09317 19.7494 5.77109L19.3115 5.52979ZM48.1689 3.78418L48.6086 4.02233L49.0084 3.28418H48.1689V3.78418ZM37.0728 3.78418H36.5728V4.28418H37.0728V3.78418ZM37.0728 0.366211V-0.133789H36.5728V0.366211H37.0728ZM54.0283 0.366211L54.4717 0.597387L54.8529 -0.133789H54.0283V0.366211ZM44.0796 19.4458V19.9458H44.3828L44.5229 19.677L44.0796 19.4458ZM39.6851 19.4458L39.2454 19.2076L38.8456 19.9458H39.6851V19.4458ZM48.1689 3.78418V3.28418H37.0728V3.78418V4.28418H48.1689V3.78418ZM37.0728 3.78418H37.5728V0.366211H37.0728H36.5728V3.78418H37.0728ZM37.0728 0.366211V0.866211H54.0283V0.366211V-0.133789H37.0728V0.366211ZM54.0283 0.366211L53.585 0.135035L43.6362 19.2146L44.0796 19.4458L44.5229 19.677L54.4717 0.597387L54.0283 0.366211ZM44.0796 19.4458V18.9458H39.6851V19.4458V19.9458H44.0796V19.4458ZM39.6851 19.4458L40.1247 19.684L48.6086 4.02233L48.1689 3.78418L47.7293 3.54603L39.2454 19.2076L39.6851 19.4458ZM56.5186 16.0522V15.5522H56.0186V16.0522H56.5186ZM60.8521 16.0522V16.5522H61.3521V16.0522H60.8521ZM60.8521 4.1748H61.3521V3.54762L60.7406 3.68738L60.8521 4.1748ZM59.2041 4.6875L59.0184 4.22326L59.0159 4.22427L59.2041 4.6875ZM57.7759 5.45654L57.3662 5.74315L57.6525 6.15246L58.0621 5.86652L57.7759 5.45654ZM55.8716 2.73438L55.6057 2.31093L55.1606 2.59038L55.4619 3.02098L55.8716 2.73438ZM58.0078 1.62354L58.1998 2.08523L58.2023 2.08416L58.0078 1.62354ZM60.2173 0.891113L60.3348 1.37713L60.3386 1.37618L60.2173 0.891113ZM62.4634 0.488281L62.4099 -0.00885391L62.4093 -0.00879097L62.4634 0.488281ZM64.7217 0.366211L65.1689 0.589817L65.5307 -0.133789H64.7217V0.366211ZM64.7095 0.390625L64.2623 0.167019L63.9005 0.890625H64.7095V0.390625ZM64.7217 0.390625H65.2217V-0.109375H64.7217V0.390625ZM64.7217 16.0522H64.2217V16.5522H64.7217V16.0522ZM68.8599 16.0522H69.3599V15.5522H68.8599V16.0522ZM68.8599 19.4458V19.9458H69.3599V19.4458H68.8599ZM56.5186 19.4458H56.0186V19.9458H56.5186V19.4458ZM56.5186 16.0522V16.5522H60.8521V16.0522V15.5522H56.5186V16.0522ZM60.8521 16.0522H61.3521V4.1748H60.8521H60.3521V16.0522H60.8521ZM60.8521 4.1748L60.7406 3.68738C60.1463 3.82322 59.5721 4.00178 59.0184 4.22326L59.2041 4.6875L59.3898 5.15174C59.894 4.95004 60.4185 4.7868 60.9635 4.66223L60.8521 4.1748ZM59.2041 4.6875L59.0159 4.22427C58.4629 4.44894 57.9536 4.7227 57.4897 5.04656L57.7759 5.45654L58.0621 5.86652C58.4608 5.58818 58.9037 5.34924 59.3923 5.15073L59.2041 4.6875ZM57.7759 5.45654L58.1856 5.16994L56.2813 2.44777L55.8716 2.73438L55.4619 3.02098L57.3662 5.74315L57.7759 5.45654ZM55.8716 2.73438L56.1375 3.15782C56.815 2.73236 57.5025 2.37511 58.1998 2.08523L58.0078 1.62354L57.8159 1.16184C57.0646 1.47417 56.3279 1.85748 55.6057 2.31093L55.8716 2.73438ZM58.0078 1.62354L58.2023 2.08416C58.9109 1.78499 59.6216 1.54952 60.3348 1.37711L60.2173 0.891113L60.0998 0.405115C59.3318 0.59078 58.5696 0.843594 57.8133 1.16291L58.0078 1.62354ZM60.2173 0.891113L60.3386 1.37618C61.0657 1.1944 61.7919 1.06421 62.5174 0.985353L62.4634 0.488281L62.4093 -0.00879097C61.6374 0.0751114 60.8663 0.213476 60.096 0.406042L60.2173 0.891113ZM62.4634 0.488281L62.5168 0.985416C63.2562 0.905912 63.9911 0.866211 64.7217 0.866211V0.366211V-0.133789C63.9548 -0.133789 63.1842 -0.0921097 62.4099 -0.00885391L62.4634 0.488281ZM64.7217 0.366211L64.2745 0.142605L64.2623 0.167019L64.7095 0.390625L65.1567 0.614231L65.1689 0.589817L64.7217 0.366211ZM64.7095 0.390625V0.890625H64.7217V0.390625V-0.109375H64.7095V0.390625ZM64.7217 0.390625H64.2217V16.0522H64.7217H65.2217V0.390625H64.7217ZM64.7217 16.0522V16.5522H68.8599V16.0522V15.5522H64.7217V16.0522ZM68.8599 16.0522H68.3599V19.4458H68.8599H69.3599V16.0522H68.8599ZM68.8599 19.4458V18.9458H56.5186V19.4458V19.9458H68.8599V19.4458ZM56.5186 19.4458H57.0186V16.0522H56.5186H56.0186V19.4458H56.5186ZM80.6641 14.9048L80.8908 14.4591L80.4777 14.249L80.2369 14.6449L80.6641 14.9048ZM82.1655 15.5151L82.0139 15.9917L82.0225 15.9942L82.1655 15.5151ZM83.8379 15.9302L83.7398 16.4205L83.7412 16.4207L83.8379 15.9302ZM85.5713 16.1865L85.5222 16.6842L85.5298 16.6848L85.5713 16.1865ZM89.8071 16.0522L89.903 16.543L89.9073 16.5421L89.8071 16.0522ZM91.5649 15.4419L91.3202 15.0059L91.3169 15.0078L91.5649 15.4419ZM92.5903 14.5142L92.1658 14.25L92.1642 14.2527L92.5903 14.5142ZM92.5781 12.0728L92.151 12.3328L92.1552 12.3394L92.5781 12.0728ZM91.5405 11.1084L91.2867 11.5392L91.29 11.5411L91.5405 11.1084ZM89.8071 10.4858L89.698 10.9738L89.7047 10.9752L89.8071 10.4858ZM85.9741 10.3149L86.0053 10.814L86.0131 10.8134L85.9741 10.3149ZM82.4829 10.8276L82.5894 11.3162L82.5953 11.3148L82.4829 10.8276ZM80.5542 11.3403H80.0542V12.0204L80.7033 11.8176L80.5542 11.3403ZM80.5542 0.366211V-0.133789H80.0542V0.366211H80.5542ZM95.1904 0.366211H95.6904V-0.133789H95.1904V0.366211ZM95.1904 3.79639V4.29639H95.6904V3.79639H95.1904ZM84.1309 3.79639V3.29639H83.6309V3.79639H84.1309ZM84.1309 7.49512H83.6309V8.12113L84.2414 7.98275L84.1309 7.49512ZM86.0474 7.15332L86.1138 7.64892L86.1198 7.64805L86.0474 7.15332ZM94.5557 8.70361L94.2549 9.10308L94.2571 9.10468L94.5557 8.70361ZM96.228 10.6812L95.7799 10.9029L95.7808 10.9048L96.228 10.6812ZM96.1792 15.9302L95.7357 15.6994L95.7348 15.7011L96.1792 15.9302ZM94.3604 17.9565L94.0744 17.5463L94.0725 17.5477L94.3604 17.9565ZM91.4062 19.2505L91.2818 18.7662L91.281 18.7664L91.4062 19.2505ZM85.0586 19.5679L85.1161 19.0712L85.1115 19.0707L85.0586 19.5679ZM82.8247 19.2139L82.7151 19.7017L82.7203 19.7028L82.8247 19.2139ZM80.7373 18.6279L80.5687 19.0987L80.5757 19.1011L80.7373 18.6279ZM78.8818 17.8345L78.4547 17.5746L78.1739 18.0361L78.6557 18.2804L78.8818 17.8345ZM80.6641 14.9048L80.4373 15.3504C80.9273 15.5997 81.4531 15.8132 82.0139 15.9916L82.1655 15.5151L82.3171 15.0387C81.8037 14.8753 81.3286 14.6819 80.8908 14.4591L80.6641 14.9048ZM82.1655 15.5151L82.0225 15.9942C82.5829 16.1615 83.1553 16.3036 83.7398 16.4205L83.8379 15.9302L83.936 15.4399C83.3811 15.3289 82.8387 15.1943 82.3085 15.036L82.1655 15.5151ZM83.8379 15.9302L83.7412 16.4207C84.3345 16.5377 84.9282 16.6255 85.5222 16.6841L85.5713 16.1865L85.6203 15.6889C85.0588 15.6336 84.4969 15.5505 83.9346 15.4396L83.8379 15.9302ZM85.5713 16.1865L85.5298 16.6848C86.1287 16.7347 86.7122 16.7598 87.2803 16.7598V16.2598V15.7598C86.7416 15.7598 86.1858 15.736 85.6128 15.6883L85.5713 16.1865ZM87.2803 16.2598V16.7598C88.2785 16.7598 89.1546 16.6892 89.903 16.543L89.8071 16.0522L89.7112 15.5615C89.0437 15.692 88.2351 15.7598 87.2803 15.7598V16.2598ZM89.8071 16.0522L89.9073 16.5421C90.6566 16.3888 91.2971 16.1708 91.813 15.876L91.5649 15.4419L91.3169 15.0078C90.9213 15.2338 90.3899 15.4227 89.7069 15.5624L89.8071 16.0522ZM91.5649 15.4419L91.8097 15.8779C92.3285 15.5866 92.7418 15.2233 93.0165 14.7757L92.5903 14.5142L92.1642 14.2527C91.9994 14.5212 91.7291 14.7763 91.3202 15.0059L91.5649 15.4419ZM92.5903 14.5142L93.0149 14.7783C93.293 14.3313 93.4321 13.8366 93.4321 13.3057H92.9321H92.4321C92.4321 13.6536 92.3434 13.9646 92.1658 14.25L92.5903 14.5142ZM92.9321 13.3057H93.4321C93.4321 12.7648 93.288 12.2612 93.0011 11.8061L92.5781 12.0728L92.1552 12.3394C92.3402 12.633 92.4321 12.9513 92.4321 13.3057H92.9321ZM92.5781 12.0728L93.0052 11.8128C92.7252 11.3527 92.3113 10.9769 91.791 10.6757L91.5405 11.1084L91.29 11.5411C91.6975 11.777 91.9753 12.0441 92.151 12.3327L92.5781 12.0728ZM91.5405 11.1084L91.7944 10.6776C91.2785 10.3736 90.6453 10.1504 89.9096 9.99644L89.8071 10.4858L89.7047 10.9752C90.3687 11.1142 90.8911 11.3061 91.2867 11.5392L91.5405 11.1084ZM89.8071 10.4858L89.9162 9.99788C89.1796 9.83324 88.3318 9.75391 87.3779 9.75391V10.2539V10.7539C88.2795 10.7539 89.0511 10.8292 89.6981 10.9738L89.8071 10.4858ZM87.3779 10.2539V9.75391C86.9471 9.75391 86.4658 9.775 85.9352 9.81646L85.9741 10.3149L86.0131 10.8134C86.5241 10.7735 86.9787 10.7539 87.3779 10.7539V10.2539ZM85.9741 10.3149L85.9429 9.81592C85.408 9.84935 84.842 9.9077 84.2452 9.99059L84.314 10.4858L84.3828 10.9811C84.9578 10.9012 85.4986 10.8456 86.0053 10.814L85.9741 10.3149ZM84.314 10.4858L84.2452 9.99059C83.6432 10.0742 83.0182 10.191 82.3705 10.3404L82.4829 10.8276L82.5953 11.3148C83.2171 11.1713 83.8129 11.0602 84.3828 10.9811L84.314 10.4858ZM82.4829 10.8276L82.3764 10.3391C81.7266 10.4807 81.0695 10.6555 80.4051 10.8631L80.5542 11.3403L80.7033 11.8176C81.341 11.6183 81.9697 11.4512 82.5894 11.3162L82.4829 10.8276ZM80.5542 11.3403H81.0542V0.366211H80.5542H80.0542V11.3403H80.5542ZM80.5542 0.366211V0.866211H95.1904V0.366211V-0.133789H80.5542V0.366211ZM95.1904 0.366211H94.6904V3.79639H95.1904H95.6904V0.366211H95.1904ZM95.1904 3.79639V3.29639H84.1309V3.79639V4.29639H95.1904V3.79639ZM84.1309 3.79639H83.6309V7.49512H84.1309H84.6309V3.79639H84.1309ZM84.1309 7.49512L84.2414 7.98275C84.8361 7.84794 85.4602 7.73656 86.1138 7.64888L86.0474 7.15332L85.9809 6.65776C85.2999 6.74911 84.6463 6.8656 84.0203 7.00749L84.1309 7.49512ZM86.0474 7.15332L86.1198 7.64805C86.7586 7.55456 87.4785 7.50684 88.2812 7.50684V7.00684V6.50684C87.4401 6.50684 86.6708 6.55676 85.975 6.65859L86.0474 7.15332ZM88.2812 7.00684V7.50684C89.5886 7.50684 90.7428 7.64955 91.7489 7.92815L91.8823 7.44629L92.0158 6.96442C90.906 6.65709 89.6595 6.50684 88.2812 6.50684V7.00684ZM91.8823 7.44629L91.7489 7.92815C92.7588 8.20782 93.5901 8.60258 94.2549 9.10307L94.5557 8.70361L94.8564 8.30415C94.0727 7.71416 93.1217 7.27069 92.0158 6.96442L91.8823 7.44629ZM94.5557 8.70361L94.2571 9.10468C94.93 9.60563 95.4344 10.2047 95.7799 10.9029L96.228 10.6812L96.6762 10.4594C96.2566 9.61143 95.6462 8.89209 94.8542 8.30255L94.5557 8.70361ZM96.228 10.6812L95.7808 10.9048C96.1248 11.5928 96.3018 12.3734 96.3018 13.2568H96.8018H97.3018C97.3018 12.236 97.0962 11.2995 96.6752 10.4575L96.228 10.6812ZM96.8018 13.2568H96.3018C96.3018 14.169 96.1102 14.9797 95.7357 15.6994L96.1792 15.9302L96.6227 16.161C97.0783 15.2856 97.3018 14.3141 97.3018 13.2568H96.8018ZM96.1792 15.9302L95.7348 15.7011C95.369 16.4107 94.8205 17.0264 94.0745 17.5463L94.3604 17.9565L94.6462 18.3667C95.5115 17.7637 96.1756 17.0284 96.6236 16.1593L96.1792 15.9302ZM94.3604 17.9565L94.0725 17.5477C93.3347 18.0672 92.4087 18.4767 91.2818 18.7662L91.4062 19.2505L91.5307 19.7348C92.7476 19.4221 93.7909 18.969 94.6482 18.3654L94.3604 17.9565ZM91.4062 19.2505L91.281 18.7664C90.1671 19.0546 88.8719 19.2021 87.3901 19.2021V19.7021V20.2021C88.9357 20.2021 90.3179 20.0486 91.5315 19.7345L91.4062 19.2505ZM87.3901 19.7021V19.2021C86.628 19.2021 85.8701 19.1585 85.1161 19.0712L85.0586 19.5679L85.0011 20.0646C85.7934 20.1563 86.5897 20.2021 87.3901 20.2021V19.7021ZM85.0586 19.5679L85.1115 19.0707C84.3631 18.9911 83.6357 18.8757 82.9291 18.7249L82.8247 19.2139L82.7203 19.7028C83.4623 19.8612 84.2241 19.9819 85.0057 20.0651L85.0586 19.5679ZM82.8247 19.2139L82.9343 18.726C82.2267 18.567 81.5483 18.3765 80.8989 18.1548L80.7373 18.6279L80.5757 19.1011C81.261 19.3351 81.9741 19.5352 82.7151 19.7017L82.8247 19.2139ZM80.7373 18.6279L80.9058 18.1572C80.2648 17.9277 79.6657 17.6713 79.1079 17.3885L78.8818 17.8345L78.6557 18.2804C79.2536 18.5836 79.8915 18.8562 80.5688 19.0987L80.7373 18.6279ZM78.8818 17.8345L79.309 18.0943L81.0912 15.1646L80.6641 14.9048L80.2369 14.6449L78.4547 17.5746L78.8818 17.8345ZM102.551 2.62451L102.903 2.97976L102.905 2.97807L102.551 2.62451ZM116.98 2.62451L116.626 2.97807L116.628 2.97975L116.98 2.62451ZM104.163 12.6099L103.69 12.7738L103.692 12.778L104.163 12.6099ZM105.371 14.624L105.01 14.9694L105.012 14.9721L105.371 14.624ZM107.263 15.8569L107.084 16.3236L107.088 16.3253L107.263 15.8569ZM112.268 15.8569L112.443 16.3253L112.448 16.3236L112.268 15.8569ZM114.16 14.624L114.519 14.9721L114.522 14.9694L114.16 14.624ZM115.356 12.6099L114.886 12.4417L114.884 12.446L115.356 12.6099ZM115.356 7.1167L114.884 7.2806L114.886 7.2864L115.356 7.1167ZM114.16 5.10254L113.799 5.44791L114.16 5.10254ZM112.268 3.86963L112.089 4.33632L112.093 4.33801L112.268 3.86963ZM107.263 3.86963L107.438 4.33803L107.443 4.3363L107.263 3.86963ZM104.163 7.1167L103.692 6.94853L103.691 6.95131L104.163 7.1167ZM99.8779 9.86328H100.378C100.378 8.37531 100.602 7.05757 101.041 5.90271L100.574 5.7251L100.106 5.54749C99.6175 6.83403 99.3779 8.27508 99.3779 9.86328H99.8779ZM100.574 5.7251L101.041 5.90271C101.482 4.74298 102.104 3.77164 102.903 2.97975L102.551 2.62451L102.199 2.26927C101.29 3.17009 100.593 4.2658 100.106 5.54749L100.574 5.7251ZM102.551 2.62451L102.905 2.97807C103.704 2.17874 104.678 1.56535 105.836 1.14083L105.664 0.671387L105.492 0.201948C104.208 0.672607 103.107 1.3613 102.198 2.27096L102.551 2.62451ZM105.664 0.671387L105.836 1.14083C106.994 0.716471 108.301 0.5 109.766 0.5V0V-0.5C108.203 -0.5 106.776 -0.268879 105.492 0.201948L105.664 0.671387ZM109.766 0V0.5C111.23 0.5 112.538 0.716471 113.695 1.14083L113.867 0.671387L114.039 0.201948C112.755 -0.268879 111.329 -0.5 109.766 -0.5V0ZM113.867 0.671387L113.695 1.14083C114.853 1.56535 115.827 2.17874 116.626 2.97807L116.98 2.62451L117.334 2.27096C116.424 1.3613 115.323 0.672607 114.039 0.201948L113.867 0.671387ZM116.98 2.62451L116.628 2.97975C117.428 3.77164 118.049 4.74298 118.49 5.90271L118.958 5.7251L119.425 5.54749C118.938 4.2658 118.241 3.17009 117.332 2.26927L116.98 2.62451ZM118.958 5.7251L118.49 5.90271C118.929 7.05757 119.153 8.37531 119.153 9.86328H119.653H120.153C120.153 8.27508 119.914 6.83403 119.425 5.54749L118.958 5.7251ZM119.653 9.86328H119.153C119.153 11.3512 118.929 12.669 118.49 13.8239L118.958 14.0015L119.425 14.1791C119.914 12.8925 120.153 11.4515 120.153 9.86328H119.653ZM118.958 14.0015L118.49 13.8239C118.049 14.9836 117.428 15.9549 116.628 16.7468L116.98 17.1021L117.332 17.4573C118.241 16.5565 118.938 15.4608 119.425 14.1791L118.958 14.0015ZM116.98 17.1021L116.628 16.7468C115.829 17.5386 114.854 18.1486 113.695 18.5735L113.867 19.043L114.039 19.5124C115.322 19.0421 116.422 18.3582 117.332 17.4573L116.98 17.1021ZM113.867 19.043L113.695 18.5735C112.538 18.9979 111.23 19.2144 109.766 19.2144V19.7144V20.2144C111.329 20.2144 112.755 19.9832 114.039 19.5124L113.867 19.043ZM109.766 19.7144V19.2144C108.301 19.2144 106.994 18.9979 105.836 18.5735L105.664 19.043L105.492 19.5124C106.776 19.9832 108.203 20.2144 109.766 20.2144V19.7144ZM105.664 19.043L105.836 18.5735C104.677 18.1486 103.703 17.5386 102.903 16.7468L102.551 17.1021L102.199 17.4573C103.109 18.3582 104.209 19.0421 105.492 19.5124L105.664 19.043ZM102.551 17.1021L102.903 16.7468C102.104 15.9549 101.482 14.9836 101.041 13.8239L100.574 14.0015L100.106 14.1791C100.593 15.4608 101.29 16.5565 102.199 17.4573L102.551 17.1021ZM100.574 14.0015L101.041 13.8239C100.602 12.669 100.378 11.3512 100.378 9.86328H99.8779H99.3779C99.3779 11.4515 99.6175 12.8925 100.106 14.1791L100.574 14.0015ZM103.748 9.85107H103.248C103.248 10.936 103.392 11.9128 103.69 12.7738L104.163 12.6099L104.635 12.446C104.38 11.7118 104.248 10.8495 104.248 9.85107H103.748ZM104.163 12.6099L103.692 12.778C103.997 13.6335 104.435 14.3675 105.01 14.9694L105.371 14.624L105.733 14.2787C105.266 13.7901 104.898 13.1813 104.633 12.4417L104.163 12.6099ZM105.371 14.624L105.012 14.9721C105.587 15.5644 106.28 16.0143 107.084 16.3236L107.263 15.8569L107.443 15.3903C106.766 15.1299 106.197 14.7579 105.73 14.276L105.371 14.624ZM107.263 15.8569L107.088 16.3253C107.894 16.6262 108.788 16.772 109.766 16.772V16.272V15.772C108.887 15.772 108.114 15.6411 107.438 15.3886L107.263 15.8569ZM109.766 16.272V16.772C110.743 16.772 111.638 16.6262 112.443 16.3253L112.268 15.8569L112.093 15.3886C111.417 15.6411 110.644 15.772 109.766 15.772V16.272ZM112.268 15.8569L112.448 16.3236C113.252 16.0143 113.945 15.5644 114.519 14.9721L114.16 14.624L113.801 14.276C113.334 14.7579 112.766 15.1299 112.089 15.3903L112.268 15.8569ZM114.16 14.624L114.522 14.9694C115.098 14.3664 115.531 13.6309 115.829 12.7738L115.356 12.6099L114.884 12.446C114.628 13.1839 114.264 13.7911 113.799 14.2787L114.16 14.624ZM115.356 12.6099L115.827 12.778C116.135 11.9157 116.284 10.9373 116.284 9.85107H115.784H115.284C115.284 10.8481 115.147 11.7089 114.886 12.4417L115.356 12.6099ZM115.784 9.85107H116.284C116.284 8.7726 116.135 7.80176 115.827 6.947L115.356 7.1167L114.886 7.2864C115.147 8.01041 115.284 8.86249 115.284 9.85107H115.784ZM115.356 7.1167L115.829 6.95281C115.531 6.09568 115.098 5.36015 114.522 4.75717L114.16 5.10254L113.799 5.44791C114.264 5.93542 114.628 6.54267 114.884 7.28059L115.356 7.1167ZM114.16 5.10254L114.522 4.75717C113.946 4.15472 113.251 3.70304 112.443 3.40125L112.268 3.86963L112.093 4.33801C112.766 4.58961 113.332 4.95986 113.799 5.44791L114.16 5.10254ZM112.268 3.86963L112.448 3.40296C111.641 3.09271 110.745 2.94238 109.766 2.94238V3.44238V3.94238C110.642 3.94238 111.414 4.07689 112.089 4.3363L112.268 3.86963ZM109.766 3.44238V2.94238C108.787 2.94238 107.89 3.09271 107.084 3.40296L107.263 3.86963L107.443 4.3363C108.117 4.07689 108.889 3.94238 109.766 3.94238V3.44238ZM107.263 3.86963L107.088 3.40125C106.28 3.70304 105.585 4.15472 105.01 4.75717L105.371 5.10254L105.733 5.44791C106.199 4.95986 106.765 4.58961 107.438 4.33801L107.263 3.86963ZM105.371 5.10254L105.01 4.75717C104.435 5.35907 103.997 6.09307 103.692 6.94853L104.163 7.1167L104.633 7.28487C104.898 6.54527 105.266 5.9365 105.733 5.44791L105.371 5.10254ZM104.163 7.1167L103.691 6.95131C103.392 7.80469 103.248 8.77399 103.248 9.85107H103.748H104.248C104.248 8.8611 104.38 8.00749 104.634 7.28209L104.163 7.1167ZM132.788 14.9048L133.015 14.4591L132.602 14.249L132.361 14.6449L132.788 14.9048ZM134.29 15.5151L134.138 15.9917L134.147 15.9942L134.29 15.5151ZM135.962 15.9302L135.864 16.4205L135.865 16.4207L135.962 15.9302ZM137.695 16.1865L137.646 16.6842L137.654 16.6848L137.695 16.1865ZM141.931 16.0522L142.027 16.543L142.031 16.5421L141.931 16.0522ZM143.689 15.4419L143.444 15.0059L143.441 15.0078L143.689 15.4419ZM144.714 14.5142L144.29 14.25L144.288 14.2527L144.714 14.5142ZM144.702 12.0728L144.275 12.3328L144.279 12.3394L144.702 12.0728ZM143.665 11.1084L143.411 11.5392L143.414 11.5411L143.665 11.1084ZM141.931 10.4858L141.822 10.9738L141.829 10.9752L141.931 10.4858ZM138.098 10.3149L138.129 10.814L138.137 10.8134L138.098 10.3149ZM134.607 10.8276L134.713 11.3162L134.719 11.3148L134.607 10.8276ZM132.678 11.3403H132.178V12.0204L132.827 11.8176L132.678 11.3403ZM132.678 0.366211V-0.133789H132.178V0.366211H132.678ZM147.314 0.366211H147.814V-0.133789H147.314V0.366211ZM147.314 3.79639V4.29639H147.814V3.79639H147.314ZM136.255 3.79639V3.29639H135.755V3.79639H136.255ZM136.255 7.49512H135.755V8.12113L136.365 7.98275L136.255 7.49512ZM138.171 7.15332L138.238 7.64892L138.244 7.64805L138.171 7.15332ZM146.68 8.70361L146.379 9.10308L146.381 9.10468L146.68 8.70361ZM148.352 10.6812L147.904 10.9029L147.905 10.9048L148.352 10.6812ZM148.303 15.9302L147.86 15.6994L147.859 15.7011L148.303 15.9302ZM146.484 17.9565L146.198 17.5463L146.197 17.5477L146.484 17.9565ZM143.53 19.2505L143.406 18.7662L143.405 18.7664L143.53 19.2505ZM137.183 19.5679L137.24 19.0712L137.236 19.0707L137.183 19.5679ZM134.949 19.2139L134.839 19.7017L134.844 19.7028L134.949 19.2139ZM132.861 18.6279L132.693 19.0987L132.7 19.1011L132.861 18.6279ZM131.006 17.8345L130.579 17.5746L130.298 18.0361L130.78 18.2804L131.006 17.8345ZM132.788 14.9048L132.561 15.3504C133.051 15.5997 133.577 15.8132 134.138 15.9916L134.29 15.5151L134.441 15.0387C133.928 14.8753 133.453 14.6819 133.015 14.4591L132.788 14.9048ZM134.29 15.5151L134.147 15.9942C134.707 16.1615 135.279 16.3036 135.864 16.4205L135.962 15.9302L136.06 15.4399C135.505 15.3289 134.963 15.1943 134.433 15.036L134.29 15.5151ZM135.962 15.9302L135.865 16.4207C136.459 16.5377 137.052 16.6255 137.646 16.6841L137.695 16.1865L137.744 15.6889C137.183 15.6336 136.621 15.5505 136.059 15.4396L135.962 15.9302ZM137.695 16.1865L137.654 16.6848C138.253 16.7347 138.836 16.7598 139.404 16.7598V16.2598V15.7598C138.866 15.7598 138.31 15.736 137.737 15.6883L137.695 16.1865ZM139.404 16.2598V16.7598C140.403 16.7598 141.279 16.6892 142.027 16.543L141.931 16.0522L141.835 15.5615C141.168 15.692 140.359 15.7598 139.404 15.7598V16.2598ZM141.931 16.0522L142.031 16.5421C142.781 16.3888 143.421 16.1708 143.937 15.876L143.689 15.4419L143.441 15.0078C143.045 15.2338 142.514 15.4227 141.831 15.5624L141.931 16.0522ZM143.689 15.4419L143.934 15.8779C144.453 15.5866 144.866 15.2233 145.141 14.7757L144.714 14.5142L144.288 14.2527C144.123 14.5212 143.853 14.7763 143.444 15.0059L143.689 15.4419ZM144.714 14.5142L145.139 14.7783C145.417 14.3313 145.556 13.8366 145.556 13.3057H145.056H144.556C144.556 13.6536 144.467 13.9646 144.29 14.25L144.714 14.5142ZM145.056 13.3057H145.556C145.556 12.7648 145.412 12.2612 145.125 11.8061L144.702 12.0728L144.279 12.3394C144.464 12.633 144.556 12.9513 144.556 13.3057H145.056ZM144.702 12.0728L145.129 11.8128C144.849 11.3527 144.435 10.9769 143.915 10.6757L143.665 11.1084L143.414 11.5411C143.822 11.777 144.099 12.0441 144.275 12.3327L144.702 12.0728ZM143.665 11.1084L143.918 10.6776C143.402 10.3736 142.769 10.1504 142.034 9.99644L141.931 10.4858L141.829 10.9752C142.493 11.1142 143.015 11.3061 143.411 11.5392L143.665 11.1084ZM141.931 10.4858L142.04 9.99788C141.304 9.83324 140.456 9.75391 139.502 9.75391V10.2539V10.7539C140.404 10.7539 141.175 10.8292 141.822 10.9738L141.931 10.4858ZM139.502 10.2539V9.75391C139.071 9.75391 138.59 9.775 138.059 9.81646L138.098 10.3149L138.137 10.8134C138.648 10.7735 139.103 10.7539 139.502 10.7539V10.2539ZM138.098 10.3149L138.067 9.81592C137.532 9.84935 136.966 9.9077 136.369 9.99059L136.438 10.4858L136.507 10.9811C137.082 10.9012 137.623 10.8456 138.129 10.814L138.098 10.3149ZM136.438 10.4858L136.369 9.99059C135.767 10.0742 135.142 10.191 134.495 10.3404L134.607 10.8276L134.719 11.3148C135.341 11.1713 135.937 11.0602 136.507 10.9811L136.438 10.4858ZM134.607 10.8276L134.5 10.3391C133.851 10.4807 133.193 10.6555 132.529 10.8631L132.678 11.3403L132.827 11.8176C133.465 11.6183 134.094 11.4512 134.713 11.3162L134.607 10.8276ZM132.678 11.3403H133.178V0.366211H132.678H132.178V11.3403H132.678ZM132.678 0.366211V0.866211H147.314V0.366211V-0.133789H132.678V0.366211ZM147.314 0.366211H146.814V3.79639H147.314H147.814V0.366211H147.314ZM147.314 3.79639V3.29639H136.255V3.79639V4.29639H147.314V3.79639ZM136.255 3.79639H135.755V7.49512H136.255H136.755V3.79639H136.255ZM136.255 7.49512L136.365 7.98275C136.96 7.84794 137.584 7.73656 138.238 7.64888L138.171 7.15332L138.105 6.65776C137.424 6.74911 136.77 6.8656 136.144 7.00749L136.255 7.49512ZM138.171 7.15332L138.244 7.64805C138.883 7.55456 139.603 7.50684 140.405 7.50684V7.00684V6.50684C139.564 6.50684 138.795 6.55676 138.099 6.65859L138.171 7.15332ZM140.405 7.00684V7.50684C141.713 7.50684 142.867 7.64955 143.873 7.92815L144.006 7.44629L144.14 6.96442C143.03 6.65709 141.784 6.50684 140.405 6.50684V7.00684ZM144.006 7.44629L143.873 7.92815C144.883 8.20782 145.714 8.60258 146.379 9.10307L146.68 8.70361L146.98 8.30415C146.197 7.71416 145.246 7.27069 144.14 6.96442L144.006 7.44629ZM146.68 8.70361L146.381 9.10468C147.054 9.60563 147.558 10.2047 147.904 10.9029L148.352 10.6812L148.8 10.4594C148.381 9.61143 147.77 8.89209 146.978 8.30255L146.68 8.70361ZM148.352 10.6812L147.905 10.9048C148.249 11.5928 148.426 12.3734 148.426 13.2568H148.926H149.426C149.426 12.236 149.22 11.2995 148.799 10.4575L148.352 10.6812ZM148.926 13.2568H148.426C148.426 14.169 148.234 14.9797 147.86 15.6994L148.303 15.9302L148.747 16.161C149.202 15.2856 149.426 14.3141 149.426 13.2568H148.926ZM148.303 15.9302L147.859 15.7011C147.493 16.4107 146.945 17.0264 146.198 17.5463L146.484 17.9565L146.77 18.3667C147.636 17.7637 148.3 17.0284 148.748 16.1593L148.303 15.9302ZM146.484 17.9565L146.197 17.5477C145.459 18.0672 144.533 18.4767 143.406 18.7662L143.53 19.2505L143.655 19.7348C144.872 19.4221 145.915 18.969 146.772 18.3654L146.484 17.9565ZM143.53 19.2505L143.405 18.7664C142.291 19.0546 140.996 19.2021 139.514 19.2021V19.7021V20.2021C141.06 20.2021 142.442 20.0486 143.656 19.7345L143.53 19.2505ZM139.514 19.7021V19.2021C138.752 19.2021 137.994 19.1585 137.24 19.0712L137.183 19.5679L137.125 20.0646C137.917 20.1563 138.714 20.2021 139.514 20.2021V19.7021ZM137.183 19.5679L137.236 19.0707C136.487 18.9911 135.76 18.8757 135.053 18.7249L134.949 19.2139L134.844 19.7028C135.586 19.8612 136.348 19.9819 137.13 20.0651L137.183 19.5679ZM134.949 19.2139L135.058 18.726C134.351 18.567 133.672 18.3765 133.023 18.1548L132.861 18.6279L132.7 19.1011C133.385 19.3351 134.098 19.5352 134.839 19.7017L134.949 19.2139ZM132.861 18.6279L133.03 18.1572C132.389 17.9277 131.79 17.6713 131.232 17.3885L131.006 17.8345L130.78 18.2804C131.378 18.5836 132.015 18.8562 132.693 19.0987L132.861 18.6279ZM131.006 17.8345L131.433 18.0943L133.215 15.1646L132.788 14.9048L132.361 14.6449L130.579 17.5746L131.006 17.8345ZM153.809 14.9048L154.029 14.4561L153.619 14.2544L153.381 14.6449L153.809 14.9048ZM156.885 15.9424L156.786 16.4326L156.79 16.4334L156.885 15.9424ZM162.5 16.04L162.606 16.5287L162.612 16.5274L162.5 16.04ZM164.172 15.4175L163.917 14.9873L164.172 15.4175ZM164.893 11.8286L164.512 12.1535L164.515 12.1569L164.893 11.8286ZM163.147 10.8276L163.006 11.3073L163.012 11.309L163.147 10.8276ZM160.205 10.5591L160.185 10.0595L160.184 10.0595L160.205 10.5591ZM156.03 11.2549L155.53 11.2527L155.528 11.9015L156.156 11.7389L156.03 11.2549ZM156.042 8.39844L155.77 7.97935L155.544 8.1265L155.542 8.3963L156.042 8.39844ZM163.171 3.75977L163.444 4.17886L164.857 3.25977H163.171V3.75977ZM153.076 3.75977H152.576V4.25977H153.076V3.75977ZM153.076 0.366211V-0.133789H152.576V0.366211H153.076ZM168.347 0.366211H168.847V-0.133789H168.347V0.366211ZM168.347 3.68652L168.615 4.10876L168.847 3.96149V3.68652H168.347ZM162.073 7.66602L161.805 7.24378L160.351 8.16602H162.073V7.66602ZM168.848 11.1328L168.394 11.3437L168.848 11.1328ZM168.701 15.9912L168.262 15.7531L168.261 15.7547L168.701 15.9912ZM166.882 17.981L167.165 18.3937L167.167 18.3918L166.882 17.981ZM163.953 19.2505L163.827 18.7666L163.826 18.7669L163.953 19.2505ZM155.762 19.2139L155.638 19.6984L155.641 19.6991L155.762 19.2139ZM152.026 17.8345L151.599 17.5746L151.316 18.04L151.804 18.2823L152.026 17.8345ZM153.809 14.9048L153.588 15.3535C154.588 15.8453 155.655 16.2046 156.786 16.4325L156.885 15.9424L156.984 15.4522C155.934 15.2407 154.949 14.9083 154.029 14.4561L153.809 14.9048ZM156.885 15.9424L156.79 16.4334C157.918 16.6505 159.02 16.7598 160.095 16.7598V16.2598V15.7598C159.088 15.7598 158.049 15.6574 156.979 15.4514L156.885 15.9424ZM160.095 16.2598V16.7598C161.047 16.7598 161.886 16.6848 162.606 16.5287L162.5 16.04L162.394 15.5514C161.763 15.6883 160.999 15.7598 160.095 15.7598V16.2598ZM162.5 16.04L162.612 16.5274C163.321 16.3651 163.931 16.1419 164.427 15.8476L164.172 15.4175L163.917 14.9873C163.535 15.2139 163.03 15.4057 162.388 15.5526L162.5 16.04ZM164.172 15.4175L164.427 15.8476C164.923 15.554 165.316 15.1894 165.579 14.7441L165.149 14.4897L164.718 14.2354C164.558 14.5063 164.301 14.7601 163.917 14.9873L164.172 15.4175ZM165.149 14.4897L165.579 14.7441C165.836 14.3092 165.966 13.8348 165.966 13.3301H165.466H164.966C164.966 13.6554 164.885 13.9542 164.718 14.2354L165.149 14.4897ZM165.466 13.3301H165.966C165.966 12.643 165.728 12.0271 165.27 11.5004L164.893 11.8286L164.515 12.1569C164.822 12.509 164.966 12.8941 164.966 13.3301H165.466ZM164.893 11.8286L165.273 11.5038C164.806 10.9574 164.124 10.583 163.282 10.3463L163.147 10.8276L163.012 11.309C163.733 11.5117 164.214 11.8046 164.512 12.1534L164.893 11.8286ZM163.147 10.8276L163.288 10.348C162.444 10.0992 161.404 10.0094 160.185 10.0595L160.205 10.5591L160.226 11.0587C161.383 11.0111 162.304 11.1003 163.006 11.3072L163.147 10.8276ZM160.205 10.5591L160.184 10.0595C158.958 10.1103 157.53 10.3502 155.905 10.7708L156.03 11.2549L156.156 11.7389C157.737 11.3295 159.092 11.1056 160.226 11.0587L160.205 10.5591ZM156.03 11.2549L156.53 11.257L156.542 8.40057L156.042 8.39844L155.542 8.3963L155.53 11.2527L156.03 11.2549ZM156.042 8.39844L156.315 8.81753L163.444 4.17886L163.171 3.75977L162.899 3.34068L155.77 7.97935L156.042 8.39844ZM163.171 3.75977V3.25977H153.076V3.75977V4.25977H163.171V3.75977ZM153.076 3.75977H153.576V0.366211H153.076H152.576V3.75977H153.076ZM153.076 0.366211V0.866211H168.347V0.366211V-0.133789H153.076V0.366211ZM168.347 0.366211H167.847V3.68652H168.347H168.847V0.366211H168.347ZM168.347 3.68652L168.079 3.26429L161.805 7.24378L162.073 7.66602L162.341 8.08825L168.615 4.10876L168.347 3.68652ZM162.073 7.66602V8.16602C163.178 8.16602 164.15 8.30723 164.995 8.58108L165.149 8.10547L165.303 7.62986C164.341 7.31777 163.262 7.16602 162.073 7.16602V7.66602ZM165.149 8.10547L164.995 8.58108C165.849 8.85801 166.551 9.23323 167.113 9.6989L167.432 9.31396L167.751 8.92902C167.076 8.36931 166.256 7.93886 165.303 7.62986L165.149 8.10547ZM167.432 9.31396L167.113 9.6989C167.676 10.1662 168.101 10.7138 168.394 11.3437L168.848 11.1328L169.301 10.9219C168.943 10.152 168.424 9.48708 167.751 8.92902L167.432 9.31396ZM168.848 11.1328L168.394 11.3437C168.688 11.9746 168.836 12.655 168.836 13.3911H169.336H169.836C169.836 12.5159 169.659 11.6908 169.301 10.9219L168.848 11.1328ZM169.336 13.3911H168.836C168.836 14.2662 168.642 15.0502 168.262 15.7531L168.701 15.9912L169.141 16.2294C169.606 15.3698 169.836 14.4203 169.836 13.3911H169.336ZM168.701 15.9912L168.261 15.7547C167.887 16.4511 167.337 17.0569 166.597 17.5702L166.882 17.981L167.167 18.3918C168.023 17.7982 168.685 17.0775 169.142 16.2277L168.701 15.9912ZM166.882 17.981L166.6 17.5682C165.86 18.0743 164.939 18.4768 163.827 18.7666L163.953 19.2505L164.079 19.7343C165.277 19.422 166.31 18.9781 167.165 18.3937L166.882 17.981ZM163.953 19.2505L163.826 18.7669C162.728 19.055 161.47 19.2021 160.046 19.2021V19.7021V20.2021C161.537 20.2021 162.883 20.0482 164.08 19.7341L163.953 19.2505ZM160.046 19.7021V19.2021C158.535 19.2021 157.148 19.043 155.882 18.7286L155.762 19.2139L155.641 19.6991C156.996 20.0357 158.465 20.2021 160.046 20.2021V19.7021ZM155.762 19.2139L155.885 18.7293C154.608 18.4042 153.396 17.9565 152.249 17.3866L152.026 17.8345L151.804 18.2823C153.016 18.8843 154.295 19.3563 155.638 19.6984L155.762 19.2139ZM152.026 17.8345L152.454 18.0943L154.236 15.1646L153.809 14.9048L153.381 14.6449L151.599 17.5746L152.026 17.8345ZM174.438 5.9082L173.975 5.7215L173.974 5.72301L174.438 5.9082ZM176.562 2.68555L176.219 2.32231L176.217 2.32387L176.562 2.68555ZM185.51 0.231934L185.457 0.729164L185.464 0.729826L185.51 0.231934ZM187.329 0.512695L187.222 1.0011L187.329 0.512695ZM189.05 1.02539L188.872 1.49249L188.88 1.49549L189.05 1.02539ZM190.613 1.75781L191.044 2.01109L191.296 1.58181L190.868 1.32779L190.613 1.75781ZM188.892 4.6875L188.645 5.12223L189.073 5.36568L189.323 4.94077L188.892 4.6875ZM187.744 4.1748L187.572 4.64428L187.583 4.64819L187.744 4.1748ZM186.499 3.83301L186.397 4.32266L186.406 4.32434L186.499 3.83301ZM181.335 3.94287L181.183 3.46654L181.182 3.46702L181.335 3.94287ZM179.37 4.98047L179.056 4.59171L179.37 4.98047ZM178.04 6.5918L177.598 6.3568L177.597 6.35892L178.04 6.5918ZM177.429 8.65479L176.932 8.60133L176.805 9.78372L177.739 9.04742L177.429 8.65479ZM180.457 7.18994L180.588 7.6725L180.592 7.67121L180.457 7.18994ZM182.227 6.83594L182.287 7.33231L182.293 7.33155L182.227 6.83594ZM187.292 7.14111L187.151 7.6208L187.152 7.62111L187.292 7.14111ZM191.394 10.3394L190.944 10.5573L190.947 10.563L191.394 10.3394ZM191.394 15.625L190.941 15.414L190.939 15.4178L191.394 15.625ZM189.722 17.7734L190.037 18.1614L190.04 18.1593L189.722 17.7734ZM186.963 19.2017L187.111 19.6791L187.115 19.6781L186.963 19.2017ZM179.285 19.1772L179.138 19.6551L179.285 19.1772ZM174.353 14.624L173.887 14.8053L173.889 14.8092L174.353 14.624ZM177.515 12.2314L177.161 11.8779L176.984 12.0554L177.02 12.3038L177.515 12.2314ZM179.272 15.2588L178.986 15.6684L178.988 15.67L179.272 15.2588ZM186.804 15.3564L187.083 15.7713L187.089 15.7675L186.804 15.3564ZM187.036 10.9863L186.742 11.3908L186.752 11.3981L187.036 10.9863ZM185.645 10.376L185.514 10.8586L185.52 10.8602L185.645 10.376ZM178.589 11.4014L178.333 10.9719L178.329 10.9741L178.589 11.4014ZM173.669 10.437H174.169C174.169 8.75163 174.419 7.30749 174.903 6.09339L174.438 5.9082L173.974 5.72301C173.433 7.08053 173.169 8.6556 173.169 10.437H173.669ZM174.438 5.9082L174.902 6.0949C175.4 4.85865 176.07 3.84661 176.908 3.04722L176.562 2.68555L176.217 2.32387C175.264 3.23347 174.519 4.36987 173.975 5.7215L174.438 5.9082ZM176.562 2.68555L176.906 3.04878C177.756 2.24494 178.756 1.64234 179.912 1.24146L179.749 0.769043L179.585 0.296625C178.3 0.742102 177.176 1.41717 176.219 2.32231L176.562 2.68555ZM179.749 0.769043L179.912 1.24146C181.076 0.838213 182.338 0.634277 183.704 0.634277V0.134277V-0.365723C182.237 -0.365723 180.863 -0.146481 179.585 0.296625L179.749 0.769043ZM183.704 0.134277V0.634277C184.279 0.634277 184.864 0.665827 185.457 0.729113L185.51 0.231934L185.563 -0.265245C184.936 -0.332167 184.316 -0.365723 183.704 -0.365723V0.134277ZM185.51 0.231934L185.464 0.729826C186.063 0.784937 186.649 0.87541 187.222 1.0011L187.329 0.512695L187.436 0.0242882C186.821 -0.110435 186.195 -0.207138 185.556 -0.265959L185.51 0.231934ZM187.329 0.512695L187.222 1.0011C187.792 1.12612 188.342 1.28996 188.872 1.49242L189.05 1.02539L189.229 0.558365C188.652 0.337645 188.054 0.159691 187.436 0.0242882L187.329 0.512695ZM189.05 1.02539L188.88 1.49549C189.414 1.689 189.906 1.92006 190.358 2.18784L190.613 1.75781L190.868 1.32779C190.359 1.02591 189.81 0.768681 189.221 0.555296L189.05 1.02539ZM190.613 1.75781L190.182 1.50454L188.46 4.43423L188.892 4.6875L189.323 4.94077L191.044 2.01109L190.613 1.75781ZM188.892 4.6875L189.139 4.25277C188.752 4.03309 188.341 3.84947 187.905 3.70142L187.744 4.1748L187.583 4.64819C187.962 4.77683 188.315 4.93501 188.645 5.12223L188.892 4.6875ZM187.744 4.1748L187.917 3.70547C187.491 3.54916 187.049 3.42801 186.592 3.34168L186.499 3.83301L186.406 4.32434C186.811 4.40077 187.2 4.50749 187.572 4.64414L187.744 4.1748ZM186.499 3.83301L186.601 3.34344C186.151 3.25011 185.697 3.18224 185.239 3.13983L185.193 3.6377L185.147 4.13557C185.568 4.17453 185.984 4.23687 186.397 4.32257L186.499 3.83301ZM185.193 3.6377L185.239 3.13983C184.785 3.09778 184.338 3.07666 183.899 3.07666V3.57666V4.07666C184.306 4.07666 184.722 4.09623 185.147 4.13557L185.193 3.6377ZM183.899 3.57666V3.07666C182.912 3.07666 182.005 3.20424 181.183 3.46654L181.335 3.94287L181.487 4.4192C182.196 4.19322 182.998 4.07666 183.899 4.07666V3.57666ZM181.335 3.94287L181.182 3.46702C180.373 3.72784 179.662 4.10116 179.056 4.59171L179.37 4.98047L179.685 5.36922C180.185 4.96459 180.784 4.64619 181.489 4.41873L181.335 3.94287ZM179.37 4.98047L179.056 4.59171C178.45 5.08141 177.964 5.67076 177.598 6.3568L178.04 6.5918L178.481 6.82679C178.783 6.25957 179.183 5.77471 179.685 5.36922L179.37 4.98047ZM178.04 6.5918L177.597 6.35892C177.24 7.03802 177.02 7.78739 176.932 8.60133L177.429 8.65479L177.926 8.70824C178.002 8.00851 178.188 7.38255 178.482 6.82467L178.04 6.5918ZM177.429 8.65479L177.739 9.04742C178.131 8.73802 178.567 8.4685 179.048 8.23952L178.833 7.78809L178.618 7.33666C178.074 7.59595 177.574 7.90423 177.12 8.26215L177.429 8.65479ZM178.833 7.78809L179.048 8.23952C179.533 8.00873 180.046 7.81958 180.588 7.67248L180.457 7.18994L180.326 6.7074C179.728 6.86955 179.159 7.07916 178.618 7.33666L178.833 7.78809ZM180.457 7.18994L180.592 7.67121C181.145 7.51547 181.71 7.40246 182.287 7.33228L182.227 6.83594L182.166 6.33959C181.539 6.4159 180.924 6.5389 180.321 6.70867L180.457 7.18994ZM182.227 6.83594L182.293 7.33155C182.881 7.25307 183.47 7.21387 184.058 7.21387V6.71387V6.21387C183.425 6.21387 182.793 6.25605 182.16 6.34032L182.227 6.83594ZM184.058 6.71387V7.21387C185.206 7.21387 186.236 7.35158 187.151 7.6208L187.292 7.14111L187.434 6.66143C186.412 6.36099 185.285 6.21387 184.058 6.21387V6.71387ZM187.292 7.14111L187.152 7.62111C188.078 7.89113 188.854 8.27613 189.488 8.76895L189.795 8.37402L190.102 7.9791C189.353 7.39769 188.46 6.96076 187.432 6.66111L187.292 7.14111ZM189.795 8.37402L189.488 8.76895C190.12 9.25982 190.604 9.85479 190.944 10.5573L191.394 10.3394L191.844 10.1215C191.436 9.2777 190.853 8.56244 190.102 7.9791L189.795 8.37402ZM191.394 10.3394L190.947 10.563C191.29 11.2492 191.468 12.0417 191.468 12.9517H191.968H192.468C192.468 11.9085 192.263 10.9594 191.841 10.1157L191.394 10.3394ZM191.968 12.9517H191.468C191.468 13.8435 191.291 14.6621 190.941 15.414L191.394 15.625L191.847 15.836C192.262 14.9441 192.468 13.9804 192.468 12.9517H191.968ZM191.394 15.625L190.939 15.4178C190.598 16.1662 190.089 16.8225 189.404 17.3876L189.722 17.7734L190.04 18.1593C190.835 17.5037 191.441 16.7277 191.849 15.8322L191.394 15.625ZM189.722 17.7734L189.406 17.3855C188.723 17.941 187.862 18.3905 186.811 18.7252L186.963 19.2017L187.115 19.6781C188.261 19.313 189.239 18.8103 190.037 18.1614L189.722 17.7734ZM186.963 19.2017L186.814 18.7242C185.774 19.0478 184.553 19.2144 183.142 19.2144V19.7144V20.2144C184.629 20.2144 185.954 20.0391 187.111 19.6791L186.963 19.2017ZM183.142 19.7144V19.2144C181.776 19.2144 180.541 19.0407 179.432 18.6994L179.285 19.1772L179.138 19.6551C180.356 20.0299 181.692 20.2144 183.142 20.2144V19.7144ZM179.285 19.1772L179.432 18.6994C178.332 18.3611 177.402 17.8385 176.631 17.1354L176.294 17.5049L175.957 17.8744C176.846 18.685 177.909 19.2772 179.138 19.6551L179.285 19.1772ZM176.294 17.5049L176.631 17.1354C175.863 16.4352 175.257 15.5405 174.817 14.4389L174.353 14.624L173.889 14.8092C174.377 16.035 175.065 17.0609 175.957 17.8744L176.294 17.5049ZM174.353 14.624L174.819 14.4428C174.391 13.3427 174.169 12.0115 174.169 10.437H173.669H173.169C173.169 12.1015 173.403 13.5616 173.887 14.8052L174.353 14.624ZM177.515 12.2314L177.02 12.3038C177.232 13.755 177.881 14.8951 178.986 15.6684L179.272 15.2588L179.559 14.8492C178.711 14.2553 178.188 13.3771 178.009 12.159L177.515 12.2314ZM179.272 15.2588L178.988 15.67C180.072 16.4198 181.463 16.772 183.118 16.772V16.272V15.772C181.599 15.772 180.426 15.4487 179.557 14.8476L179.272 15.2588ZM183.118 16.272V16.772C183.948 16.772 184.7 16.6874 185.369 16.5114L185.242 16.0278L185.114 15.5443C184.546 15.6938 183.882 15.772 183.118 15.772V16.272ZM185.242 16.0278L185.369 16.5114C186.028 16.3378 186.604 16.0941 187.083 15.7712L186.804 15.3564L186.525 14.9417C186.158 15.1884 185.692 15.3923 185.114 15.5443L185.242 16.0278ZM186.804 15.3564L187.089 15.7675C187.567 15.4364 187.945 15.035 188.206 14.5602L187.769 14.3188L187.331 14.0775C187.153 14.4003 186.888 14.6906 186.52 14.9453L186.804 15.3564ZM187.769 14.3188L188.206 14.5602C188.468 14.0847 188.598 13.5659 188.598 13.0127H188.098H187.598C187.598 13.4035 187.508 13.7555 187.331 14.0775L187.769 14.3188ZM188.098 13.0127H188.598C188.598 12.5398 188.496 12.0902 188.291 11.6702L187.842 11.8896L187.393 12.1091C187.529 12.389 187.598 12.6881 187.598 13.0127H188.098ZM187.842 11.8896L188.291 11.6702C188.077 11.2326 187.747 10.8686 187.32 10.5746L187.036 10.9863L186.752 11.3981C187.058 11.6086 187.264 11.8468 187.393 12.1091L187.842 11.8896ZM187.036 10.9863L187.33 10.582C186.907 10.2745 186.381 10.049 185.769 9.89173L185.645 10.376L185.52 10.8602C186.048 10.9959 186.449 11.1773 186.742 11.3907L187.036 10.9863ZM185.645 10.376L185.776 9.89344C185.151 9.72388 184.417 9.64404 183.582 9.64404V10.144V10.644C184.358 10.644 184.999 10.7188 185.514 10.8585L185.645 10.376ZM183.582 10.144V9.64404C182.88 9.64404 182.212 9.69897 181.579 9.81028L181.665 10.3027L181.752 10.7952C182.322 10.6949 182.932 10.644 183.582 10.644V10.144ZM181.665 10.3027L181.579 9.81028C180.951 9.92056 180.365 10.0741 179.821 10.2725L179.993 10.7422L180.164 11.2119C180.646 11.0359 181.175 10.8965 181.752 10.7952L181.665 10.3027ZM179.993 10.7422L179.821 10.2725C179.282 10.4693 178.786 10.702 178.333 10.9719L178.589 11.4014L178.845 11.8308C179.239 11.5962 179.678 11.3894 180.164 11.2119L179.993 10.7422ZM178.589 11.4014L178.329 10.9741C177.885 11.2443 177.494 11.5449 177.161 11.8779L177.515 12.2314L177.868 12.585C178.137 12.3157 178.463 12.063 178.849 11.8286L178.589 11.4014ZM205.261 10.7178L205.676 10.9971L205.679 10.9932L205.261 10.7178ZM206.189 9.64355L206.52 10.0182L206.521 10.0177L206.189 9.64355ZM207.336 8.81348L207.587 9.24599L208.154 8.91726L207.687 8.45735L207.336 8.81348ZM206.116 7.16553L205.661 7.37294L205.662 7.37549L206.116 7.16553ZM206.299 3.36914L205.865 3.12049L205.863 3.12452L206.299 3.36914ZM207.935 1.64795L208.215 2.06178L208.218 2.05956L207.935 1.64795ZM210.51 0.524902L210.635 1.00905L210.639 1.00809L210.51 0.524902ZM217.322 0.524902L217.193 1.0081L217.197 1.00904L217.322 0.524902ZM219.897 1.64795L219.614 2.05957L219.617 2.06177L219.897 1.64795ZM221.521 3.36914L221.085 3.61378L221.087 3.61778L221.521 3.36914ZM221.716 7.16553L222.17 7.37549L222.171 7.37293L221.716 7.16553ZM220.496 8.81348L220.145 8.45735L219.682 8.91308L220.241 9.24376L220.496 8.81348ZM221.631 9.64355L221.299 10.0178L221.304 10.022L221.631 9.64355ZM222.571 10.7178L222.153 10.9932L222.156 10.9971L222.571 10.7178ZM222.766 16.1987L222.336 15.9442L222.335 15.9456L222.766 16.1987ZM220.862 18.103L221.126 18.5273L221.128 18.5266L220.862 18.103ZM217.859 19.2871L217.745 18.8003L217.744 18.8005L217.859 19.2871ZM209.961 19.2871L209.846 19.7737L209.847 19.7739L209.961 19.2871ZM206.958 18.103L206.69 18.5254L206.695 18.5284L206.958 18.103ZM205.054 16.1987L204.621 16.4498L204.625 16.4553L205.054 16.1987ZM209.827 6.604L209.388 6.84343L209.392 6.85143L209.397 6.85927L209.827 6.604ZM210.559 7.2998L210.299 7.7267L210.305 7.7304L210.311 7.73393L210.559 7.2998ZM211.89 7.76367L211.787 8.2531L211.789 8.2534L211.89 7.76367ZM215.93 7.76367L215.829 7.27394L215.828 7.27424L215.93 7.76367ZM217.261 7.2998L217.513 7.73132L217.516 7.72945L217.261 7.2998ZM217.993 6.604L217.56 6.35451L217.557 6.35887L217.993 6.604ZM217.993 4.90723L217.554 5.14665L217.559 5.15466L217.563 5.1625L217.993 4.90723ZM217.261 4.21143L217 4.63832L217.007 4.64202L217.013 4.64555L217.261 4.21143ZM215.93 3.73535L215.828 4.22478L215.829 4.22508L215.93 3.73535ZM211.89 3.73535L211.789 3.24562L211.787 3.24592L211.89 3.73535ZM210.559 4.21143L210.812 4.64294L210.815 4.64107L210.559 4.21143ZM209.827 4.90723L209.393 4.65773L209.391 4.6621L209.827 4.90723ZM208.618 14.5996L208.203 14.8793L208.211 14.8902L208.618 14.5996ZM218.14 15.4785L217.91 15.0344L218.14 15.4785ZM219.202 14.5996L218.792 14.3135L218.79 14.3155L219.202 14.5996ZM219.214 12.3169L218.795 12.5898L218.802 12.601L219.214 12.3169ZM218.164 11.4258L217.931 11.8683L217.934 11.8699L218.164 11.4258ZM209.656 11.4258L209.426 10.9817L209.423 10.9833L209.656 11.4258ZM208.606 12.3169L208.191 12.0373L208.19 12.0395L208.606 12.3169ZM204.395 13.6353H204.895C204.895 13.1111 204.966 12.6336 205.103 12.1993L204.626 12.0483L204.15 11.8974C203.978 12.4396 203.895 13.0201 203.895 13.6353H204.395ZM204.626 12.0483L205.103 12.1993C205.244 11.7536 205.436 11.3537 205.676 10.9971L205.261 10.7178L204.847 10.4385C204.55 10.8793 204.318 11.3666 204.15 11.8974L204.626 12.0483ZM205.261 10.7178L205.679 10.9932C205.924 10.6214 206.205 10.2971 206.52 10.0182L206.189 9.64355L205.858 9.26889C205.474 9.60853 205.136 10.0003 204.844 10.4424L205.261 10.7178ZM206.189 9.64355L206.521 10.0177C206.854 9.72205 207.21 9.465 207.587 9.24599L207.336 8.81348L207.086 8.38096C206.649 8.63396 206.24 8.93029 205.857 9.26938L206.189 9.64355ZM207.336 8.81348L207.687 8.45735C207.156 7.93367 206.79 7.43225 206.57 6.95557L206.116 7.16553L205.662 7.37549C205.946 7.9893 206.394 8.58651 206.985 9.1696L207.336 8.81348ZM206.116 7.16553L206.571 6.95812C206.342 6.45671 206.237 5.99846 206.237 5.57861H205.737H205.237C205.237 6.16789 205.385 6.76757 205.661 7.37293L206.116 7.16553ZM205.737 5.57861H206.237C206.237 4.85392 206.405 4.20237 206.735 3.61377L206.299 3.36914L205.863 3.12452C205.444 3.87055 205.237 4.69198 205.237 5.57861H205.737ZM206.299 3.36914L206.733 3.61778C207.073 3.02355 207.563 2.50406 208.215 2.06177L207.935 1.64795L207.654 1.23413C206.89 1.75213 206.289 2.38009 205.865 3.1205L206.299 3.36914ZM207.935 1.64795L208.218 2.05956C208.869 1.61081 209.671 1.2578 210.635 1.00904L210.51 0.524902L210.385 0.0407639C209.331 0.312834 208.416 0.708529 207.651 1.23634L207.935 1.64795ZM210.51 0.524902L210.639 1.00809C211.598 0.752724 212.689 0.62207 213.916 0.62207V0.12207V-0.37793C212.62 -0.37793 211.44 -0.240028 210.382 0.0417194L210.51 0.524902ZM213.916 0.12207V0.62207C215.143 0.62207 216.234 0.752724 217.193 1.00809L217.322 0.524902L217.45 0.0417194C216.392 -0.240028 215.212 -0.37793 213.916 -0.37793V0.12207ZM217.322 0.524902L217.197 1.00904C218.161 1.2578 218.963 1.61081 219.614 2.05956L219.897 1.64795L220.181 1.23634C219.416 0.708529 218.501 0.312834 217.447 0.0407639L217.322 0.524902ZM219.897 1.64795L219.617 2.06177C220.268 2.50354 220.753 3.02179 221.085 3.61377L221.521 3.36914L221.957 3.12452C221.54 2.38186 220.943 1.75264 220.178 1.23413L219.897 1.64795ZM221.521 3.36914L221.087 3.61778C221.424 4.20576 221.595 4.85588 221.595 5.57861H222.095H222.595C222.595 4.69002 222.383 3.86716 221.955 3.1205L221.521 3.36914ZM222.095 5.57861H221.595C221.595 5.99846 221.49 6.45671 221.261 6.95812L221.716 7.16553L222.171 7.37293C222.447 6.76757 222.595 6.16789 222.595 5.57861H222.095ZM221.716 7.16553L221.263 6.95557C221.042 7.43225 220.676 7.93367 220.145 8.45735L220.496 8.81348L220.847 9.1696C221.438 8.58651 221.886 7.9893 222.17 7.37549L221.716 7.16553ZM220.496 8.81348L220.241 9.24376C220.611 9.46304 220.964 9.72077 221.299 10.0177L221.631 9.64355L221.963 9.26938C221.581 8.93157 221.177 8.63592 220.75 8.38319L220.496 8.81348ZM221.631 9.64355L221.304 10.022C221.626 10.3003 221.909 10.6234 222.154 10.9932L222.571 10.7178L222.988 10.4424C222.695 9.9983 222.352 9.60531 221.958 9.26514L221.631 9.64355ZM222.571 10.7178L222.156 10.9971C222.396 11.3537 222.588 11.7536 222.729 12.1993L223.206 12.0483L223.682 11.8974C223.514 11.3666 223.282 10.8793 222.986 10.4385L222.571 10.7178ZM223.206 12.0483L222.729 12.1993C222.866 12.6336 222.938 13.1111 222.938 13.6353H223.438H223.938C223.938 13.0201 223.854 12.4396 223.682 11.8974L223.206 12.0483ZM223.438 13.6353H222.938C222.938 14.5055 222.734 15.2708 222.336 15.9442L222.766 16.1987L223.196 16.4533C223.693 15.613 223.938 14.6693 223.938 13.6353H223.438ZM222.766 16.1987L222.335 15.9456C221.941 16.6166 221.367 17.1958 220.596 17.6795L220.862 18.103L221.128 18.5266C222.017 17.9686 222.712 17.2783 223.197 16.4518L222.766 16.1987ZM220.862 18.103L220.597 17.6788C219.832 18.1563 218.884 18.5331 217.745 18.8003L217.859 19.2871L217.973 19.7739C219.193 19.4877 220.248 19.0751 221.126 18.5273L220.862 18.103ZM217.859 19.2871L217.744 18.8005C216.617 19.0667 215.342 19.2021 213.916 19.2021V19.7021V20.2021C215.404 20.2021 216.757 20.0609 217.974 19.7737L217.859 19.2871ZM213.916 19.7021V19.2021C212.49 19.2021 211.211 19.0667 210.075 18.8003L209.961 19.2871L209.847 19.7739C211.071 20.0609 212.428 20.2021 213.916 20.2021V19.7021ZM209.961 19.2871L210.076 18.8005C208.944 18.5334 207.996 18.1564 207.221 17.6776L206.958 18.103L206.695 18.5284C207.58 19.075 208.634 19.4875 209.846 19.7737L209.961 19.2871ZM206.958 18.103L207.226 17.6807C206.462 17.1968 205.886 16.6163 205.483 15.9422L205.054 16.1987L204.625 16.4553C205.117 17.2786 205.81 17.9676 206.69 18.5254L206.958 18.103ZM205.054 16.1987L205.486 15.9477C205.095 15.2737 204.895 14.5072 204.895 13.6353H204.395H203.895C203.895 14.6676 204.134 15.6101 204.621 16.4498L205.054 16.1987ZM209.607 5.74951H209.107C209.107 6.13566 209.202 6.50265 209.388 6.84343L209.827 6.604L210.266 6.36458C210.159 6.16824 210.107 5.96558 210.107 5.74951H209.607ZM209.827 6.604L209.397 6.85927C209.603 7.20732 209.915 7.49273 210.299 7.7267L210.559 7.2998L210.819 6.87291C210.536 6.69998 210.359 6.52152 210.257 6.34873L209.827 6.604ZM210.559 7.2998L210.311 7.73393C210.713 7.96349 211.21 8.13254 211.787 8.2531L211.89 7.76367L211.992 7.27424C211.478 7.16694 211.089 7.02675 210.807 6.86568L210.559 7.2998ZM211.89 7.76367L211.789 8.2534C212.386 8.37631 213.097 8.43457 213.916 8.43457V7.93457V7.43457C213.14 7.43457 212.5 7.3789 211.99 7.27394L211.89 7.76367ZM213.916 7.93457V8.43457C214.735 8.43457 215.443 8.37635 216.032 8.2531L215.93 7.76367L215.828 7.27424C215.327 7.37885 214.693 7.43457 213.916 7.43457V7.93457ZM215.93 7.76367L216.031 8.2534C216.615 8.13307 217.116 7.96373 217.513 7.73131L217.261 7.2998L217.008 6.8683C216.738 7.02651 216.352 7.16641 215.829 7.27394L215.93 7.76367ZM217.261 7.2998L217.516 7.72945C217.909 7.49561 218.228 7.2069 218.429 6.84913L217.993 6.604L217.557 6.35887C217.466 6.52194 217.296 6.6971 217.005 6.87016L217.261 7.2998ZM217.993 6.604L218.426 6.85349C218.623 6.51136 218.725 6.14082 218.725 5.74951H218.225H217.725C217.725 5.96042 217.672 6.15954 217.56 6.35452L217.993 6.604ZM218.225 5.74951H218.725C218.725 5.35802 218.623 4.98915 218.423 4.65196L217.993 4.90723L217.563 5.1625C217.672 5.34614 217.725 5.5388 217.725 5.74951H218.225ZM217.993 4.90723L218.432 4.6678C218.23 4.29766 217.908 4.0056 217.509 3.7773L217.261 4.21143L217.013 4.64555C217.297 4.80788 217.463 4.97968 217.554 5.14665L217.993 4.90723ZM217.261 4.21143L217.521 3.78453C217.122 3.54096 216.618 3.36644 216.031 3.24562L215.93 3.73535L215.829 4.22508C216.349 4.33212 216.733 4.47499 217 4.63832L217.261 4.21143ZM215.93 3.73535L216.032 3.24592C215.443 3.12267 214.735 3.06445 213.916 3.06445V3.56445V4.06445C214.693 4.06445 215.327 4.12017 215.828 4.22478L215.93 3.73535ZM213.916 3.56445V3.06445C213.097 3.06445 212.386 3.12271 211.789 3.24562L211.89 3.73535L211.99 4.22508C212.5 4.12013 213.14 4.06445 213.916 4.06445V3.56445ZM211.89 3.73535L211.787 3.24592C211.208 3.36699 210.707 3.54123 210.303 3.78178L210.559 4.21143L210.815 4.64107C211.094 4.47472 211.481 4.33158 211.992 4.22478L211.89 3.73535ZM210.559 4.21143L210.306 3.77992C209.916 4.00842 209.601 4.29733 209.393 4.65774L209.827 4.90723L210.26 5.15671C210.362 4.98002 210.535 4.80506 210.812 4.64293L210.559 4.21143ZM209.827 4.90723L209.391 4.6621C209.202 4.99796 209.107 5.36324 209.107 5.74951H209.607H210.107C210.107 5.53357 210.158 5.33733 210.262 5.15236L209.827 4.90723ZM208.264 13.4521H207.764C207.764 13.9686 207.913 14.4481 208.204 14.8792L208.618 14.5996L209.033 14.32C208.851 14.0512 208.764 13.7658 208.764 13.4521H208.264ZM208.618 14.5996L208.211 14.8902C208.512 15.3113 208.938 15.6515 209.463 15.9226L209.692 15.4785L209.922 15.0344C209.502 14.8173 209.213 14.5715 209.025 14.309L208.618 14.5996ZM209.692 15.4785L209.463 15.9226C209.989 16.1948 210.627 16.3985 211.367 16.543L211.462 16.0522L211.558 15.5615C210.881 15.4293 210.34 15.2505 209.922 15.0344L209.692 15.4785ZM211.462 16.0522L211.367 16.543C212.114 16.6889 212.965 16.7598 213.916 16.7598V16.2598V15.7598C213.012 15.7598 212.227 15.6922 211.558 15.5615L211.462 16.0522ZM213.916 16.2598V16.7598C214.867 16.7598 215.718 16.6889 216.466 16.543L216.37 16.0522L216.274 15.5615C215.605 15.6922 214.82 15.7598 213.916 15.7598V16.2598ZM216.37 16.0522L216.466 16.543C217.205 16.3985 217.843 16.1948 218.369 15.9226L218.14 15.4785L217.91 15.0344C217.492 15.2505 216.951 15.4293 216.274 15.5615L216.37 16.0522ZM218.14 15.4785L218.369 15.9226C218.894 15.6511 219.319 15.3092 219.613 14.8837L219.202 14.5996L218.79 14.3155C218.612 14.5737 218.329 14.8177 217.91 15.0344L218.14 15.4785ZM219.202 14.5996L219.612 14.8857C219.913 14.4544 220.068 13.9725 220.068 13.4521H219.568H219.068C219.068 13.7619 218.979 14.045 218.792 14.3135L219.202 14.5996ZM219.568 13.4521H220.068C220.068 12.9355 219.919 12.458 219.625 12.0328L219.214 12.3169L218.802 12.601C218.981 12.8593 219.068 13.1387 219.068 13.4521H219.568ZM219.214 12.3169L219.633 12.0441C219.347 11.6044 218.922 11.2549 218.394 10.9817L218.164 11.4258L217.934 11.8699C218.35 12.0849 218.625 12.3295 218.795 12.5897L219.214 12.3169ZM218.164 11.4258L218.397 10.9833C217.877 10.7098 217.241 10.5058 216.502 10.3613L216.406 10.8521L216.31 11.3428C216.987 11.475 217.523 11.6535 217.931 11.8682L218.164 11.4258ZM216.406 10.8521L216.502 10.3613C215.754 10.2152 214.891 10.1445 213.916 10.1445V10.6445V11.1445C214.846 11.1445 215.642 11.2122 216.31 11.3428L216.406 10.8521ZM213.916 10.6445V10.1445C212.941 10.1445 212.078 10.2152 211.33 10.3613L211.426 10.8521L211.522 11.3428C212.19 11.2122 212.986 11.1445 213.916 11.1445V10.6445ZM211.426 10.8521L211.33 10.3613C210.591 10.5058 209.952 10.7095 209.426 10.9817L209.656 11.4258L209.885 11.8699C210.303 11.6538 210.845 11.475 211.522 11.3428L211.426 10.8521ZM209.656 11.4258L209.423 10.9833C208.903 11.2568 208.483 11.6043 208.191 12.0373L208.606 12.3169L209.02 12.5965C209.2 12.3296 209.48 12.0831 209.889 11.8682L209.656 11.4258ZM208.606 12.3169L208.19 12.0395C207.907 12.4644 207.764 12.9395 207.764 13.4521H208.264H208.764C208.764 13.1347 208.849 12.853 209.022 12.5942L208.606 12.3169ZM228.589 14.9048L228.816 14.4591L228.403 14.249L228.162 14.6449L228.589 14.9048ZM230.09 15.5151L229.939 15.9917L229.947 15.9942L230.09 15.5151ZM231.763 15.9302L231.665 16.4205L231.666 16.4207L231.763 15.9302ZM233.496 16.1865L233.447 16.6842L233.455 16.6848L233.496 16.1865ZM237.732 16.0522L237.828 16.543L237.832 16.5421L237.732 16.0522ZM239.49 15.4419L239.245 15.0059L239.242 15.0078L239.49 15.4419ZM240.515 14.5142L240.091 14.25L240.089 14.2527L240.515 14.5142ZM240.503 12.0728L240.076 12.3328L240.08 12.3394L240.503 12.0728ZM239.465 11.1084L239.211 11.5392L239.215 11.5411L239.465 11.1084ZM237.732 10.4858L237.623 10.9738L237.63 10.9752L237.732 10.4858ZM233.899 10.3149L233.93 10.814L233.938 10.8134L233.899 10.3149ZM230.408 10.8276L230.514 11.3162L230.52 11.3148L230.408 10.8276ZM228.479 11.3403H227.979V12.0204L228.628 11.8176L228.479 11.3403ZM228.479 0.366211V-0.133789H227.979V0.366211H228.479ZM243.115 0.366211H243.615V-0.133789H243.115V0.366211ZM243.115 3.79639V4.29639H243.615V3.79639H243.115ZM232.056 3.79639V3.29639H231.556V3.79639H232.056ZM232.056 7.49512H231.556V8.12113L232.166 7.98275L232.056 7.49512ZM233.972 7.15332L234.039 7.64892L234.045 7.64805L233.972 7.15332ZM242.48 8.70361L242.18 9.10308L242.182 9.10468L242.48 8.70361ZM244.153 10.6812L243.705 10.9029L243.706 10.9048L244.153 10.6812ZM244.104 15.9302L243.66 15.6994L243.66 15.7011L244.104 15.9302ZM242.285 17.9565L241.999 17.5463L241.997 17.5477L242.285 17.9565ZM239.331 19.2505L239.207 18.7662L239.206 18.7664L239.331 19.2505ZM232.983 19.5679L233.041 19.0712L233.036 19.0707L232.983 19.5679ZM230.75 19.2139L230.64 19.7017L230.645 19.7028L230.75 19.2139ZM228.662 18.6279L228.494 19.0987L228.501 19.1011L228.662 18.6279ZM226.807 17.8345L226.379 17.5746L226.099 18.0361L226.581 18.2804L226.807 17.8345ZM228.589 14.9048L228.362 15.3504C228.852 15.5997 229.378 15.8132 229.939 15.9916L230.09 15.5151L230.242 15.0387C229.729 14.8753 229.253 14.6819 228.816 14.4591L228.589 14.9048ZM230.09 15.5151L229.947 15.9942C230.508 16.1615 231.08 16.3036 231.665 16.4205L231.763 15.9302L231.861 15.4399C231.306 15.3289 230.763 15.1943 230.233 15.036L230.09 15.5151ZM231.763 15.9302L231.666 16.4207C232.259 16.5377 232.853 16.6255 233.447 16.6841L233.496 16.1865L233.545 15.6889C232.984 15.6336 232.422 15.5505 231.859 15.4396L231.763 15.9302ZM233.496 16.1865L233.455 16.6848C234.053 16.7347 234.637 16.7598 235.205 16.7598V16.2598V15.7598C234.666 15.7598 234.111 15.736 233.538 15.6883L233.496 16.1865ZM235.205 16.2598V16.7598C236.203 16.7598 237.079 16.6892 237.828 16.543L237.732 16.0522L237.636 15.5615C236.968 15.692 236.16 15.7598 235.205 15.7598V16.2598ZM237.732 16.0522L237.832 16.5421C238.581 16.3888 239.222 16.1708 239.738 15.876L239.49 15.4419L239.242 15.0078C238.846 15.2338 238.315 15.4227 237.632 15.5624L237.732 16.0522ZM239.49 15.4419L239.735 15.8779C240.253 15.5866 240.667 15.2233 240.941 14.7757L240.515 14.5142L240.089 14.2527C239.924 14.5212 239.654 14.7763 239.245 15.0059L239.49 15.4419ZM240.515 14.5142L240.94 14.7783C241.218 14.3313 241.357 13.8366 241.357 13.3057H240.857H240.357C240.357 13.6536 240.268 13.9646 240.091 14.25L240.515 14.5142ZM240.857 13.3057H241.357C241.357 12.7648 241.213 12.2612 240.926 11.8061L240.503 12.0728L240.08 12.3394C240.265 12.633 240.357 12.9513 240.357 13.3057H240.857ZM240.503 12.0728L240.93 11.8128C240.65 11.3527 240.236 10.9769 239.716 10.6757L239.465 11.1084L239.215 11.5411C239.622 11.777 239.9 12.0441 240.076 12.3327L240.503 12.0728ZM239.465 11.1084L239.719 10.6776C239.203 10.3736 238.57 10.1504 237.834 9.99644L237.732 10.4858L237.63 10.9752C238.294 11.1142 238.816 11.3061 239.211 11.5392L239.465 11.1084ZM237.732 10.4858L237.841 9.99788C237.104 9.83324 236.257 9.75391 235.303 9.75391V10.2539V10.7539C236.204 10.7539 236.976 10.8292 237.623 10.9738L237.732 10.4858ZM235.303 10.2539V9.75391C234.872 9.75391 234.391 9.775 233.86 9.81646L233.899 10.3149L233.938 10.8134C234.449 10.7735 234.904 10.7539 235.303 10.7539V10.2539ZM233.899 10.3149L233.868 9.81592C233.333 9.84935 232.767 9.9077 232.17 9.99059L232.239 10.4858L232.308 10.9811C232.883 10.9012 233.423 10.8456 233.93 10.814L233.899 10.3149ZM232.239 10.4858L232.17 9.99059C231.568 10.0742 230.943 10.191 230.295 10.3404L230.408 10.8276L230.52 11.3148C231.142 11.1713 231.738 11.0602 232.308 10.9811L232.239 10.4858ZM230.408 10.8276L230.301 10.3391C229.651 10.4807 228.994 10.6555 228.33 10.8631L228.479 11.3403L228.628 11.8176C229.266 11.6183 229.895 11.4512 230.514 11.3162L230.408 10.8276ZM228.479 11.3403H228.979V0.366211H228.479H227.979V11.3403H228.479ZM228.479 0.366211V0.866211H243.115V0.366211V-0.133789H228.479V0.366211ZM243.115 0.366211H242.615V3.79639H243.115H243.615V0.366211H243.115ZM243.115 3.79639V3.29639H232.056V3.79639V4.29639H243.115V3.79639ZM232.056 3.79639H231.556V7.49512H232.056H232.556V3.79639H232.056ZM232.056 7.49512L232.166 7.98275C232.761 7.84794 233.385 7.73656 234.039 7.64888L233.972 7.15332L233.906 6.65776C233.225 6.74911 232.571 6.8656 231.945 7.00749L232.056 7.49512ZM233.972 7.15332L234.045 7.64805C234.683 7.55456 235.403 7.50684 236.206 7.50684V7.00684V6.50684C235.365 6.50684 234.596 6.55676 233.9 6.65859L233.972 7.15332ZM236.206 7.00684V7.50684C237.513 7.50684 238.668 7.64955 239.674 7.92815L239.807 7.44629L239.941 6.96442C238.831 6.65709 237.584 6.50684 236.206 6.50684V7.00684ZM239.807 7.44629L239.674 7.92815C240.684 8.20782 241.515 8.60258 242.18 9.10307L242.48 8.70361L242.781 8.30415C241.997 7.71416 241.047 7.27069 239.941 6.96442L239.807 7.44629ZM242.48 8.70361L242.182 9.10468C242.855 9.60563 243.359 10.2047 243.705 10.9029L244.153 10.6812L244.601 10.4594C244.181 9.61143 243.571 8.89209 242.779 8.30255L242.48 8.70361ZM244.153 10.6812L243.706 10.9048C244.05 11.5928 244.227 12.3734 244.227 13.2568H244.727H245.227C245.227 12.236 245.021 11.2995 244.6 10.4575L244.153 10.6812ZM244.727 13.2568H244.227C244.227 14.169 244.035 14.9797 243.66 15.6994L244.104 15.9302L244.548 16.161C245.003 15.2856 245.227 14.3141 245.227 13.2568H244.727ZM244.104 15.9302L243.66 15.7011C243.294 16.4107 242.745 17.0264 241.999 17.5463L242.285 17.9565L242.571 18.3667C243.436 17.7637 244.1 17.0284 244.548 16.1593L244.104 15.9302ZM242.285 17.9565L241.997 17.5477C241.26 18.0672 240.333 18.4767 239.207 18.7662L239.331 19.2505L239.455 19.7348C240.672 19.4221 241.716 18.969 242.573 18.3654L242.285 17.9565ZM239.331 19.2505L239.206 18.7664C238.092 19.0546 236.797 19.2021 235.315 19.2021V19.7021V20.2021C236.86 20.2021 238.243 20.0486 239.456 19.7345L239.331 19.2505ZM235.315 19.7021V19.2021C234.553 19.2021 233.795 19.1585 233.041 19.0712L232.983 19.5679L232.926 20.0646C233.718 20.1563 234.515 20.2021 235.315 20.2021V19.7021ZM232.983 19.5679L233.036 19.0707C232.288 18.9911 231.561 18.8757 230.854 18.7249L230.75 19.2139L230.645 19.7028C231.387 19.8612 232.149 19.9819 232.931 20.0651L232.983 19.5679ZM230.75 19.2139L230.859 18.726C230.152 18.567 229.473 18.3765 228.824 18.1548L228.662 18.6279L228.501 19.1011C229.186 19.3351 229.899 19.5352 230.64 19.7017L230.75 19.2139ZM228.662 18.6279L228.831 18.1572C228.19 17.9277 227.59 17.6713 227.033 17.3885L226.807 17.8345L226.581 18.2804C227.178 18.5836 227.816 18.8562 228.494 19.0987L228.662 18.6279ZM226.807 17.8345L227.234 18.0943L229.016 15.1646L228.589 14.9048L228.162 14.6449L226.379 17.5746L226.807 17.8345ZM249.609 14.9048L249.83 14.4561L249.42 14.2544L249.182 14.6449L249.609 14.9048ZM252.686 15.9424L252.587 16.4326L252.591 16.4334L252.686 15.9424ZM258.301 16.04L258.407 16.5287L258.412 16.5274L258.301 16.04ZM259.973 15.4175L259.718 14.9873L259.973 15.4175ZM260.693 11.8286L260.313 12.1535L260.316 12.1569L260.693 11.8286ZM258.948 10.8276L258.806 11.3073L258.812 11.309L258.948 10.8276ZM256.006 10.5591L255.985 10.0595L255.985 10.0595L256.006 10.5591ZM251.831 11.2549L251.331 11.2527L251.328 11.9015L251.956 11.7389L251.831 11.2549ZM251.843 8.39844L251.571 7.97935L251.344 8.1265L251.343 8.3963L251.843 8.39844ZM258.972 3.75977L259.245 4.17886L260.657 3.25977H258.972V3.75977ZM248.877 3.75977H248.377V4.25977H248.877V3.75977ZM248.877 0.366211V-0.133789H248.377V0.366211H248.877ZM264.148 0.366211H264.648V-0.133789H264.148V0.366211ZM264.148 3.68652L264.416 4.10876L264.648 3.96149V3.68652H264.148ZM257.874 7.66602L257.606 7.24378L256.152 8.16602H257.874V7.66602ZM264.648 11.1328L264.195 11.3437L264.648 11.1328ZM264.502 15.9912L264.062 15.7531L264.061 15.7547L264.502 15.9912ZM262.683 17.981L262.965 18.3937L262.968 18.3918L262.683 17.981ZM259.753 19.2505L259.627 18.7666L259.626 18.7669L259.753 19.2505ZM251.562 19.2139L251.439 19.6984L251.442 19.6991L251.562 19.2139ZM247.827 17.8345L247.4 17.5746L247.117 18.04L247.605 18.2823L247.827 17.8345ZM249.609 14.9048L249.389 15.3535C250.389 15.8453 251.456 16.2046 252.587 16.4325L252.686 15.9424L252.784 15.4522C251.734 15.2407 250.75 14.9083 249.83 14.4561L249.609 14.9048ZM252.686 15.9424L252.591 16.4334C253.719 16.6505 254.82 16.7598 255.896 16.7598V16.2598V15.7598C254.888 15.7598 253.85 15.6574 252.78 15.4514L252.686 15.9424ZM255.896 16.2598V16.7598C256.848 16.7598 257.687 16.6848 258.407 16.5287L258.301 16.04L258.195 15.5514C257.564 15.6883 256.799 15.7598 255.896 15.7598V16.2598ZM258.301 16.04L258.412 16.5274C259.122 16.3651 259.731 16.1419 260.228 15.8476L259.973 15.4175L259.718 14.9873C259.336 15.2139 258.831 15.4057 258.189 15.5526L258.301 16.04ZM259.973 15.4175L260.228 15.8476C260.724 15.554 261.117 15.1894 261.38 14.7441L260.95 14.4897L260.519 14.2354C260.359 14.5063 260.102 14.7601 259.718 14.9873L259.973 15.4175ZM260.95 14.4897L261.38 14.7441C261.637 14.3092 261.767 13.8348 261.767 13.3301H261.267H260.767C260.767 13.6554 260.685 13.9542 260.519 14.2354L260.95 14.4897ZM261.267 13.3301H261.767C261.767 12.643 261.529 12.0271 261.071 11.5004L260.693 11.8286L260.316 12.1569C260.623 12.509 260.767 12.8941 260.767 13.3301H261.267ZM260.693 11.8286L261.073 11.5038C260.607 10.9574 259.925 10.583 259.083 10.3463L258.948 10.8276L258.812 11.309C259.533 11.5117 260.015 11.8046 260.313 12.1534L260.693 11.8286ZM258.948 10.8276L259.089 10.348C258.245 10.0992 257.205 10.0094 255.985 10.0595L256.006 10.5591L256.026 11.0587C257.183 11.0111 258.104 11.1003 258.806 11.3072L258.948 10.8276ZM256.006 10.5591L255.985 10.0595C254.759 10.1103 253.331 10.3502 251.706 10.7708L251.831 11.2549L251.956 11.7389C253.538 11.3295 254.893 11.1056 256.027 11.0587L256.006 10.5591ZM251.831 11.2549L252.331 11.257L252.343 8.40057L251.843 8.39844L251.343 8.3963L251.331 11.2527L251.831 11.2549ZM251.843 8.39844L252.116 8.81753L259.245 4.17886L258.972 3.75977L258.699 3.34068L251.571 7.97935L251.843 8.39844ZM258.972 3.75977V3.25977H248.877V3.75977V4.25977H258.972V3.75977ZM248.877 3.75977H249.377V0.366211H248.877H248.377V3.75977H248.877ZM248.877 0.366211V0.866211H264.148V0.366211V-0.133789H248.877V0.366211ZM264.148 0.366211H263.648V3.68652H264.148H264.648V0.366211H264.148ZM264.148 3.68652L263.88 3.26429L257.606 7.24378L257.874 7.66602L258.141 8.08825L264.416 4.10876L264.148 3.68652ZM257.874 7.66602V8.16602C258.979 8.16602 259.951 8.30723 260.795 8.58108L260.95 8.10547L261.104 7.62986C260.142 7.31777 259.063 7.16602 257.874 7.16602V7.66602ZM260.95 8.10547L260.795 8.58108C261.649 8.85801 262.352 9.23323 262.913 9.6989L263.232 9.31396L263.552 8.92902C262.876 8.36931 262.057 7.93886 261.104 7.62986L260.95 8.10547ZM263.232 9.31396L262.913 9.6989C263.477 10.1662 263.902 10.7138 264.195 11.3437L264.648 11.1328L265.102 10.9219C264.744 10.152 264.225 9.48708 263.552 8.92902L263.232 9.31396ZM264.648 11.1328L264.195 11.3437C264.489 11.9746 264.637 12.655 264.637 13.3911H265.137H265.637C265.637 12.5159 265.459 11.6908 265.102 10.9219L264.648 11.1328ZM265.137 13.3911H264.637C264.637 14.2662 264.443 15.0502 264.062 15.7531L264.502 15.9912L264.942 16.2294C265.407 15.3698 265.637 14.4203 265.637 13.3911H265.137ZM264.502 15.9912L264.061 15.7547C263.688 16.4511 263.138 17.0569 262.398 17.5702L262.683 17.981L262.968 18.3918C263.824 17.7982 264.486 17.0775 264.942 16.2277L264.502 15.9912ZM262.683 17.981L262.401 17.5682C261.661 18.0743 260.74 18.4768 259.627 18.7666L259.753 19.2505L259.879 19.7343C261.078 19.422 262.11 18.9781 262.965 18.3937L262.683 17.981ZM259.753 19.2505L259.626 18.7669C258.529 19.055 257.27 19.2021 255.847 19.2021V19.7021V20.2021C257.337 20.2021 258.683 20.0482 259.88 19.7341L259.753 19.2505ZM255.847 19.7021V19.2021C254.336 19.2021 252.949 19.043 251.683 18.7286L251.562 19.2139L251.442 19.6991C252.797 20.0357 254.266 20.2021 255.847 20.2021V19.7021ZM251.562 19.2139L251.686 18.7293C250.409 18.4042 249.197 17.9565 248.05 17.3866L247.827 17.8345L247.605 18.2823C248.817 18.8843 250.096 19.3563 251.439 19.6984L251.562 19.2139ZM247.827 17.8345L248.254 18.0943L250.037 15.1646L249.609 14.9048L249.182 14.6449L247.4 17.5746L247.827 17.8345ZM271.35 2.62451L271.702 2.97976L271.704 2.97807L271.35 2.62451ZM285.779 2.62451L285.425 2.97807L285.427 2.97975L285.779 2.62451ZM272.961 12.6099L272.489 12.7738L272.491 12.778L272.961 12.6099ZM274.17 14.624L273.808 14.9694L273.811 14.9721L274.17 14.624ZM276.062 15.8569L275.883 16.3236L275.887 16.3253L276.062 15.8569ZM281.067 15.8569L281.242 16.3253L281.246 16.3236L281.067 15.8569ZM282.959 14.624L283.318 14.9721L283.321 14.9694L282.959 14.624ZM284.155 12.6099L283.684 12.4417L283.683 12.446L284.155 12.6099ZM284.155 7.1167L283.683 7.2806L283.685 7.2864L284.155 7.1167ZM282.959 5.10254L282.597 5.44791L282.959 5.10254ZM281.067 3.86963L280.887 4.33632L280.892 4.33801L281.067 3.86963ZM276.062 3.86963L276.237 4.33803L276.242 4.3363L276.062 3.86963ZM272.961 7.1167L272.491 6.94853L272.49 6.95131L272.961 7.1167ZM268.677 9.86328H269.177C269.177 8.37531 269.401 7.05757 269.84 5.90271L269.373 5.7251L268.905 5.54749C268.416 6.83403 268.177 8.27508 268.177 9.86328H268.677ZM269.373 5.7251L269.84 5.90271C270.281 4.74298 270.902 3.77164 271.702 2.97975L271.35 2.62451L270.998 2.26927C270.089 3.17009 269.392 4.2658 268.905 5.54749L269.373 5.7251ZM271.35 2.62451L271.704 2.97807C272.503 2.17874 273.477 1.56535 274.635 1.14083L274.463 0.671387L274.291 0.201948C273.007 0.672607 271.906 1.3613 270.997 2.27096L271.35 2.62451ZM274.463 0.671387L274.635 1.14083C275.792 0.716471 277.1 0.5 278.564 0.5V0V-0.5C277.002 -0.5 275.575 -0.268879 274.291 0.201948L274.463 0.671387ZM278.564 0V0.5C280.029 0.5 281.337 0.716471 282.494 1.14083L282.666 0.671387L282.838 0.201948C281.554 -0.268879 280.127 -0.5 278.564 -0.5V0ZM282.666 0.671387L282.494 1.14083C283.652 1.56535 284.626 2.17874 285.425 2.97807L285.779 2.62451L286.132 2.27096C285.223 1.3613 284.122 0.672607 282.838 0.201948L282.666 0.671387ZM285.779 2.62451L285.427 2.97975C286.226 3.77164 286.848 4.74298 287.289 5.90271L287.756 5.7251L288.224 5.54749C287.737 4.2658 287.04 3.17009 286.131 2.26927L285.779 2.62451ZM287.756 5.7251L287.289 5.90271C287.728 7.05757 287.952 8.37531 287.952 9.86328H288.452H288.952C288.952 8.27508 288.713 6.83403 288.224 5.54749L287.756 5.7251ZM288.452 9.86328H287.952C287.952 11.3512 287.728 12.669 287.289 13.8239L287.756 14.0015L288.224 14.1791C288.713 12.8925 288.952 11.4515 288.952 9.86328H288.452ZM287.756 14.0015L287.289 13.8239C286.848 14.9836 286.226 15.9549 285.427 16.7468L285.779 17.1021L286.131 17.4573C287.04 16.5565 287.737 15.4608 288.224 14.1791L287.756 14.0015ZM285.779 17.1021L285.427 16.7468C284.628 17.5386 283.653 18.1486 282.494 18.5735L282.666 19.043L282.838 19.5124C284.121 19.0421 285.221 18.3582 286.131 17.4573L285.779 17.1021ZM282.666 19.043L282.494 18.5735C281.337 18.9979 280.029 19.2144 278.564 19.2144V19.7144V20.2144C280.127 20.2144 281.554 19.9832 282.838 19.5124L282.666 19.043ZM278.564 19.7144V19.2144C277.1 19.2144 275.792 18.9979 274.635 18.5735L274.463 19.043L274.291 19.5124C275.575 19.9832 277.002 20.2144 278.564 20.2144V19.7144ZM274.463 19.043L274.635 18.5735C273.476 18.1486 272.501 17.5386 271.702 16.7468L271.35 17.1021L270.998 17.4573C271.908 18.3582 273.008 19.0421 274.291 19.5124L274.463 19.043ZM271.35 17.1021L271.702 16.7468C270.902 15.9549 270.281 14.9836 269.84 13.8239L269.373 14.0015L268.905 14.1791C269.392 15.4608 270.089 16.5565 270.998 17.4573L271.35 17.1021ZM269.373 14.0015L269.84 13.8239C269.401 12.669 269.177 11.3512 269.177 9.86328H268.677H268.177C268.177 11.4515 268.416 12.8925 268.905 14.1791L269.373 14.0015ZM272.546 9.85107H272.046C272.046 10.936 272.19 11.9128 272.489 12.7738L272.961 12.6099L273.434 12.446C273.179 11.7118 273.046 10.8495 273.046 9.85107H272.546ZM272.961 12.6099L272.491 12.778C272.796 13.6335 273.233 14.3675 273.808 14.9694L274.17 14.624L274.531 14.2787C274.065 13.7901 273.696 13.1813 273.432 12.4417L272.961 12.6099ZM274.17 14.624L273.811 14.9721C274.385 15.5644 275.078 16.0143 275.883 16.3236L276.062 15.8569L276.242 15.3903C275.564 15.1299 274.996 14.7579 274.529 14.276L274.17 14.624ZM276.062 15.8569L275.887 16.3253C276.692 16.6262 277.587 16.772 278.564 16.772V16.272V15.772C277.686 15.772 276.913 15.6411 276.237 15.3886L276.062 15.8569ZM278.564 16.272V16.772C279.542 16.772 280.437 16.6262 281.242 16.3253L281.067 15.8569L280.892 15.3886C280.216 15.6411 279.443 15.772 278.564 15.772V16.272ZM281.067 15.8569L281.246 16.3236C282.05 16.0143 282.744 15.5644 283.318 14.9721L282.959 14.624L282.6 14.276C282.133 14.7579 281.564 15.1299 280.887 15.3903L281.067 15.8569ZM282.959 14.624L283.321 14.9694C283.897 14.3664 284.33 13.6309 284.628 12.7738L284.155 12.6099L283.683 12.446C283.427 13.1839 283.063 13.7911 282.597 14.2787L282.959 14.624ZM284.155 12.6099L284.626 12.778C284.934 11.9157 285.083 10.9373 285.083 9.85107H284.583H284.083C284.083 10.8481 283.946 11.7089 283.684 12.4417L284.155 12.6099ZM284.583 9.85107H285.083C285.083 8.7726 284.934 7.80176 284.626 6.947L284.155 7.1167L283.685 7.2864C283.946 8.01041 284.083 8.86249 284.083 9.85107H284.583ZM284.155 7.1167L284.628 6.95281C284.33 6.09568 283.897 5.36015 283.321 4.75717L282.959 5.10254L282.597 5.44791C283.063 5.93542 283.427 6.54267 283.683 7.28059L284.155 7.1167ZM282.959 5.10254L283.321 4.75717C282.745 4.15472 282.05 3.70304 281.242 3.40125L281.067 3.86963L280.892 4.33801C281.565 4.58961 282.131 4.95986 282.597 5.44791L282.959 5.10254ZM281.067 3.86963L281.246 3.40296C280.44 3.09271 279.543 2.94238 278.564 2.94238V3.44238V3.94238C279.441 3.94238 280.213 4.07689 280.887 4.3363L281.067 3.86963ZM278.564 3.44238V2.94238C277.586 2.94238 276.689 3.09271 275.883 3.40296L276.062 3.86963L276.242 4.3363C276.916 4.07689 277.688 3.94238 278.564 3.94238V3.44238ZM276.062 3.86963L275.887 3.40125C275.079 3.70304 274.384 4.15472 273.808 4.75717L274.17 5.10254L274.531 5.44791C274.998 4.95986 275.564 4.58961 276.237 4.33801L276.062 3.86963ZM274.17 5.10254L273.808 4.75717C273.233 5.35907 272.796 6.09307 272.491 6.94853L272.961 7.1167L273.432 7.28487C273.696 6.54527 274.065 5.9365 274.531 5.44791L274.17 5.10254ZM272.961 7.1167L272.49 6.95131C272.19 7.80469 272.046 8.77399 272.046 9.85107H272.546H273.046C273.046 8.8611 273.179 8.00749 273.433 7.28209L272.961 7.1167Z" fill="#504C46" mask="url(#path-1-inside-1_610_290)"/>
</svg>
