<svg width="752" height="65" viewBox="0 0 752 65" fill="none" xmlns="http://www.w3.org/2000/svg">
<mask id="path-1-inside-1_606_288" fill="white">
<path d="M0 31.5508C0 27.1465 0.827474 23.0358 2.48242 19.2188C4.13737 15.375 6.55306 12.0384 9.72949 9.20898C12.9059 6.37956 16.8031 4.15072 21.4209 2.52246C26.0654 0.894206 31.3773 0.0800781 37.3564 0.0800781C39.5186 0.0800781 41.6807 0.200195 43.8428 0.44043C46.0316 0.653971 48.1803 1.00098 50.2891 1.48145C52.4245 1.96191 54.4932 2.57585 56.4951 3.32324C58.5238 4.04395 60.4456 4.91146 62.2607 5.92578L56.415 15.5352C55.3206 14.8945 54.0794 14.3206 52.6914 13.8135C51.3034 13.2796 49.8086 12.8392 48.207 12.4922C46.6322 12.1185 44.9906 11.8382 43.2822 11.6514C41.6006 11.4645 39.9056 11.3711 38.1973 11.3711C34.2467 11.3711 30.7233 11.8783 27.627 12.8926C24.5306 13.8802 21.9147 15.2816 19.7793 17.0967C17.6439 18.8851 16.0156 21.0339 14.8945 23.543C13.7734 26.0521 13.2129 28.8014 13.2129 31.791C13.2129 34.8874 13.8001 37.7301 14.9746 40.3193C16.1491 42.9085 17.8174 45.1374 19.9795 47.0059C22.1416 48.8743 24.7575 50.3424 27.8271 51.4102C30.8968 52.4512 34.3268 52.9717 38.1172 52.9717C41.1335 52.9717 43.8962 52.638 46.4053 51.9707C48.9144 51.2767 51.1032 50.3024 52.9717 49.0479C54.8402 47.7933 56.3617 46.2852 57.5361 44.5234C58.7106 42.735 59.4847 40.7331 59.8584 38.5176H37.9971V28.0674H71.2695V28.1074L71.3096 28.0674C71.9769 31.2705 72.1771 34.3936 71.9102 37.4365C71.6699 40.4528 70.9759 43.3089 69.8281 46.0049C68.707 48.6742 67.1589 51.1299 65.1836 53.3721C63.2083 55.6143 60.846 57.5495 58.0967 59.1777C55.3473 60.7793 52.2243 62.0339 48.7275 62.9414C45.2308 63.8223 41.4004 64.2627 37.2363 64.2627C31.4173 64.2627 26.1989 63.4085 21.5811 61.7002C16.9899 59.9919 13.0928 57.6562 9.88965 54.6934C6.68652 51.7305 4.23079 48.2604 2.52246 44.2832C0.84082 40.306 0 36.0618 0 31.5508ZM86.2842 0.84082H139.576V11.9717H98.9766V24.4639H134.932V34.9141H98.9766V52.3311H140.417V63.4219H86.2842V0.84082ZM173.369 11.9717H150.267V0.84082H209.164V11.9717H186.062V63.4219H173.369V11.9717ZM248.362 0.84082H261.135V63.4219H248.362V0.84082ZM277.271 0.84082H289.963L328.961 21.2607V0.84082H341.653V63.4219H328.961V34.7139L289.963 14.4141V63.4219H277.271V0.84082ZM405.436 11.9717H382.333V0.84082H441.23V11.9717H418.128V63.4219H405.436V11.9717ZM451.12 31.9512C451.12 27.2266 451.988 22.9023 453.723 18.9785C455.458 15.0547 457.887 11.6914 461.01 8.88867C464.16 6.05924 467.923 3.87044 472.301 2.32227C476.705 0.774089 481.576 0 486.915 0C492.227 0 497.085 0.774089 501.489 2.32227C505.894 3.87044 509.657 6.05924 512.78 8.88867C515.93 11.6914 518.372 15.0547 520.107 18.9785C521.842 22.9023 522.71 27.2266 522.71 31.9512C522.71 36.7025 521.842 41.0667 520.107 45.0439C518.372 48.9945 515.93 52.3978 512.78 55.2539C509.657 58.11 505.894 60.3389 501.489 61.9404C497.085 63.5153 492.227 64.3027 486.915 64.3027C481.576 64.3027 476.705 63.5153 472.301 61.9404C467.923 60.3389 464.16 58.11 461.01 55.2539C457.887 52.3978 455.458 48.9945 453.723 45.0439C451.988 41.0667 451.12 36.7025 451.12 31.9512ZM463.812 31.9512C463.812 35.181 464.386 38.0905 465.534 40.6797C466.709 43.2689 468.324 45.4844 470.379 47.3262C472.461 49.1413 474.903 50.5426 477.706 51.5303C480.535 52.5179 483.605 53.0117 486.915 53.0117C490.225 53.0117 493.281 52.5179 496.084 51.5303C498.913 50.5426 501.356 49.1413 503.411 47.3262C505.466 45.4844 507.081 43.2689 508.256 40.6797C509.43 38.0905 510.018 35.181 510.018 31.9512C510.018 28.7214 509.43 25.8252 508.256 23.2627C507.081 20.7002 505.466 18.5381 503.411 16.7764C501.356 14.988 498.913 13.6266 496.084 12.6924C493.281 11.7581 490.225 11.291 486.915 11.291C483.605 11.291 480.535 11.7581 477.706 12.6924C474.903 13.6266 472.461 14.988 470.379 16.7764C468.324 18.5381 466.709 20.7002 465.534 23.2627C464.386 25.8252 463.812 28.7214 463.812 31.9512ZM534.441 0.84082H547.134V35.3145C547.134 38.1439 547.521 40.6663 548.295 42.8818C549.069 45.0706 550.217 46.9258 551.738 48.4473C553.286 49.9688 555.195 51.1299 557.464 51.9307C559.733 52.7048 562.375 53.0918 565.392 53.0918C568.381 53.0918 571.01 52.7048 573.279 51.9307C575.575 51.1299 577.483 49.9688 579.005 48.4473C580.553 46.9258 581.714 45.0706 582.488 42.8818C583.262 40.6663 583.649 38.1439 583.649 35.3145V0.84082H596.342V36.8359C596.342 40.9466 595.648 44.6836 594.26 48.0469C592.872 51.4102 590.856 54.293 588.214 56.6953C585.571 59.0977 582.328 60.9528 578.484 62.2607C574.667 63.5687 570.303 64.2227 565.392 64.2227C560.48 64.2227 556.103 63.5687 552.259 62.2607C548.442 60.9528 545.212 59.0977 542.569 56.6953C539.927 54.293 537.911 51.4102 536.523 48.0469C535.135 44.6836 534.441 40.9466 534.441 36.8359V0.84082ZM608.033 31.751C608.033 27.2933 608.874 23.1426 610.556 19.2988C612.237 15.4284 614.666 12.0785 617.843 9.24902C621.046 6.3929 624.943 4.15072 629.534 2.52246C634.152 0.894206 639.37 0.0800781 645.189 0.0800781C650.288 0.0800781 654.959 0.600586 659.203 1.6416C663.474 2.65592 667.438 4.21745 671.095 6.32617L665.249 15.9355C664.155 15.2148 662.887 14.5742 661.445 14.0137C660.031 13.4531 658.509 12.986 656.881 12.6123C655.279 12.2119 653.611 11.9049 651.876 11.6914C650.168 11.4779 648.473 11.3711 646.791 11.3711C642.734 11.3711 639.117 11.8783 635.94 12.8926C632.764 13.8802 630.081 15.2816 627.893 17.0967C625.73 18.8851 624.076 21.0339 622.928 23.543C621.807 26.0254 621.246 28.7614 621.246 31.751C621.246 34.8473 621.833 37.6901 623.008 40.2793C624.182 42.8685 625.877 45.1107 628.093 47.0059C630.335 48.8743 633.058 50.3424 636.261 51.4102C639.491 52.4512 643.134 52.9717 647.191 52.9717C649.033 52.9717 650.862 52.8382 652.677 52.5713C654.492 52.3044 656.24 51.944 657.922 51.4902C659.63 51.0098 661.272 50.4492 662.847 49.8086C664.422 49.1413 665.89 48.4206 667.251 47.6465L673.097 57.2559C669.68 59.4447 665.729 61.1663 661.245 62.4209C656.761 63.6488 651.996 64.2627 646.951 64.2627C640.518 64.2627 634.873 63.4352 630.015 61.7803C625.157 60.0986 621.099 57.8031 617.843 54.8936C614.586 51.9574 612.131 48.514 610.476 44.5635C608.847 40.5863 608.033 36.3154 608.033 31.751ZM687.07 0.84082H699.763V17.1768H738.681V0.84082H751.413V63.4219H738.681V28.0273H699.763V63.4219H687.07V0.84082Z"/>
</mask>
<path d="M2.48242 19.2188L4.77612 20.2132L4.77863 20.2074L2.48242 19.2188ZM21.4209 2.52246L20.5938 0.163235L20.5896 0.164734L21.4209 2.52246ZM43.8428 0.44043L43.5667 2.92514L43.5833 2.92699L43.6 2.92862L43.8428 0.44043ZM50.2891 1.48145L49.7337 3.91898L49.7403 3.92047L50.2891 1.48145ZM56.4951 3.32324L55.6207 5.66534L55.6394 5.67232L55.6582 5.679L56.4951 3.32324ZM62.2607 5.92578L64.3966 7.22508L65.7448 5.00887L63.4803 3.74342L62.2607 5.92578ZM56.415 15.5352L55.1521 17.6927L57.2734 18.9344L58.5509 16.8345L56.415 15.5352ZM52.6914 13.8135L51.794 16.1468L51.8136 16.1544L51.8334 16.1616L52.6914 13.8135ZM48.207 12.4922L47.6298 14.9246L47.6537 14.9303L47.6776 14.9355L48.207 12.4922ZM43.2822 11.6514L43.0061 14.1361L43.0104 14.1365L43.2822 11.6514ZM27.627 12.8926L28.3867 15.2744L28.396 15.2714L28.4052 15.2684L27.627 12.8926ZM19.7793 17.0967L21.3845 19.0133L21.3915 19.0074L21.3984 19.0015L19.7793 17.0967ZM14.8945 23.543L17.1771 24.5628L14.8945 23.543ZM14.9746 40.3193L12.6979 41.3521L14.9746 40.3193ZM19.9795 47.0059L18.3448 48.8974L19.9795 47.0059ZM27.8271 51.4102L27.0058 53.7714L27.015 53.7746L27.0242 53.7777L27.8271 51.4102ZM46.4053 51.9707L47.0478 54.3867L47.0598 54.3835L47.0717 54.3802L46.4053 51.9707ZM57.5361 44.5234L59.6163 45.9102L59.6211 45.903L59.6258 45.8958L57.5361 44.5234ZM59.8584 38.5176L62.3236 38.9334L62.8154 36.0176H59.8584V38.5176ZM37.9971 38.5176H35.4971V41.0176H37.9971V38.5176ZM37.9971 28.0674V25.5674H35.4971V28.0674H37.9971ZM71.2695 28.0674H73.7695V25.5674H71.2695V28.0674ZM71.2695 28.1074H68.7695V34.143L73.0373 29.8752L71.2695 28.1074ZM71.3096 28.0674L73.757 27.5575L72.8134 23.028L69.5418 26.2996L71.3096 28.0674ZM71.9102 37.4365L69.4197 37.2181L69.4188 37.228L69.418 37.238L71.9102 37.4365ZM69.8281 46.0049L67.5279 45.0256L67.5232 45.0368L69.8281 46.0049ZM58.0967 59.1777L59.3551 61.3379L59.3629 61.3334L59.3706 61.3288L58.0967 59.1777ZM48.7275 62.9414L49.3382 65.3657L49.3469 65.3635L49.3556 65.3612L48.7275 62.9414ZM21.5811 61.7002L20.7092 64.0433L20.7137 64.0449L21.5811 61.7002ZM2.52246 44.2832L0.21983 45.2568L0.222595 45.2633L0.225397 45.2699L2.52246 44.2832ZM0 31.5508H2.5C2.5 27.4682 3.26514 23.6982 4.77612 20.2132L2.48242 19.2188L0.188728 18.2243C-1.6102 22.3734 -2.5 26.8248 -2.5 31.5508H0ZM2.48242 19.2188L4.77863 20.2074C6.28671 16.7048 8.484 13.6664 11.3923 11.0758L9.72949 9.20898L8.06664 7.34219C4.62212 10.4104 1.98803 14.0452 0.186212 18.2301L2.48242 19.2188ZM9.72949 9.20898L11.3923 11.0758C14.2923 8.49261 17.895 6.41655 22.2522 4.88019L21.4209 2.52246L20.5896 0.164734C15.7111 1.88488 11.5195 4.2665 8.06664 7.34219L9.72949 9.20898ZM21.4209 2.52246L22.248 4.88168C26.5766 3.36418 31.6004 2.58008 37.3564 2.58008V0.0800781V-2.41992C31.1542 -2.41992 25.5543 -1.57577 20.5938 0.163239L21.4209 2.52246ZM37.3564 0.0800781V2.58008C39.4258 2.58008 41.4957 2.69503 43.5667 2.92514L43.8428 0.44043L44.1189 -2.04428C41.8656 -2.29464 39.6114 -2.41992 37.3564 -2.41992V0.0800781ZM43.8428 0.44043L43.6 2.92862C45.6854 3.13207 47.7297 3.46237 49.7337 3.91898L50.2891 1.48145L50.8444 -0.956085C48.631 -1.46042 46.3777 -1.82413 44.0855 -2.04776L43.8428 0.44043ZM50.2891 1.48145L49.7403 3.92047C51.7678 4.37666 53.7275 4.95855 55.6207 5.66534L56.4951 3.32324L57.3695 0.98114C55.2588 0.193142 53.0812 -0.452827 50.8378 -0.957581L50.2891 1.48145ZM56.4951 3.32324L55.6582 5.679C57.5593 6.35439 59.3528 7.16462 61.0412 8.10814L62.2607 5.92578L63.4803 3.74342C61.5385 2.6583 59.4882 1.7335 57.332 0.967487L56.4951 3.32324ZM62.2607 5.92578L60.1249 4.62648L54.2792 14.2359L56.415 15.5352L58.5509 16.8345L64.3966 7.22508L62.2607 5.92578ZM56.415 15.5352L57.678 13.3776C56.4355 12.6503 55.0554 12.0156 53.5494 11.4653L52.6914 13.8135L51.8334 16.1616C53.1034 16.6257 54.2058 17.1387 55.1521 17.6927L56.415 15.5352ZM52.6914 13.8135L53.5889 11.4801C52.0698 10.8959 50.4508 10.4203 48.7364 10.0489L48.207 12.4922L47.6776 14.9355C49.1664 15.2581 50.537 15.6634 51.794 16.1468L52.6914 13.8135ZM48.207 12.4922L48.7842 10.0597C47.1028 9.66075 45.3589 9.36359 43.554 9.16619L43.2822 11.6514L43.0104 14.1365C44.6222 14.3128 46.1615 14.5762 47.6298 14.9246L48.207 12.4922ZM43.2822 11.6514L43.5583 9.16666C41.7841 8.96952 39.9969 8.87109 38.1973 8.87109V11.3711V13.8711C39.8143 13.8711 41.4171 13.9595 43.0061 14.1361L43.2822 11.6514ZM38.1973 11.3711V8.87109C34.0366 8.87109 30.2431 9.40485 26.8487 10.5168L27.627 12.8926L28.4052 15.2684C31.2035 14.3517 34.4569 13.8711 38.1973 13.8711V11.3711ZM27.627 12.8926L26.8672 10.5108C23.5055 11.5831 20.5847 13.131 18.1602 15.1918L19.7793 17.0967L21.3984 19.0015C23.2448 17.4321 25.5557 16.1773 28.3867 15.2744L27.627 12.8926ZM19.7793 17.0967L18.1741 15.1801C15.7519 17.2087 13.8901 19.6627 12.612 22.5231L14.8945 23.543L17.1771 24.5628C18.1412 22.405 19.5359 20.5615 21.3845 19.0133L19.7793 17.0967ZM14.8945 23.543L12.612 22.5231C11.3353 25.3804 10.7129 28.4812 10.7129 31.791H13.2129H15.7129C15.7129 29.1217 16.2115 26.7237 17.1771 24.5628L14.8945 23.543ZM13.2129 31.791H10.7129C10.7129 35.2115 11.3635 38.4105 12.6979 41.3521L14.9746 40.3193L17.2513 39.2866C16.2367 37.0498 15.7129 34.5633 15.7129 31.791H13.2129ZM14.9746 40.3193L12.6979 41.3521C14.0225 44.2723 15.9106 46.7937 18.3448 48.8974L19.9795 47.0059L21.6141 45.1143C19.7242 43.481 18.2756 41.5447 17.2513 39.2866L14.9746 40.3193ZM19.9795 47.0059L18.3448 48.8974C20.7765 50.9988 23.6785 52.6141 27.0058 53.7714L27.8271 51.4102L28.6484 49.0489C25.8365 48.0708 23.5067 46.7499 21.6141 45.1143L19.9795 47.0059ZM27.8271 51.4102L27.0242 53.7777C30.3921 54.9199 34.0989 55.4717 38.1172 55.4717V52.9717V50.4717C34.5547 50.4717 31.4015 49.9825 28.6301 49.0426L27.8271 51.4102ZM38.1172 52.9717V55.4717C41.3163 55.4717 44.2985 55.1179 47.0478 54.3867L46.4053 51.9707L45.7627 49.5547C43.4938 50.1581 40.9506 50.4717 38.1172 50.4717V52.9717ZM46.4053 51.9707L47.0717 54.3802C49.7999 53.6256 52.2421 52.549 54.3653 51.1234L52.9717 49.0479L51.5781 46.9723C49.9643 48.0558 48.0289 48.9277 45.7388 49.5612L46.4053 51.9707ZM52.9717 49.0479L54.3653 51.1234C56.4882 49.698 58.249 47.9611 59.6163 45.9102L57.5361 44.5234L55.456 43.1367C54.4743 44.6092 53.1922 45.8885 51.5781 46.9723L52.9717 49.0479ZM57.5361 44.5234L59.6258 45.8958C60.9998 43.8035 61.8952 41.4728 62.3236 38.9334L59.8584 38.5176L57.3932 38.1018C57.0742 39.9933 56.4214 41.6665 55.4465 43.1511L57.5361 44.5234ZM59.8584 38.5176V36.0176H37.9971V38.5176V41.0176H59.8584V38.5176ZM37.9971 38.5176H40.4971V28.0674H37.9971H35.4971V38.5176H37.9971ZM37.9971 28.0674V30.5674H71.2695V28.0674V25.5674H37.9971V28.0674ZM71.2695 28.0674H68.7695V28.1074H71.2695H73.7695V28.0674H71.2695ZM71.2695 28.1074L73.0373 29.8752L73.0773 29.8352L71.3096 28.0674L69.5418 26.2996L69.5018 26.3397L71.2695 28.1074ZM71.3096 28.0674L68.8621 28.5773C69.4831 31.558 69.6638 34.4354 69.4197 37.2181L71.9102 37.4365L74.4006 37.655C74.6904 34.3517 74.4707 30.983 73.757 27.5575L71.3096 28.0674ZM71.9102 37.4365L69.418 37.238C69.1985 39.9943 68.5666 42.5859 67.5279 45.0256L69.8281 46.0049L72.1283 46.9842C73.3852 44.0319 74.1413 40.9113 74.4023 37.635L71.9102 37.4365ZM69.8281 46.0049L67.5232 45.0368C66.5104 47.4482 65.1096 49.6741 63.3077 51.7195L65.1836 53.3721L67.0595 55.0246C69.2081 52.5857 70.9037 49.9001 72.1331 46.973L69.8281 46.0049ZM65.1836 53.3721L63.3077 51.7195C61.5173 53.7518 59.3622 55.5227 56.8227 57.0267L58.0967 59.1777L59.3706 61.3288C62.3299 59.5762 64.8993 57.4767 67.0595 55.0246L65.1836 53.3721ZM58.0967 59.1777L56.8383 57.0175C54.3108 58.4899 51.4046 59.6638 48.0995 60.5216L48.7275 62.9414L49.3556 65.3612C53.044 64.4039 56.3839 63.0687 59.3551 61.3379L58.0967 59.1777ZM48.7275 62.9414L48.1168 60.5171C44.8477 61.3407 41.2255 61.7627 37.2363 61.7627V64.2627V66.7627C41.5753 66.7627 45.6138 66.3039 49.3382 65.3657L48.7275 62.9414ZM37.2363 64.2627V61.7627C31.6607 61.7627 26.7432 60.9443 22.4485 59.3555L21.5811 61.7002L20.7137 64.0449C25.6546 65.8727 31.1739 66.7627 37.2363 66.7627V64.2627ZM21.5811 61.7002L22.4529 59.3571C18.1301 57.7486 14.5232 55.5739 11.5873 52.8581L9.88965 54.6934L8.19204 56.5286C11.6623 59.7386 15.8497 62.2351 20.7092 64.0433L21.5811 61.7002ZM9.88965 54.6934L11.5873 52.8581C8.63904 50.131 6.38853 46.9494 4.81953 43.2965L2.52246 44.2832L0.225397 45.2699C2.07306 49.5714 4.73401 53.3299 8.19204 56.5286L9.88965 54.6934ZM2.52246 44.2832L4.82509 43.3096C3.27951 39.6542 2.5 35.7426 2.5 31.5508H0H-2.5C-2.5 36.3811 -1.59787 40.9578 0.21983 45.2568L2.52246 44.2832ZM86.2842 0.84082V-1.65918H83.7842V0.84082H86.2842ZM139.576 0.84082H142.076V-1.65918H139.576V0.84082ZM139.576 11.9717V14.4717H142.076V11.9717H139.576ZM98.9766 11.9717V9.47168H96.4766V11.9717H98.9766ZM98.9766 24.4639H96.4766V26.9639H98.9766V24.4639ZM134.932 24.4639H137.432V21.9639H134.932V24.4639ZM134.932 34.9141V37.4141H137.432V34.9141H134.932ZM98.9766 34.9141V32.4141H96.4766V34.9141H98.9766ZM98.9766 52.3311H96.4766V54.8311H98.9766V52.3311ZM140.417 52.3311H142.917V49.8311H140.417V52.3311ZM140.417 63.4219V65.9219H142.917V63.4219H140.417ZM86.2842 63.4219H83.7842V65.9219H86.2842V63.4219ZM86.2842 0.84082V3.34082H139.576V0.84082V-1.65918H86.2842V0.84082ZM139.576 0.84082H137.076V11.9717H139.576H142.076V0.84082H139.576ZM139.576 11.9717V9.47168H98.9766V11.9717V14.4717H139.576V11.9717ZM98.9766 11.9717H96.4766V24.4639H98.9766H101.477V11.9717H98.9766ZM98.9766 24.4639V26.9639H134.932V24.4639V21.9639H98.9766V24.4639ZM134.932 24.4639H132.432V34.9141H134.932H137.432V24.4639H134.932ZM134.932 34.9141V32.4141H98.9766V34.9141V37.4141H134.932V34.9141ZM98.9766 34.9141H96.4766V52.3311H98.9766H101.477V34.9141H98.9766ZM98.9766 52.3311V54.8311H140.417V52.3311V49.8311H98.9766V52.3311ZM140.417 52.3311H137.917V63.4219H140.417H142.917V52.3311H140.417ZM140.417 63.4219V60.9219H86.2842V63.4219V65.9219H140.417V63.4219ZM86.2842 63.4219H88.7842V0.84082H86.2842H83.7842V63.4219H86.2842ZM173.369 11.9717H175.869V9.47168H173.369V11.9717ZM150.267 11.9717H147.767V14.4717H150.267V11.9717ZM150.267 0.84082V-1.65918H147.767V0.84082H150.267ZM209.164 0.84082H211.664V-1.65918H209.164V0.84082ZM209.164 11.9717V14.4717H211.664V11.9717H209.164ZM186.062 11.9717V9.47168H183.562V11.9717H186.062ZM186.062 63.4219V65.9219H188.562V63.4219H186.062ZM173.369 63.4219H170.869V65.9219H173.369V63.4219ZM173.369 11.9717V9.47168H150.267V11.9717V14.4717H173.369V11.9717ZM150.267 11.9717H152.767V0.84082H150.267H147.767V11.9717H150.267ZM150.267 0.84082V3.34082H209.164V0.84082V-1.65918H150.267V0.84082ZM209.164 0.84082H206.664V11.9717H209.164H211.664V0.84082H209.164ZM209.164 11.9717V9.47168H186.062V11.9717V14.4717H209.164V11.9717ZM186.062 11.9717H183.562V63.4219H186.062H188.562V11.9717H186.062ZM186.062 63.4219V60.9219H173.369V63.4219V65.9219H186.062V63.4219ZM173.369 63.4219H175.869V11.9717H173.369H170.869V63.4219H173.369ZM248.362 0.84082V-1.65918H245.862V0.84082H248.362ZM261.135 0.84082H263.635V-1.65918H261.135V0.84082ZM261.135 63.4219V65.9219H263.635V63.4219H261.135ZM248.362 63.4219H245.862V65.9219H248.362V63.4219ZM248.362 0.84082V3.34082H261.135V0.84082V-1.65918H248.362V0.84082ZM261.135 0.84082H258.635V63.4219H261.135H263.635V0.84082H261.135ZM261.135 63.4219V60.9219H248.362V63.4219V65.9219H261.135V63.4219ZM248.362 63.4219H250.862V0.84082H248.362H245.862V63.4219H248.362ZM277.271 0.84082V-1.65918H274.771V0.84082H277.271ZM289.963 0.84082L291.123 -1.37394L290.578 -1.65918H289.963V0.84082ZM328.961 21.2607L327.801 23.4755L331.461 25.3918V21.2607H328.961ZM328.961 0.84082V-1.65918H326.461V0.84082H328.961ZM341.653 0.84082H344.153V-1.65918H341.653V0.84082ZM341.653 63.4219V65.9219H344.153V63.4219H341.653ZM328.961 63.4219H326.461V65.9219H328.961V63.4219ZM328.961 34.7139H331.461V33.1968L330.115 32.4963L328.961 34.7139ZM289.963 14.4141L291.117 12.1965L287.463 10.2943V14.4141H289.963ZM289.963 63.4219V65.9219H292.463V63.4219H289.963ZM277.271 63.4219H274.771V65.9219H277.271V63.4219ZM277.271 0.84082V3.34082H289.963V0.84082V-1.65918H277.271V0.84082ZM289.963 0.84082L288.803 3.05558L327.801 23.4755L328.961 21.2607L330.121 19.046L291.123 -1.37394L289.963 0.84082ZM328.961 21.2607H331.461V0.84082H328.961H326.461V21.2607H328.961ZM328.961 0.84082V3.34082H341.653V0.84082V-1.65918H328.961V0.84082ZM341.653 0.84082H339.153V63.4219H341.653H344.153V0.84082H341.653ZM341.653 63.4219V60.9219H328.961V63.4219V65.9219H341.653V63.4219ZM328.961 63.4219H331.461V34.7139H328.961H326.461V63.4219H328.961ZM328.961 34.7139L330.115 32.4963L291.117 12.1965L289.963 14.4141L288.809 16.6316L327.807 36.9314L328.961 34.7139ZM289.963 14.4141H287.463V63.4219H289.963H292.463V14.4141H289.963ZM289.963 63.4219V60.9219H277.271V63.4219V65.9219H289.963V63.4219ZM277.271 63.4219H279.771V0.84082H277.271H274.771V63.4219H277.271ZM405.436 11.9717H407.936V9.47168H405.436V11.9717ZM382.333 11.9717H379.833V14.4717H382.333V11.9717ZM382.333 0.84082V-1.65918H379.833V0.84082H382.333ZM441.23 0.84082H443.73V-1.65918H441.23V0.84082ZM441.23 11.9717V14.4717H443.73V11.9717H441.23ZM418.128 11.9717V9.47168H415.628V11.9717H418.128ZM418.128 63.4219V65.9219H420.628V63.4219H418.128ZM405.436 63.4219H402.936V65.9219H405.436V63.4219ZM405.436 11.9717V9.47168H382.333V11.9717V14.4717H405.436V11.9717ZM382.333 11.9717H384.833V0.84082H382.333H379.833V11.9717H382.333ZM382.333 0.84082V3.34082H441.23V0.84082V-1.65918H382.333V0.84082ZM441.23 0.84082H438.73V11.9717H441.23H443.73V0.84082H441.23ZM441.23 11.9717V9.47168H418.128V11.9717V14.4717H441.23V11.9717ZM418.128 11.9717H415.628V63.4219H418.128H420.628V11.9717H418.128ZM418.128 63.4219V60.9219H405.436V63.4219V65.9219H418.128V63.4219ZM405.436 63.4219H407.936V11.9717H405.436H402.936V63.4219H405.436ZM453.723 18.9785L451.436 17.9675L453.723 18.9785ZM461.01 8.88867L462.68 10.7493L462.68 10.7485L461.01 8.88867ZM472.301 2.32227L471.472 -0.0362663L471.467 -0.0346794L472.301 2.32227ZM512.78 8.88867L511.102 10.7414L511.11 10.7489L511.118 10.7563L512.78 8.88867ZM520.107 45.0439L522.396 46.0492L522.399 46.0436L520.107 45.0439ZM512.78 55.2539L511.101 53.4019L511.093 53.4091L512.78 55.2539ZM501.489 61.9404L502.331 64.2945L502.344 64.2899L501.489 61.9404ZM472.301 61.9404L471.442 64.2882L471.45 64.2914L471.459 64.2945L472.301 61.9404ZM461.01 55.2539L459.323 57.0988L459.33 57.1059L461.01 55.2539ZM453.723 45.0439L451.431 46.0436L451.434 46.0492L453.723 45.0439ZM465.534 40.6797L463.249 41.6928L463.253 41.7027L463.257 41.7124L465.534 40.6797ZM470.379 47.3262L468.711 49.188L468.723 49.1994L468.736 49.2106L470.379 47.3262ZM477.706 51.5303L476.875 53.8882L476.882 53.8906L477.706 51.5303ZM496.084 51.5303L495.26 49.1699L495.253 49.1724L496.084 51.5303ZM503.411 47.3262L505.066 49.2001L505.073 49.1941L505.08 49.188L503.411 47.3262ZM508.256 40.6797L505.979 39.6469L508.256 40.6797ZM503.411 16.7764L501.77 18.6624L501.777 18.6685L501.784 18.6745L503.411 16.7764ZM496.084 12.6924L495.293 15.0641L495.3 15.0663L496.084 12.6924ZM477.706 12.6924L476.922 10.3184L476.915 10.3207L477.706 12.6924ZM470.379 16.7764L472.006 18.6745L472.008 18.6728L470.379 16.7764ZM465.534 23.2627L463.262 22.2211L463.257 22.2309L463.253 22.2407L465.534 23.2627ZM451.12 31.9512H453.62C453.62 27.5393 454.429 23.564 456.009 19.9895L453.723 18.9785L451.436 17.9675C449.547 22.2407 448.62 26.9139 448.62 31.9512H451.12ZM453.723 18.9785L456.009 19.9895C457.604 16.3819 459.826 13.3103 462.68 10.7493L461.01 8.88867L459.34 7.02806C455.948 10.0725 453.311 13.7275 451.436 17.9675L453.723 18.9785ZM461.01 8.88867L462.68 10.7485C465.564 8.15833 469.036 6.12875 473.134 4.67921L472.301 2.32227L471.467 -0.0346794C466.811 1.61214 462.755 3.96016 459.339 7.02887L461.01 8.88867ZM472.301 2.32227L473.13 4.68079C477.233 3.23864 481.819 2.5 486.915 2.5V0V-2.5C481.334 -2.5 476.178 -1.69046 471.472 -0.0362625L472.301 2.32227ZM486.915 0V2.5C491.983 2.5 496.556 3.23819 500.66 4.68079L501.489 2.32227L502.318 -0.0362625C497.614 -1.69002 492.471 -2.5 486.915 -2.5V0ZM501.489 2.32227L500.66 4.68079C504.784 6.13053 508.251 8.15838 511.102 10.7414L512.78 8.88867L514.459 7.03596C511.064 3.96011 507.003 1.61036 502.318 -0.0362625L501.489 2.32227ZM512.78 8.88867L511.118 10.7563C513.996 13.3172 516.228 16.3867 517.821 19.9895L520.107 18.9785L522.394 17.9675C520.517 13.7227 517.864 10.0656 514.442 7.02102L512.78 8.88867ZM520.107 18.9785L517.821 19.9895C519.401 23.564 520.21 27.5393 520.21 31.9512H522.71H525.21C525.21 26.9139 524.283 22.2407 522.394 17.9675L520.107 18.9785ZM522.71 31.9512H520.21C520.21 36.3914 519.401 40.4113 517.816 44.0443L520.107 45.0439L522.399 46.0436C524.284 41.7222 525.21 37.0135 525.21 31.9512H522.71ZM520.107 45.0439L517.818 44.0387C516.223 47.6721 513.986 50.7856 511.101 53.4019L512.78 55.2539L514.46 57.1059C517.874 54.01 520.522 50.3168 522.396 46.0492L520.107 45.0439ZM512.78 55.2539L511.093 53.4091C508.237 56.0214 504.764 58.0893 500.635 59.5909L501.489 61.9404L502.344 64.2899C507.023 62.5884 511.078 60.1987 514.467 57.0988L512.78 55.2539ZM501.489 61.9404L500.648 59.5864C496.547 61.0525 491.978 61.8027 486.915 61.8027V64.3027V66.8027C492.475 66.8027 497.623 65.9781 502.331 64.2945L501.489 61.9404ZM486.915 64.3027V61.8027C481.823 61.8027 477.241 61.0521 473.143 59.5864L472.301 61.9404L471.459 64.2945C476.169 65.9785 481.33 66.8027 486.915 66.8027V64.3027ZM472.301 61.9404L473.16 59.5926C469.056 58.0912 465.578 56.0214 462.689 53.4019L461.01 55.2539L459.33 57.1059C462.741 60.1987 466.791 62.5866 471.442 64.2882L472.301 61.9404ZM461.01 55.2539L462.697 53.4091C459.836 50.7925 457.609 47.6769 456.012 44.0387L453.723 45.0439L451.434 46.0492C453.306 50.3121 455.938 54.0031 459.323 57.0988L461.01 55.2539ZM453.723 45.0439L456.014 44.0443C454.429 40.4113 453.62 36.3914 453.62 31.9512H451.12H448.62C448.62 37.0135 449.546 41.7222 451.431 46.0436L453.723 45.0439ZM463.812 31.9512H461.312C461.312 35.4811 461.941 38.7428 463.249 41.6928L465.534 40.6797L467.82 39.6665C466.832 37.4382 466.312 34.8809 466.312 31.9512H463.812ZM465.534 40.6797L463.257 41.7124C464.571 44.6074 466.389 47.1079 468.711 49.188L470.379 47.3262L472.047 45.4643C470.258 43.8608 468.847 41.9304 467.811 39.6469L465.534 40.6797ZM470.379 47.3262L468.736 49.2106C471.074 51.2488 473.797 52.8035 476.875 53.8882L477.706 51.5303L478.537 49.1724C476.01 48.2818 473.848 47.0338 472.022 45.4417L470.379 47.3262ZM477.706 51.5303L476.882 53.8906C480.003 54.9798 483.354 55.5117 486.915 55.5117V53.0117V50.5117C483.857 50.5117 481.068 50.056 478.53 49.1699L477.706 51.5303ZM486.915 53.0117V55.5117C490.476 55.5117 493.817 54.9799 496.915 53.8882L496.084 51.5303L495.253 49.1724C492.746 50.0559 489.974 50.5117 486.915 50.5117V53.0117ZM496.084 51.5303L496.908 53.8906C500.015 52.8062 502.746 51.2488 505.066 49.2001L503.411 47.3262L501.756 45.4523C499.965 47.0338 497.812 48.2791 495.26 49.1699L496.084 51.5303ZM503.411 47.3262L505.08 49.188C507.401 47.1079 509.219 44.6074 510.533 41.7124L508.256 40.6797L505.979 39.6469C504.943 41.9304 503.532 43.8608 501.743 45.4643L503.411 47.3262ZM508.256 40.6797L510.533 41.7124C511.873 38.7574 512.518 35.4888 512.518 31.9512H510.018H507.518C507.518 34.8732 506.988 37.4236 505.979 39.6469L508.256 40.6797ZM510.018 31.9512H512.518C512.518 28.4141 511.873 25.1548 510.529 22.2211L508.256 23.2627L505.983 24.3043C506.988 26.4956 507.518 29.0286 507.518 31.9512H510.018ZM508.256 23.2627L510.529 22.2211C509.21 19.3436 507.38 16.8851 505.038 14.8782L503.411 16.7764L501.784 18.6745C503.553 20.191 504.953 22.0568 505.983 24.3043L508.256 23.2627ZM503.411 16.7764L505.052 14.8904C502.724 12.8644 499.983 11.347 496.868 10.3184L496.084 12.6924L495.3 15.0663C497.844 15.9063 499.988 17.1115 501.77 18.6624L503.411 16.7764ZM496.084 12.6924L496.875 10.3207C493.788 9.2919 490.462 8.79102 486.915 8.79102V11.291V13.791C489.988 13.791 492.774 14.2244 495.293 15.0641L496.084 12.6924ZM486.915 11.291V8.79102C483.368 8.79102 480.031 9.29199 476.922 10.3184L477.706 12.6924L478.49 15.0663C481.04 14.2243 483.842 13.791 486.915 13.791V11.291ZM477.706 12.6924L476.915 10.3207C473.829 11.3496 471.096 12.8645 468.75 14.8799L470.379 16.7764L472.008 18.6728C473.826 17.1114 475.978 15.9037 478.497 15.0641L477.706 12.6924ZM470.379 16.7764L468.752 14.8782C466.411 16.8851 464.58 19.3436 463.262 22.2211L465.534 23.2627L467.807 24.3043C468.837 22.0568 470.237 20.191 472.006 18.6745L470.379 16.7764ZM465.534 23.2627L463.253 22.2407C461.941 25.1695 461.312 28.4218 461.312 31.9512H463.812H466.312C466.312 29.0209 466.832 26.4809 467.816 24.2847L465.534 23.2627ZM534.441 0.84082V-1.65918H531.941V0.84082H534.441ZM547.134 0.84082H549.634V-1.65918H547.134V0.84082ZM548.295 42.8818L545.935 43.7065L545.938 43.7154L548.295 42.8818ZM551.738 48.4473L549.971 50.215L549.978 50.2227L549.986 50.2303L551.738 48.4473ZM557.464 51.9307L556.632 54.2881L556.644 54.2925L556.657 54.2967L557.464 51.9307ZM573.279 51.9307L574.087 54.2967L574.095 54.294L574.103 54.2912L573.279 51.9307ZM579.005 48.4473L577.253 46.6642L577.245 46.6718L577.237 46.6795L579.005 48.4473ZM582.488 42.8818L584.845 43.7154L584.848 43.7064L582.488 42.8818ZM583.649 0.84082V-1.65918H581.149V0.84082H583.649ZM596.342 0.84082H598.842V-1.65918H596.342V0.84082ZM578.484 62.2607L577.679 59.894L577.674 59.8957L578.484 62.2607ZM552.259 62.2607L551.448 64.6258L551.453 64.6275L552.259 62.2607ZM534.441 0.84082V3.34082H547.134V0.84082V-1.65918H534.441V0.84082ZM547.134 0.84082H544.634V35.3145H547.134H549.634V0.84082H547.134ZM547.134 35.3145H544.634C544.634 38.3687 545.051 41.1778 545.935 43.7064L548.295 42.8818L550.655 42.0572C549.99 40.1549 549.634 37.9191 549.634 35.3145H547.134ZM548.295 42.8818L545.938 43.7154C546.826 46.2274 548.165 48.4096 549.971 50.215L551.738 48.4473L553.506 46.6795C552.269 45.442 551.312 43.9139 550.652 42.0483L548.295 42.8818ZM551.738 48.4473L549.986 50.2303C551.822 52.035 554.056 53.3789 556.632 54.2881L557.464 51.9307L558.296 49.5732C556.334 48.8809 554.751 47.9025 553.491 46.6642L551.738 48.4473ZM557.464 51.9307L556.657 54.2967C559.243 55.179 562.168 55.5918 565.392 55.5918V53.0918V50.5918C562.582 50.5918 560.223 50.2305 558.271 49.5646L557.464 51.9307ZM565.392 53.0918V55.5918C568.591 55.5918 571.503 55.1783 574.087 54.2967L573.279 51.9307L572.472 49.5646C570.518 50.2312 568.172 50.5918 565.392 50.5918V53.0918ZM573.279 51.9307L574.103 54.2912C576.707 53.3826 578.952 52.0354 580.773 50.215L579.005 48.4473L577.237 46.6795C576.014 47.9021 574.442 48.8772 572.456 49.5702L573.279 51.9307ZM579.005 48.4473L580.757 50.2303C582.595 48.4241 583.953 46.2371 584.845 43.7154L582.488 42.8818L580.131 42.0483C579.475 43.9042 578.511 45.4274 577.253 46.6642L579.005 48.4473ZM582.488 42.8818L584.848 43.7064C585.732 41.1778 586.149 38.3687 586.149 35.3145H583.649H581.149C581.149 37.9191 580.793 40.1549 580.128 42.0572L582.488 42.8818ZM583.649 35.3145H586.149V0.84082H583.649H581.149V35.3145H583.649ZM583.649 0.84082V3.34082H596.342V0.84082V-1.65918H583.649V0.84082ZM596.342 0.84082H593.842V36.8359H596.342H598.842V0.84082H596.342ZM596.342 36.8359H593.842C593.842 40.6617 593.197 44.0691 591.949 47.0932L594.26 48.0469L596.571 49.0006C598.099 45.2981 598.842 41.2315 598.842 36.8359H596.342ZM594.26 48.0469L591.949 47.0932C590.699 50.1215 588.896 52.6964 586.532 54.8455L588.214 56.6953L589.896 58.5452C592.817 55.8895 595.044 52.6988 596.571 49.0006L594.26 48.0469ZM588.214 56.6953L586.532 54.8455C584.176 56.9878 581.243 58.6814 577.679 59.894L578.484 62.2607L579.29 64.6275C583.414 63.2242 586.967 61.2076 589.896 58.5452L588.214 56.6953ZM578.484 62.2607L577.674 59.8957C574.167 61.0973 570.085 61.7227 565.392 61.7227V64.2227V66.7227C570.521 66.7227 575.167 66.0401 579.295 64.6258L578.484 62.2607ZM565.392 64.2227V61.7227C560.699 61.7227 556.601 61.0974 553.064 59.894L552.259 62.2607L551.453 64.6275C555.604 66.0399 560.262 66.7227 565.392 66.7227V64.2227ZM552.259 62.2607L553.069 59.8957C549.533 58.684 546.611 56.9905 544.251 54.8455L542.569 56.6953L540.888 58.5452C543.813 61.2048 547.351 63.2216 551.448 64.6258L552.259 62.2607ZM542.569 56.6953L544.251 54.8455C541.887 52.6964 540.084 50.1215 538.834 47.0932L536.523 48.0469L534.213 49.0006C535.739 52.6988 537.966 55.8895 540.888 58.5452L542.569 56.6953ZM536.523 48.0469L538.834 47.0932C537.586 44.0691 536.941 40.6617 536.941 36.8359H534.441H531.941C531.941 41.2315 532.684 45.2981 534.213 49.0006L536.523 48.0469ZM534.441 36.8359H536.941V0.84082H534.441H531.941V36.8359H534.441ZM610.556 19.2988L612.846 20.3009L612.849 20.2951L610.556 19.2988ZM617.843 9.24902L619.506 11.1158L619.507 11.115L617.843 9.24902ZM629.534 2.52246L628.703 0.16473L628.699 0.166252L629.534 2.52246ZM659.203 1.6416L658.608 4.06963L658.617 4.07182L658.625 4.07394L659.203 1.6416ZM671.095 6.32617L673.231 7.62547L674.561 5.43894L672.344 4.16045L671.095 6.32617ZM665.249 15.9355L663.874 18.0235L666.038 19.4486L667.385 17.2348L665.249 15.9355ZM661.445 14.0137L660.524 16.3379L660.532 16.3408L660.539 16.3437L661.445 14.0137ZM656.881 12.6123L656.275 15.0377L656.298 15.0435L656.322 15.049L656.881 12.6123ZM651.876 11.6914L651.566 14.1721L651.571 14.1727L651.876 11.6914ZM635.94 12.8926L636.683 15.2798L636.692 15.277L636.701 15.2741L635.94 12.8926ZM627.893 17.0967L629.486 19.0231L629.488 19.0211L627.893 17.0967ZM622.928 23.543L620.654 22.503L620.649 22.514L622.928 23.543ZM623.008 40.2793L620.731 41.312L623.008 40.2793ZM628.093 47.0059L626.468 48.9056L626.48 48.9161L626.492 48.9264L628.093 47.0059ZM636.261 51.4102L635.47 53.7819L635.482 53.7858L635.494 53.7896L636.261 51.4102ZM657.922 51.4902L658.573 53.9039L658.586 53.9005L658.599 53.8969L657.922 51.4902ZM662.847 49.8086L663.789 52.1243L663.805 52.1175L663.822 52.1105L662.847 49.8086ZM667.251 47.6465L669.387 46.3472L668.125 44.2734L666.015 45.4733L667.251 47.6465ZM673.097 57.2559L674.445 59.3609L676.502 58.0433L675.233 55.9566L673.097 57.2559ZM661.245 62.4209L661.905 64.8322L661.919 64.8285L661.245 62.4209ZM630.015 61.7803L629.197 64.1428L629.208 64.1467L630.015 61.7803ZM617.843 54.8936L616.169 56.7503L616.177 56.7579L617.843 54.8936ZM610.476 44.5635L608.162 45.5107L608.166 45.5201L608.17 45.5294L610.476 44.5635ZM608.033 31.751H610.533C610.533 27.6163 611.311 23.8092 612.846 20.3009L610.556 19.2988L608.265 18.2968C606.437 22.476 605.533 26.9703 605.533 31.751H608.033ZM610.556 19.2988L612.849 20.2951C614.385 16.7598 616.598 13.7062 619.506 11.1158L617.843 9.24902L616.18 7.38223C612.735 10.4507 610.09 14.097 608.263 18.3026L610.556 19.2988ZM617.843 9.24902L619.507 11.115C622.438 8.50153 626.043 6.41322 630.37 4.87867L629.534 2.52246L628.699 0.166252C623.843 1.88821 619.654 4.28427 616.179 7.38308L617.843 9.24902ZM629.534 2.52246L630.366 4.88019C634.671 3.36195 639.602 2.58008 645.189 2.58008V0.0800781V-2.41992C639.139 -2.41992 633.633 -1.57354 628.703 0.164734L629.534 2.52246ZM645.189 0.0800781V2.58008C650.12 2.58008 654.587 3.08357 658.608 4.06963L659.203 1.6416L659.799 -0.786423C655.331 -1.8824 650.456 -2.41992 645.189 -2.41992V0.0800781ZM659.203 1.6416L658.625 4.07394C662.67 5.03459 666.407 6.50882 669.846 8.4919L671.095 6.32617L672.344 4.16045C668.469 1.92608 664.278 0.27726 659.781 -0.790741L659.203 1.6416ZM671.095 6.32617L668.959 5.02687L663.113 14.6362L665.249 15.9355L667.385 17.2348L673.231 7.62547L671.095 6.32617ZM665.249 15.9355L666.624 13.8476C665.359 13.0144 663.929 12.297 662.351 11.6837L661.445 14.0137L660.539 16.3437C661.845 16.8514 662.951 17.4153 663.874 18.0235L665.249 15.9355ZM661.445 14.0137L662.366 11.6895C660.823 11.0781 659.18 10.5749 657.44 10.1757L656.881 12.6123L656.322 15.049C657.838 15.3971 659.238 15.8282 660.524 16.3379L661.445 14.0137ZM656.881 12.6123L657.487 10.1869C655.781 9.76039 654.012 9.43542 652.181 9.21013L651.876 11.6914L651.571 14.1727C653.21 14.3745 654.778 14.6634 656.275 15.0377L656.881 12.6123ZM651.876 11.6914L652.186 9.21071C650.377 8.98462 648.579 8.87109 646.791 8.87109V11.3711V13.8711C648.367 13.8711 649.958 13.9711 651.566 14.1721L651.876 11.6914ZM646.791 11.3711V8.87109C642.53 8.87109 638.649 9.40335 635.18 10.5111L635.94 12.8926L636.701 15.2741C639.585 14.3532 642.938 13.8711 646.791 13.8711V11.3711ZM635.94 12.8926L635.198 10.5053C631.762 11.5737 628.776 13.1163 626.297 15.1723L627.893 17.0967L629.488 19.0211C631.387 17.4469 633.766 16.1867 636.683 15.2798L635.94 12.8926ZM627.893 17.0967L626.299 15.1703C623.852 17.1949 621.962 19.6449 620.654 22.503L622.928 23.543L625.201 24.5829C626.189 22.4228 627.609 20.5753 629.486 19.0231L627.893 17.0967ZM622.928 23.543L620.649 22.514C619.368 25.3502 618.746 28.4415 618.746 31.751H621.246H623.746C623.746 29.0813 624.245 26.7006 625.206 24.5719L622.928 23.543ZM621.246 31.751H618.746C618.746 35.1714 619.397 38.3704 620.731 41.312L623.008 40.2793L625.285 39.2466C624.27 37.0098 623.746 34.5232 623.746 31.751H621.246ZM623.008 40.2793L620.731 41.312C622.061 44.2431 623.981 46.7788 626.468 48.9056L628.093 47.0059L629.718 45.1061C627.773 43.4425 626.304 41.4939 625.285 39.2466L623.008 40.2793ZM628.093 47.0059L626.492 48.9264C629.008 51.0232 632.017 52.6308 635.47 53.7819L636.261 51.4102L637.051 49.0385C634.098 48.0541 631.661 46.7255 629.693 45.0853L628.093 47.0059ZM636.261 51.4102L635.494 53.7896C639.014 54.9243 642.923 55.4717 647.191 55.4717V52.9717V50.4717C643.345 50.4717 639.967 49.978 637.028 49.0307L636.261 51.4102ZM647.191 52.9717V55.4717C649.154 55.4717 651.104 55.3294 653.04 55.0447L652.677 52.5713L652.313 50.0979C650.619 50.347 648.912 50.4717 647.191 50.4717V52.9717ZM652.677 52.5713L653.04 55.0447C654.947 54.7643 656.792 54.3845 658.573 53.9039L657.922 51.4902L657.271 49.0766C655.688 49.5035 654.036 49.8445 652.313 50.0979L652.677 52.5713ZM657.922 51.4902L658.599 53.8969C660.393 53.3922 662.124 52.8017 663.789 52.1243L662.847 49.8086L661.905 47.4929C660.42 48.0968 658.867 48.6273 657.245 49.0836L657.922 51.4902ZM662.847 49.8086L663.822 52.1105C665.478 51.4088 667.034 50.6458 668.487 49.8197L667.251 47.6465L666.015 45.4733C664.745 46.1953 663.365 46.8738 661.871 47.5067L662.847 49.8086ZM667.251 47.6465L665.115 48.9458L670.961 58.5552L673.097 57.2559L675.233 55.9566L669.387 46.3472L667.251 47.6465ZM673.097 57.2559L671.748 55.1508C668.568 57.1878 664.852 58.8159 660.572 60.0133L661.245 62.4209L661.919 64.8285C666.607 63.5168 670.792 61.7015 674.445 59.3609L673.097 57.2559ZM661.245 62.4209L660.585 60.0097C656.333 61.1738 651.792 61.7627 646.951 61.7627V64.2627V66.7627C652.2 66.7627 657.188 66.1237 661.905 64.8321L661.245 62.4209ZM646.951 64.2627V61.7627C640.726 61.7627 635.363 60.9612 630.821 59.4138L630.015 61.7803L629.208 64.1467C634.382 65.9093 640.31 66.7627 646.951 66.7627V64.2627ZM630.015 61.7803L630.832 59.4178C626.233 57.8256 622.478 55.6827 619.508 53.0293L617.843 54.8936L616.177 56.7579C619.72 59.9234 624.081 62.3717 629.197 64.1427L630.015 61.7803ZM617.843 54.8936L619.517 53.0368C616.527 50.3413 614.291 47.2 612.781 43.5975L610.476 44.5635L608.17 45.5294C609.971 49.828 612.645 53.5734 616.169 56.7503L617.843 54.8936ZM610.476 44.5635L612.789 43.6163C611.292 39.958 610.533 36.011 610.533 31.751H608.033H605.533C605.533 36.6198 606.403 41.2145 608.162 45.5107L610.476 44.5635ZM687.07 0.84082V-1.65918H684.57V0.84082H687.07ZM699.763 0.84082H702.263V-1.65918H699.763V0.84082ZM699.763 17.1768H697.263V19.6768H699.763V17.1768ZM738.681 17.1768V19.6768H741.181V17.1768H738.681ZM738.681 0.84082V-1.65918H736.181V0.84082H738.681ZM751.413 0.84082H753.913V-1.65918H751.413V0.84082ZM751.413 63.4219V65.9219H753.913V63.4219H751.413ZM738.681 63.4219H736.181V65.9219H738.681V63.4219ZM738.681 28.0273H741.181V25.5273H738.681V28.0273ZM699.763 28.0273V25.5273H697.263V28.0273H699.763ZM699.763 63.4219V65.9219H702.263V63.4219H699.763ZM687.07 63.4219H684.57V65.9219H687.07V63.4219ZM687.07 0.84082V3.34082H699.763V0.84082V-1.65918H687.07V0.84082ZM699.763 0.84082H697.263V17.1768H699.763H702.263V0.84082H699.763ZM699.763 17.1768V19.6768H738.681V17.1768V14.6768H699.763V17.1768ZM738.681 17.1768H741.181V0.84082H738.681H736.181V17.1768H738.681ZM738.681 0.84082V3.34082H751.413V0.84082V-1.65918H738.681V0.84082ZM751.413 0.84082H748.913V63.4219H751.413H753.913V0.84082H751.413ZM751.413 63.4219V60.9219H738.681V63.4219V65.9219H751.413V63.4219ZM738.681 63.4219H741.181V28.0273H738.681H736.181V63.4219H738.681ZM738.681 28.0273V25.5273H699.763V28.0273V30.5273H738.681V28.0273ZM699.763 28.0273H697.263V63.4219H699.763H702.263V28.0273H699.763ZM699.763 63.4219V60.9219H687.07V63.4219V65.9219H699.763V63.4219ZM687.07 63.4219H689.57V0.84082H687.07H684.57V63.4219H687.07Z" fill="url(#paint0_linear_606_288)" mask="url(#path-1-inside-1_606_288)"/>
<defs>
<linearGradient id="paint0_linear_606_288" x1="-4.60449" y1="21.9219" x2="760.396" y2="21.9219" gradientUnits="userSpaceOnUse">
<stop stop-color="#504C46"/>
<stop offset="1"/>
</linearGradient>
</defs>
</svg>
