<svg width="752" height="65" viewBox="0 0 752 65" fill="none" xmlns="http://www.w3.org/2000/svg">
<path d="M0 31.5508C0 27.1465 0.827474 23.0358 2.48242 19.2188C4.13737 15.375 6.55306 12.0384 9.72949 9.20898C12.9059 6.37956 16.8031 4.15072 21.4209 2.52246C26.0654 0.894206 31.3773 0.0800781 37.3564 0.0800781C39.5186 0.0800781 41.6807 0.200195 43.8428 0.44043C46.0316 0.653971 48.1803 1.00098 50.2891 1.48145C52.4245 1.96191 54.4932 2.57585 56.4951 3.32324C58.5238 4.04395 60.4456 4.91146 62.2607 5.92578L56.415 15.5352C55.3206 14.8945 54.0794 14.3206 52.6914 13.8135C51.3034 13.2796 49.8086 12.8392 48.207 12.4922C46.6322 12.1185 44.9906 11.8382 43.2822 11.6514C41.6006 11.4645 39.9056 11.3711 38.1973 11.3711C34.2467 11.3711 30.7233 11.8783 27.627 12.8926C24.5306 13.8802 21.9147 15.2816 19.7793 17.0967C17.6439 18.8851 16.0156 21.0339 14.8945 23.543C13.7734 26.0521 13.2129 28.8014 13.2129 31.791C13.2129 34.8874 13.8001 37.7301 14.9746 40.3193C16.1491 42.9085 17.8174 45.1374 19.9795 47.0059C22.1416 48.8743 24.7575 50.3424 27.8271 51.4102C30.8968 52.4512 34.3268 52.9717 38.1172 52.9717C41.1335 52.9717 43.8962 52.638 46.4053 51.9707C48.9144 51.2767 51.1032 50.3024 52.9717 49.0479C54.8402 47.7933 56.3617 46.2852 57.5361 44.5234C58.7106 42.735 59.4847 40.7331 59.8584 38.5176H37.9971V28.0674H71.2695V28.1074L71.3096 28.0674C71.9769 31.2705 72.1771 34.3936 71.9102 37.4365C71.6699 40.4528 70.9759 43.3089 69.8281 46.0049C68.707 48.6742 67.1589 51.1299 65.1836 53.3721C63.2083 55.6143 60.846 57.5495 58.0967 59.1777C55.3473 60.7793 52.2243 62.0339 48.7275 62.9414C45.2308 63.8223 41.4004 64.2627 37.2363 64.2627C31.4173 64.2627 26.1989 63.4085 21.5811 61.7002C16.9899 59.9919 13.0928 57.6562 9.88965 54.6934C6.68652 51.7305 4.23079 48.2604 2.52246 44.2832C0.84082 40.306 0 36.0618 0 31.5508ZM86.2842 0.84082H139.576V11.9717H98.9766V24.4639H134.932V34.9141H98.9766V52.3311H140.417V63.4219H86.2842V0.84082ZM173.369 11.9717H150.267V0.84082H209.164V11.9717H186.062V63.4219H173.369V11.9717ZM248.362 0.84082H261.135V63.4219H248.362V0.84082ZM277.271 0.84082H289.963L328.961 21.2607V0.84082H341.653V63.4219H328.961V34.7139L289.963 14.4141V63.4219H277.271V0.84082ZM405.436 11.9717H382.333V0.84082H441.23V11.9717H418.128V63.4219H405.436V11.9717ZM451.12 31.9512C451.12 27.2266 451.988 22.9023 453.723 18.9785C455.458 15.0547 457.887 11.6914 461.01 8.88867C464.16 6.05924 467.923 3.87044 472.301 2.32227C476.705 0.774089 481.576 0 486.915 0C492.227 0 497.085 0.774089 501.489 2.32227C505.894 3.87044 509.657 6.05924 512.78 8.88867C515.93 11.6914 518.372 15.0547 520.107 18.9785C521.842 22.9023 522.71 27.2266 522.71 31.9512C522.71 36.7025 521.842 41.0667 520.107 45.0439C518.372 48.9945 515.93 52.3978 512.78 55.2539C509.657 58.11 505.894 60.3389 501.489 61.9404C497.085 63.5153 492.227 64.3027 486.915 64.3027C481.576 64.3027 476.705 63.5153 472.301 61.9404C467.923 60.3389 464.16 58.11 461.01 55.2539C457.887 52.3978 455.458 48.9945 453.723 45.0439C451.988 41.0667 451.12 36.7025 451.12 31.9512ZM463.812 31.9512C463.812 35.181 464.386 38.0905 465.534 40.6797C466.709 43.2689 468.324 45.4844 470.379 47.3262C472.461 49.1413 474.903 50.5426 477.706 51.5303C480.535 52.5179 483.605 53.0117 486.915 53.0117C490.225 53.0117 493.281 52.5179 496.084 51.5303C498.913 50.5426 501.356 49.1413 503.411 47.3262C505.466 45.4844 507.081 43.2689 508.256 40.6797C509.43 38.0905 510.018 35.181 510.018 31.9512C510.018 28.7214 509.43 25.8252 508.256 23.2627C507.081 20.7002 505.466 18.5381 503.411 16.7764C501.356 14.988 498.913 13.6266 496.084 12.6924C493.281 11.7581 490.225 11.291 486.915 11.291C483.605 11.291 480.535 11.7581 477.706 12.6924C474.903 13.6266 472.461 14.988 470.379 16.7764C468.324 18.5381 466.709 20.7002 465.534 23.2627C464.386 25.8252 463.812 28.7214 463.812 31.9512ZM534.441 0.84082H547.134V35.3145C547.134 38.1439 547.521 40.6663 548.295 42.8818C549.069 45.0706 550.217 46.9258 551.738 48.4473C553.286 49.9688 555.195 51.1299 557.464 51.9307C559.733 52.7048 562.375 53.0918 565.392 53.0918C568.381 53.0918 571.01 52.7048 573.279 51.9307C575.575 51.1299 577.483 49.9688 579.005 48.4473C580.553 46.9258 581.714 45.0706 582.488 42.8818C583.262 40.6663 583.649 38.1439 583.649 35.3145V0.84082H596.342V36.8359C596.342 40.9466 595.648 44.6836 594.26 48.0469C592.872 51.4102 590.856 54.293 588.214 56.6953C585.571 59.0977 582.328 60.9528 578.484 62.2607C574.667 63.5687 570.303 64.2227 565.392 64.2227C560.48 64.2227 556.103 63.5687 552.259 62.2607C548.442 60.9528 545.212 59.0977 542.569 56.6953C539.927 54.293 537.911 51.4102 536.523 48.0469C535.135 44.6836 534.441 40.9466 534.441 36.8359V0.84082ZM608.033 31.751C608.033 27.2933 608.874 23.1426 610.556 19.2988C612.237 15.4284 614.666 12.0785 617.843 9.24902C621.046 6.3929 624.943 4.15072 629.534 2.52246C634.152 0.894206 639.37 0.0800781 645.189 0.0800781C650.288 0.0800781 654.959 0.600586 659.203 1.6416C663.474 2.65592 667.438 4.21745 671.095 6.32617L665.249 15.9355C664.155 15.2148 662.887 14.5742 661.445 14.0137C660.031 13.4531 658.509 12.986 656.881 12.6123C655.279 12.2119 653.611 11.9049 651.876 11.6914C650.168 11.4779 648.473 11.3711 646.791 11.3711C642.734 11.3711 639.117 11.8783 635.94 12.8926C632.764 13.8802 630.081 15.2816 627.893 17.0967C625.73 18.8851 624.076 21.0339 622.928 23.543C621.807 26.0254 621.246 28.7614 621.246 31.751C621.246 34.8473 621.833 37.6901 623.008 40.2793C624.182 42.8685 625.877 45.1107 628.093 47.0059C630.335 48.8743 633.058 50.3424 636.261 51.4102C639.491 52.4512 643.134 52.9717 647.191 52.9717C649.033 52.9717 650.862 52.8382 652.677 52.5713C654.492 52.3044 656.24 51.944 657.922 51.4902C659.63 51.0098 661.272 50.4492 662.847 49.8086C664.422 49.1413 665.89 48.4206 667.251 47.6465L673.097 57.2559C669.68 59.4447 665.729 61.1663 661.245 62.4209C656.761 63.6488 651.996 64.2627 646.951 64.2627C640.518 64.2627 634.873 63.4352 630.015 61.7803C625.157 60.0986 621.099 57.8031 617.843 54.8936C614.586 51.9574 612.131 48.514 610.476 44.5635C608.847 40.5863 608.033 36.3154 608.033 31.751ZM687.07 0.84082H699.763V17.1768H738.681V0.84082H751.413V63.4219H738.681V28.0273H699.763V63.4219H687.07V0.84082Z" fill="url(#paint0_linear_606_287)"/>
<defs>
<linearGradient id="paint0_linear_606_287" x1="-4.60449" y1="22.4219" x2="760.396" y2="22.4219" gradientUnits="userSpaceOnUse">
<stop stop-color="#504C46"/>
<stop offset="0.423077" stop-color="#2F2D29"/>
<stop offset="0.730769" stop-color="#171614"/>
<stop offset="1"/>
</linearGradient>
</defs>
</svg>
