<svg width="1108" height="107" viewBox="0 0 1108 107" fill="none" xmlns="http://www.w3.org/2000/svg">
<path d="M0 10.4106H15.9429V53.7129C15.9429 57.2669 16.429 60.4354 17.4014 63.2183C18.3737 65.9676 19.8154 68.2979 21.7266 70.209C23.6712 72.1201 26.0685 73.5786 28.9185 74.5845C31.7684 75.5568 35.0877 76.043 38.8765 76.043C42.6317 76.043 45.9342 75.5568 48.7842 74.5845C51.6676 73.5786 54.0649 72.1201 55.9761 70.209C57.9207 68.2979 59.3792 65.9676 60.3516 63.2183C61.3239 60.4354 61.8101 57.2669 61.8101 53.7129V10.4106H77.7529V55.624C77.7529 60.7874 76.8812 65.4814 75.1377 69.7061C73.3942 73.9307 70.8628 77.5518 67.5435 80.5693C64.2241 83.5869 60.1504 85.9172 55.3223 87.5601C50.5277 89.203 45.0457 90.0244 38.8765 90.0244C32.7072 90.0244 27.2085 89.203 22.3804 87.5601C17.5858 85.9172 13.5288 83.5869 10.2095 80.5693C6.89014 77.5518 4.35872 73.9307 2.61523 69.7061C0.871745 65.4814 0 60.7874 0 55.624V10.4106ZM95.2046 10.4106H111.248V89.0186H95.2046V10.4106ZM175.12 0H189.554L142.832 106.822H128.398L175.12 0ZM205.799 10.4106H221.742V53.7129C221.742 57.2669 222.228 60.4354 223.2 63.2183C224.173 65.9676 225.614 68.2979 227.525 70.209C229.47 72.1201 231.867 73.5786 234.717 74.5845C237.567 75.5568 240.887 76.043 244.675 76.043C248.431 76.043 251.733 75.5568 254.583 74.5845C257.466 73.5786 259.864 72.1201 261.775 70.209C263.72 68.2979 265.178 65.9676 266.15 63.2183C267.123 60.4354 267.609 57.2669 267.609 53.7129V10.4106H283.552V55.624C283.552 60.7874 282.68 65.4814 280.937 69.7061C279.193 73.9307 276.662 77.5518 273.342 80.5693C270.023 83.5869 265.949 85.9172 261.121 87.5601C256.326 89.203 250.845 90.0244 244.675 90.0244C238.506 90.0244 233.007 89.203 228.179 87.5601C223.385 85.9172 219.328 83.5869 216.008 80.5693C212.689 77.5518 210.158 73.9307 208.414 69.7061C206.671 65.4814 205.799 60.7874 205.799 55.624V10.4106ZM325.345 49.0859L295.119 10.4106H314.633L335.504 37.4683L356.477 10.4106H375.688L344.909 48.9351L376.745 89.0186H357.181L334.8 60.7539L311.917 89.0186H292.655L325.345 49.0859ZM422.914 10.4106H451.731C460.147 10.4106 467.456 11.3159 473.659 13.1265C479.862 14.937 484.992 17.5355 489.049 20.9219C493.139 24.2747 496.174 28.3652 498.152 33.1934C500.164 37.988 501.169 43.3861 501.169 49.3877C501.169 55.0876 500.18 60.3683 498.202 65.23C496.224 70.0581 493.206 74.2492 489.149 77.8032C485.092 81.3237 479.963 84.0898 473.76 86.1016C467.557 88.0798 460.248 89.0688 451.832 89.0688L422.914 89.0186V10.4106ZM455.654 75.2383C460.415 75.2383 464.59 74.6348 468.177 73.4277C471.765 72.1872 474.749 70.4437 477.129 68.1973C479.543 65.9508 481.354 63.235 482.561 60.0498C483.768 56.8646 484.372 53.3105 484.372 49.3877C484.372 45.5319 483.768 42.0617 482.561 38.9771C481.354 35.8589 479.543 33.2269 477.129 31.0811C474.749 28.9017 471.765 27.2253 468.177 26.0518C464.59 24.8783 460.415 24.2915 455.654 24.2915H438.856V75.2383H455.654ZM517.163 10.4106H584.103V24.3921H533.105V40.0835H578.269V53.21H533.105V75.0874H585.159V89.0186H517.163V10.4106ZM606.533 65.6323C609.383 67.2417 612.267 68.7002 615.184 70.0078C618.134 71.2819 621.185 72.3716 624.337 73.2769C627.489 74.1486 630.791 74.8192 634.245 75.2886C637.732 75.758 641.437 75.9927 645.359 75.9927C650.087 75.9927 654.11 75.6909 657.43 75.0874C660.749 74.4504 663.448 73.5954 665.527 72.5225C667.639 71.416 669.165 70.1084 670.104 68.5996C671.076 67.0908 671.562 65.4479 671.562 63.6709C671.562 60.821 670.372 58.5745 667.991 56.9316C665.611 55.2552 661.939 54.417 656.977 54.417C654.798 54.417 652.501 54.5679 650.087 54.8696C647.673 55.1379 645.225 55.4396 642.744 55.7749C640.297 56.1102 637.866 56.4287 635.452 56.7305C633.071 56.9987 630.825 57.1328 628.712 57.1328C625.192 57.1328 621.806 56.6802 618.553 55.7749C615.334 54.8696 612.468 53.5117 609.953 51.7012C607.472 49.8906 605.494 47.6274 604.019 44.9116C602.543 42.1958 601.806 39.0273 601.806 35.4062C601.806 33.2604 602.091 31.1313 602.661 29.019C603.264 26.9067 604.203 24.895 605.477 22.9839C606.785 21.0392 608.461 19.2454 610.506 17.6025C612.552 15.9261 615.016 14.4844 617.899 13.2773C620.816 12.0703 624.169 11.1315 627.958 10.4609C631.78 9.75684 636.122 9.40479 640.984 9.40479C644.504 9.40479 648.042 9.60596 651.596 10.0083C655.15 10.3771 658.603 10.9136 661.956 11.6177C665.342 12.3218 668.595 13.1768 671.713 14.1826C674.831 15.1549 677.731 16.2446 680.414 17.4517L673.423 30.3267C671.21 29.3543 668.829 28.4658 666.281 27.6611C663.733 26.8229 661.068 26.1021 658.285 25.4985C655.502 24.895 652.618 24.4256 649.634 24.0903C646.684 23.7215 643.666 23.5371 640.582 23.5371C636.189 23.5371 632.568 23.8556 629.718 24.4927C626.902 25.1297 624.655 25.9512 622.979 26.957C621.303 27.9294 620.129 29.0358 619.458 30.2764C618.821 31.4834 618.503 32.6904 618.503 33.8975C618.503 36.2445 619.559 38.1724 621.671 39.6812C623.784 41.1564 627.002 41.894 631.328 41.894C633.071 41.894 635.066 41.7767 637.312 41.542C639.592 41.2738 641.973 40.9888 644.454 40.687C646.969 40.3853 649.517 40.117 652.099 39.8823C654.714 39.6141 657.245 39.48 659.693 39.48C664.32 39.48 668.41 39.9997 671.964 41.0391C675.552 42.0785 678.553 43.5705 680.967 45.5151C683.381 47.4263 685.208 49.7565 686.449 52.5059C687.689 55.2217 688.31 58.2728 688.31 61.6592C688.31 66.1855 687.253 70.2257 685.141 73.7798C683.062 77.3003 680.078 80.2843 676.189 82.7319C672.333 85.146 667.673 86.9901 662.208 88.2642C656.742 89.5047 650.657 90.125 643.951 90.125C639.525 90.125 635.2 89.84 630.976 89.27C626.751 88.7336 622.694 87.9624 618.805 86.9565C614.949 85.9172 611.261 84.6934 607.74 83.2852C604.253 81.8434 601.018 80.2676 598.034 78.5576L606.533 65.6323ZM703.85 10.4106H719.894V89.0186H703.85V10.4106ZM734.881 48.9854C734.881 43.4531 735.92 38.2897 737.999 33.4951C740.078 28.667 743.112 24.4759 747.102 20.9219C751.092 17.3678 755.987 14.5682 761.788 12.5229C767.622 10.4777 774.294 9.45508 781.804 9.45508C784.52 9.45508 787.236 9.60596 789.952 9.90771C792.701 10.1759 795.4 10.6118 798.049 11.2153C800.731 11.8188 803.33 12.59 805.844 13.5288C808.392 14.4341 810.806 15.5238 813.086 16.7979L805.744 28.8682C804.369 28.0635 802.81 27.3426 801.066 26.7056C799.323 26.035 797.445 25.4818 795.434 25.0459C793.455 24.5765 791.393 24.2244 789.248 23.9897C787.135 23.755 785.006 23.6377 782.86 23.6377C777.898 23.6377 773.472 24.2747 769.583 25.5488C765.694 26.7894 762.408 28.5496 759.726 30.8296C757.043 33.076 754.998 35.7751 753.59 38.9268C752.182 42.0785 751.478 45.5319 751.478 49.2871C751.478 53.1764 752.215 56.7472 753.69 59.9995C755.166 63.2518 757.261 66.0514 759.977 68.3984C762.693 70.7454 765.979 72.5895 769.834 73.9307C773.69 75.2383 777.999 75.8921 782.76 75.8921C786.549 75.8921 790.019 75.473 793.17 74.6348C796.322 73.763 799.071 72.5392 801.418 70.9634C803.765 69.3875 805.677 67.4932 807.152 65.2803C808.627 63.0339 809.599 60.5192 810.069 57.7363H782.609V44.6099H824.402V44.6602L824.453 44.6099C825.291 48.6333 825.542 52.5562 825.207 56.3784C824.905 60.1672 824.034 63.7547 822.592 67.1411C821.184 70.494 819.239 73.5786 816.758 76.395C814.277 79.2114 811.309 81.6423 807.856 83.6875C804.403 85.6992 800.48 87.2751 796.087 88.415C791.695 89.5215 786.884 90.0747 781.653 90.0747C774.344 90.0747 767.789 89.0018 761.989 86.856C756.222 84.7101 751.327 81.7764 747.303 78.0547C743.28 74.333 740.195 69.9743 738.049 64.9785C735.937 59.9827 734.881 54.6517 734.881 48.9854ZM843.162 10.4106H859.104L908.09 36.0601V10.4106H924.033V89.0186H908.09V52.9585L859.104 27.46V89.0186H843.162V10.4106ZM946.262 10.4106H1013.2V24.3921H962.205V40.0835H1007.37V53.21H962.205V75.0874H1014.26V89.0186H946.262V10.4106ZM1031.96 10.4106H1071.94C1077.98 10.4106 1083.21 11.0477 1087.64 12.3218C1092.06 13.5623 1095.73 15.3729 1098.65 17.7534C1101.57 20.134 1103.73 23.0342 1105.14 26.4541C1106.58 29.874 1107.3 33.7466 1107.3 38.0718C1107.3 40.9888 1106.95 43.7716 1106.24 46.4204C1105.54 49.0356 1104.45 51.4497 1102.98 53.6626C1101.53 55.8755 1099.71 57.8537 1097.49 59.5972C1095.28 61.3071 1092.68 62.7321 1089.7 63.8721L1106.8 89.0186H1087.28L1072.5 66.6885H1072.04L1047.9 66.6382V89.0186H1031.96V10.4106ZM1072.35 52.8579C1075.36 52.8579 1078 52.5059 1080.24 51.8018C1082.52 51.0977 1084.42 50.1086 1085.93 48.8345C1087.47 47.5604 1088.61 46.0181 1089.35 44.2075C1090.12 42.3634 1090.5 40.3182 1090.5 38.0718C1090.5 33.6795 1088.99 30.2931 1085.98 27.9126C1082.96 25.4985 1078.42 24.2915 1072.35 24.2915H1047.9V52.8579H1072.35Z" fill="url(#paint0_linear_475_489)"/>
<defs>
<linearGradient id="paint0_linear_475_489" x1="-8.57617" y1="37.5186" x2="1115.42" y2="37.5186" gradientUnits="userSpaceOnUse">
<stop stop-color="#504C46"/>
<stop offset="0.225962" stop-color="#272622"/>
<stop offset="0.389423" stop-color="#171614"/>
<stop offset="0.504808"/>
<stop offset="0.634615" stop-color="#171614"/>
<stop offset="0.793269" stop-color="#282623"/>
<stop offset="1" stop-color="#504C46"/>
</linearGradient>
</defs>
</svg>
