<svg width="1108" height="107" viewBox="0 0 1108 107" fill="none" xmlns="http://www.w3.org/2000/svg">
<mask id="path-1-inside-1_475_490" fill="white">
<path d="M0 10.4106H15.9429V53.7129C15.9429 57.2669 16.429 60.4354 17.4014 63.2183C18.3737 65.9676 19.8154 68.2979 21.7266 70.209C23.6712 72.1201 26.0685 73.5786 28.9185 74.5845C31.7684 75.5568 35.0877 76.043 38.8765 76.043C42.6317 76.043 45.9342 75.5568 48.7842 74.5845C51.6676 73.5786 54.0649 72.1201 55.9761 70.209C57.9207 68.2979 59.3792 65.9676 60.3516 63.2183C61.3239 60.4354 61.8101 57.2669 61.8101 53.7129V10.4106H77.7529V55.624C77.7529 60.7874 76.8812 65.4814 75.1377 69.7061C73.3942 73.9307 70.8628 77.5518 67.5435 80.5693C64.2241 83.5869 60.1504 85.9172 55.3223 87.5601C50.5277 89.203 45.0457 90.0244 38.8765 90.0244C32.7072 90.0244 27.2085 89.203 22.3804 87.5601C17.5858 85.9172 13.5288 83.5869 10.2095 80.5693C6.89014 77.5518 4.35872 73.9307 2.61523 69.7061C0.871745 65.4814 0 60.7874 0 55.624V10.4106ZM95.2046 10.4106H111.248V89.0186H95.2046V10.4106ZM175.12 0H189.554L142.832 106.822H128.398L175.12 0ZM205.799 10.4106H221.742V53.7129C221.742 57.2669 222.228 60.4354 223.2 63.2183C224.173 65.9676 225.614 68.2979 227.525 70.209C229.47 72.1201 231.867 73.5786 234.717 74.5845C237.567 75.5568 240.887 76.043 244.675 76.043C248.431 76.043 251.733 75.5568 254.583 74.5845C257.466 73.5786 259.864 72.1201 261.775 70.209C263.72 68.2979 265.178 65.9676 266.15 63.2183C267.123 60.4354 267.609 57.2669 267.609 53.7129V10.4106H283.552V55.624C283.552 60.7874 282.68 65.4814 280.937 69.7061C279.193 73.9307 276.662 77.5518 273.342 80.5693C270.023 83.5869 265.949 85.9172 261.121 87.5601C256.326 89.203 250.845 90.0244 244.675 90.0244C238.506 90.0244 233.007 89.203 228.179 87.5601C223.385 85.9172 219.328 83.5869 216.008 80.5693C212.689 77.5518 210.158 73.9307 208.414 69.7061C206.671 65.4814 205.799 60.7874 205.799 55.624V10.4106ZM325.345 49.0859L295.119 10.4106H314.633L335.504 37.4683L356.477 10.4106H375.688L344.909 48.9351L376.745 89.0186H357.181L334.8 60.7539L311.917 89.0186H292.655L325.345 49.0859ZM422.914 10.4106H451.731C460.147 10.4106 467.456 11.3159 473.659 13.1265C479.862 14.937 484.992 17.5355 489.049 20.9219C493.139 24.2747 496.174 28.3652 498.152 33.1934C500.164 37.988 501.169 43.3861 501.169 49.3877C501.169 55.0876 500.18 60.3683 498.202 65.23C496.224 70.0581 493.206 74.2492 489.149 77.8032C485.092 81.3237 479.963 84.0898 473.76 86.1016C467.557 88.0798 460.248 89.0688 451.832 89.0688L422.914 89.0186V10.4106ZM455.654 75.2383C460.415 75.2383 464.59 74.6348 468.177 73.4277C471.765 72.1872 474.749 70.4437 477.129 68.1973C479.543 65.9508 481.354 63.235 482.561 60.0498C483.768 56.8646 484.372 53.3105 484.372 49.3877C484.372 45.5319 483.768 42.0617 482.561 38.9771C481.354 35.8589 479.543 33.2269 477.129 31.0811C474.749 28.9017 471.765 27.2253 468.177 26.0518C464.59 24.8783 460.415 24.2915 455.654 24.2915H438.856V75.2383H455.654ZM517.163 10.4106H584.103V24.3921H533.105V40.0835H578.269V53.21H533.105V75.0874H585.159V89.0186H517.163V10.4106ZM606.533 65.6323C609.383 67.2417 612.267 68.7002 615.184 70.0078C618.134 71.2819 621.185 72.3716 624.337 73.2769C627.489 74.1486 630.791 74.8192 634.245 75.2886C637.732 75.758 641.437 75.9927 645.359 75.9927C650.087 75.9927 654.11 75.6909 657.43 75.0874C660.749 74.4504 663.448 73.5954 665.527 72.5225C667.639 71.416 669.165 70.1084 670.104 68.5996C671.076 67.0908 671.562 65.4479 671.562 63.6709C671.562 60.821 670.372 58.5745 667.991 56.9316C665.611 55.2552 661.939 54.417 656.977 54.417C654.798 54.417 652.501 54.5679 650.087 54.8696C647.673 55.1379 645.225 55.4396 642.744 55.7749C640.297 56.1102 637.866 56.4287 635.452 56.7305C633.071 56.9987 630.825 57.1328 628.712 57.1328C625.192 57.1328 621.806 56.6802 618.553 55.7749C615.334 54.8696 612.468 53.5117 609.953 51.7012C607.472 49.8906 605.494 47.6274 604.019 44.9116C602.543 42.1958 601.806 39.0273 601.806 35.4062C601.806 33.2604 602.091 31.1313 602.661 29.019C603.264 26.9067 604.203 24.895 605.477 22.9839C606.785 21.0392 608.461 19.2454 610.506 17.6025C612.552 15.9261 615.016 14.4844 617.899 13.2773C620.816 12.0703 624.169 11.1315 627.958 10.4609C631.78 9.75684 636.122 9.40479 640.984 9.40479C644.504 9.40479 648.042 9.60596 651.596 10.0083C655.15 10.3771 658.603 10.9136 661.956 11.6177C665.342 12.3218 668.595 13.1768 671.713 14.1826C674.831 15.1549 677.731 16.2446 680.414 17.4517L673.423 30.3267C671.21 29.3543 668.829 28.4658 666.281 27.6611C663.733 26.8229 661.068 26.1021 658.285 25.4985C655.502 24.895 652.618 24.4256 649.634 24.0903C646.684 23.7215 643.666 23.5371 640.582 23.5371C636.189 23.5371 632.568 23.8556 629.718 24.4927C626.902 25.1297 624.655 25.9512 622.979 26.957C621.303 27.9294 620.129 29.0358 619.458 30.2764C618.821 31.4834 618.503 32.6904 618.503 33.8975C618.503 36.2445 619.559 38.1724 621.671 39.6812C623.784 41.1564 627.002 41.894 631.328 41.894C633.071 41.894 635.066 41.7767 637.312 41.542C639.592 41.2738 641.973 40.9888 644.454 40.687C646.969 40.3853 649.517 40.117 652.099 39.8823C654.714 39.6141 657.245 39.48 659.693 39.48C664.32 39.48 668.41 39.9997 671.964 41.0391C675.552 42.0785 678.553 43.5705 680.967 45.5151C683.381 47.4263 685.208 49.7565 686.449 52.5059C687.689 55.2217 688.31 58.2728 688.31 61.6592C688.31 66.1855 687.253 70.2257 685.141 73.7798C683.062 77.3003 680.078 80.2843 676.189 82.7319C672.333 85.146 667.673 86.9901 662.208 88.2642C656.742 89.5047 650.657 90.125 643.951 90.125C639.525 90.125 635.2 89.84 630.976 89.27C626.751 88.7336 622.694 87.9624 618.805 86.9565C614.949 85.9172 611.261 84.6934 607.74 83.2852C604.253 81.8434 601.018 80.2676 598.034 78.5576L606.533 65.6323ZM703.85 10.4106H719.894V89.0186H703.85V10.4106ZM734.881 48.9854C734.881 43.4531 735.92 38.2897 737.999 33.4951C740.078 28.667 743.112 24.4759 747.102 20.9219C751.092 17.3678 755.987 14.5682 761.788 12.5229C767.622 10.4777 774.294 9.45508 781.804 9.45508C784.52 9.45508 787.236 9.60596 789.952 9.90771C792.701 10.1759 795.4 10.6118 798.049 11.2153C800.731 11.8188 803.33 12.59 805.844 13.5288C808.392 14.4341 810.806 15.5238 813.086 16.7979L805.744 28.8682C804.369 28.0635 802.81 27.3426 801.066 26.7056C799.323 26.035 797.445 25.4818 795.434 25.0459C793.455 24.5765 791.393 24.2244 789.248 23.9897C787.135 23.755 785.006 23.6377 782.86 23.6377C777.898 23.6377 773.472 24.2747 769.583 25.5488C765.694 26.7894 762.408 28.5496 759.726 30.8296C757.043 33.076 754.998 35.7751 753.59 38.9268C752.182 42.0785 751.478 45.5319 751.478 49.2871C751.478 53.1764 752.215 56.7472 753.69 59.9995C755.166 63.2518 757.261 66.0514 759.977 68.3984C762.693 70.7454 765.979 72.5895 769.834 73.9307C773.69 75.2383 777.999 75.8921 782.76 75.8921C786.549 75.8921 790.019 75.473 793.17 74.6348C796.322 73.763 799.071 72.5392 801.418 70.9634C803.765 69.3875 805.677 67.4932 807.152 65.2803C808.627 63.0339 809.599 60.5192 810.069 57.7363H782.609V44.6099H824.402V44.6602L824.453 44.6099C825.291 48.6333 825.542 52.5562 825.207 56.3784C824.905 60.1672 824.034 63.7547 822.592 67.1411C821.184 70.494 819.239 73.5786 816.758 76.395C814.277 79.2114 811.309 81.6423 807.856 83.6875C804.403 85.6992 800.48 87.2751 796.087 88.415C791.695 89.5215 786.884 90.0747 781.653 90.0747C774.344 90.0747 767.789 89.0018 761.989 86.856C756.222 84.7101 751.327 81.7764 747.303 78.0547C743.28 74.333 740.195 69.9743 738.049 64.9785C735.937 59.9827 734.881 54.6517 734.881 48.9854ZM843.162 10.4106H859.104L908.09 36.0601V10.4106H924.033V89.0186H908.09V52.9585L859.104 27.46V89.0186H843.162V10.4106ZM946.262 10.4106H1013.2V24.3921H962.205V40.0835H1007.37V53.21H962.205V75.0874H1014.26V89.0186H946.262V10.4106ZM1031.96 10.4106H1071.94C1077.98 10.4106 1083.21 11.0477 1087.64 12.3218C1092.06 13.5623 1095.73 15.3729 1098.65 17.7534C1101.57 20.134 1103.73 23.0342 1105.14 26.4541C1106.58 29.874 1107.3 33.7466 1107.3 38.0718C1107.3 40.9888 1106.95 43.7716 1106.24 46.4204C1105.54 49.0356 1104.45 51.4497 1102.98 53.6626C1101.53 55.8755 1099.71 57.8537 1097.49 59.5972C1095.28 61.3071 1092.68 62.7321 1089.7 63.8721L1106.8 89.0186H1087.28L1072.5 66.6885H1072.04L1047.9 66.6382V89.0186H1031.96V10.4106ZM1072.35 52.8579C1075.36 52.8579 1078 52.5059 1080.24 51.8018C1082.52 51.0977 1084.42 50.1086 1085.93 48.8345C1087.47 47.5604 1088.61 46.0181 1089.35 44.2075C1090.12 42.3634 1090.5 40.3182 1090.5 38.0718C1090.5 33.6795 1088.99 30.2931 1085.98 27.9126C1082.96 25.4985 1078.42 24.2915 1072.35 24.2915H1047.9V52.8579H1072.35Z"/>
</mask>
<path d="M0 10.4106V7.91064H-2.5V10.4106H0ZM15.9429 10.4106H18.4429V7.91064H15.9429V10.4106ZM17.4014 63.2183L15.0413 64.0429L15.0444 64.0518L17.4014 63.2183ZM21.7266 70.209L19.9588 71.9768L19.9665 71.9844L19.9742 71.9921L21.7266 70.209ZM28.9185 74.5845L28.0864 76.9419L28.0988 76.9463L28.1112 76.9506L28.9185 74.5845ZM48.7842 74.5845L49.5914 76.9506L49.5995 76.9478L49.6076 76.945L48.7842 74.5845ZM55.9761 70.209L54.2237 68.4259L54.216 68.4335L54.2083 68.4412L55.9761 70.209ZM60.3516 63.2183L62.7085 64.0518L62.7117 64.0429L60.3516 63.2183ZM61.8101 10.4106V7.91064H59.3101V10.4106H61.8101ZM77.7529 10.4106H80.2529V7.91064H77.7529V10.4106ZM55.3223 87.5601L54.5169 85.1933L54.5119 85.195L55.3223 87.5601ZM22.3804 87.5601L21.57 89.9251L21.575 89.9268L22.3804 87.5601ZM0 10.4106V12.9106H15.9429V10.4106V7.91064H0V10.4106ZM15.9429 10.4106H13.4429V53.7129H15.9429H18.4429V10.4106H15.9429ZM15.9429 53.7129H13.4429C13.4429 57.4917 13.9595 60.9468 15.0413 64.0429L17.4014 63.2183L19.7615 62.3937C18.8986 59.924 18.4429 57.0421 18.4429 53.7129H15.9429ZM17.4014 63.2183L15.0444 64.0518C16.1311 67.1243 17.7637 69.7816 19.9588 71.9768L21.7266 70.209L23.4943 68.4412C21.8672 66.8141 20.6163 64.8109 19.7583 62.3847L17.4014 63.2183ZM21.7266 70.209L19.9742 71.9921C22.207 74.1864 24.9291 75.8276 28.0864 76.9419L28.9185 74.5845L29.7505 72.227C27.2079 71.3296 25.1354 70.0539 23.4789 68.4259L21.7266 70.209ZM28.9185 74.5845L28.1112 76.9506C31.2782 78.0311 34.8809 78.543 38.8765 78.543V76.043V73.543C35.2946 73.543 32.2586 73.0825 29.7257 72.2184L28.9185 74.5845ZM38.8765 76.043V78.543C42.8413 78.543 46.4265 78.0304 49.5914 76.9506L48.7842 74.5845L47.9769 72.2184C45.442 73.0832 42.4221 73.543 38.8765 73.543V76.043ZM48.7842 74.5845L49.6076 76.945C52.8 75.8313 55.5339 74.1867 57.7438 71.9768L55.9761 70.209L54.2083 68.4412C52.596 70.0535 50.5352 71.3259 47.9608 72.224L48.7842 74.5845ZM55.9761 70.209L57.7284 71.9921C59.9628 69.7962 61.6184 67.134 62.7085 64.0518L60.3516 63.2183L57.9946 62.3847C57.14 64.8012 55.8787 66.7995 54.2237 68.4259L55.9761 70.209ZM60.3516 63.2183L62.7117 64.0429C63.7934 60.9468 64.3101 57.4917 64.3101 53.7129H61.8101H59.3101C59.3101 57.0421 58.8544 59.924 57.9915 62.3937L60.3516 63.2183ZM61.8101 53.7129H64.3101V10.4106H61.8101H59.3101V53.7129H61.8101ZM61.8101 10.4106V12.9106H77.7529V10.4106V7.91064H61.8101V10.4106ZM77.7529 10.4106H75.2529V55.624H77.7529H80.2529V10.4106H77.7529ZM77.7529 55.624H75.2529C75.2529 60.5025 74.4302 64.867 72.8268 68.7523L75.1377 69.7061L77.4486 70.6598C79.3321 66.0959 80.2529 61.0723 80.2529 55.624H77.7529ZM75.1377 69.7061L72.8268 68.7523C71.2215 72.642 68.9025 75.9552 65.8618 78.7195L67.5435 80.5693L69.2251 82.4192C72.8231 79.1483 75.5669 75.2193 77.4486 70.6598L75.1377 69.7061ZM67.5435 80.5693L65.8618 78.7195C62.8285 81.477 59.0649 83.6458 54.5169 85.1933L55.3223 87.5601L56.1276 89.9268C61.2359 88.1886 65.6198 85.6968 69.2251 82.4192L67.5435 80.5693ZM55.3223 87.5601L54.5119 85.195C50.0277 86.7316 44.8279 87.5244 38.8765 87.5244V90.0244V92.5244C45.2636 92.5244 51.0276 91.6743 56.1327 89.9251L55.3223 87.5601ZM38.8765 90.0244V87.5244C32.9256 87.5244 27.7067 86.7317 23.1857 85.1933L22.3804 87.5601L21.575 89.9268C26.7103 91.6742 32.4888 92.5244 38.8765 92.5244V90.0244ZM22.3804 87.5601L23.1908 85.195C18.6769 83.6483 14.9275 81.4798 11.8912 78.7195L10.2095 80.5693L8.52779 82.4192C12.1302 85.6941 16.4947 88.186 21.57 89.9251L22.3804 87.5601ZM10.2095 80.5693L11.8912 78.7195C8.85047 75.9552 6.53144 72.642 4.92617 68.7523L2.61523 69.7061L0.304299 70.6598C2.18601 75.2193 4.9298 79.1483 8.52779 82.4192L10.2095 80.5693ZM2.61523 69.7061L4.92617 68.7523C3.32269 64.867 2.5 60.5025 2.5 55.624H0H-2.5C-2.5 61.0723 -1.5792 66.0959 0.304299 70.6598L2.61523 69.7061ZM0 55.624H2.5V10.4106H0H-2.5V55.624H0ZM95.2046 10.4106V7.91064H92.7046V10.4106H95.2046ZM111.248 10.4106H113.748V7.91064H111.248V10.4106ZM111.248 89.0186V91.5186H113.748V89.0186H111.248ZM95.2046 89.0186H92.7046V91.5186H95.2046V89.0186ZM95.2046 10.4106V12.9106H111.248V10.4106V7.91064H95.2046V10.4106ZM111.248 10.4106H108.748V89.0186H111.248H113.748V10.4106H111.248ZM111.248 89.0186V86.5186H95.2046V89.0186V91.5186H111.248V89.0186ZM95.2046 89.0186H97.7046V10.4106H95.2046H92.7046V89.0186H95.2046ZM175.12 0V-2.5H173.485L172.83 -1.00182L175.12 0ZM189.554 0L191.845 1.00182L193.376 -2.5H189.554V0ZM142.832 106.822V109.322H144.467L145.123 107.824L142.832 106.822ZM128.398 106.822L126.107 105.82L124.576 109.322H128.398V106.822ZM175.12 0V2.5H189.554V0V-2.5H175.12V0ZM189.554 0L187.264 -1.00182L140.542 105.82L142.832 106.822L145.123 107.824L191.845 1.00182L189.554 0ZM142.832 106.822V104.322H128.398V106.822V109.322H142.832V106.822ZM128.398 106.822L130.688 107.824L177.411 1.00182L175.12 0L172.83 -1.00182L126.107 105.82L128.398 106.822ZM205.799 10.4106V7.91064H203.299V10.4106H205.799ZM221.742 10.4106H224.242V7.91064H221.742V10.4106ZM223.2 63.2183L220.84 64.0429L220.843 64.0518L223.2 63.2183ZM227.525 70.209L225.758 71.9768L225.765 71.9844L225.773 71.9921L227.525 70.209ZM234.717 74.5845L233.885 76.9419L233.898 76.9463L233.91 76.9506L234.717 74.5845ZM254.583 74.5845L255.39 76.9506L255.398 76.9478L255.406 76.945L254.583 74.5845ZM261.775 70.209L260.023 68.4259L260.015 68.4335L260.007 68.4412L261.775 70.209ZM266.15 63.2183L268.507 64.0518L268.51 64.0429L266.15 63.2183ZM267.609 10.4106V7.91064H265.109V10.4106H267.609ZM283.552 10.4106H286.052V7.91064H283.552V10.4106ZM261.121 87.5601L260.316 85.1933L260.311 85.195L261.121 87.5601ZM228.179 87.5601L227.369 89.9251L227.374 89.9268L228.179 87.5601ZM205.799 10.4106V12.9106H221.742V10.4106V7.91064H205.799V10.4106ZM221.742 10.4106H219.242V53.7129H221.742H224.242V10.4106H221.742ZM221.742 53.7129H219.242C219.242 57.4917 219.758 60.9468 220.84 64.0429L223.2 63.2183L225.56 62.3937C224.697 59.924 224.242 57.0421 224.242 53.7129H221.742ZM223.2 63.2183L220.843 64.0518C221.93 67.1243 223.562 69.7816 225.758 71.9768L227.525 70.209L229.293 68.4412C227.666 66.8141 226.415 64.8109 225.557 62.3847L223.2 63.2183ZM227.525 70.209L225.773 71.9921C228.006 74.1864 230.728 75.8276 233.885 76.9419L234.717 74.5845L235.549 72.227C233.007 71.3296 230.934 70.0539 229.278 68.4259L227.525 70.209ZM234.717 74.5845L233.91 76.9506C237.077 78.0311 240.68 78.543 244.675 78.543V76.043V73.543C241.093 73.543 238.057 73.0825 235.525 72.2184L234.717 74.5845ZM244.675 76.043V78.543C248.64 78.543 252.225 78.0304 255.39 76.9506L254.583 74.5845L253.776 72.2184C251.241 73.0832 248.221 73.543 244.675 73.543V76.043ZM254.583 74.5845L255.406 76.945C258.599 75.8313 261.333 74.1867 263.543 71.9768L261.775 70.209L260.007 68.4412C258.395 70.0535 256.334 71.3259 253.76 72.224L254.583 74.5845ZM261.775 70.209L263.527 71.9921C265.762 69.7962 267.417 67.134 268.507 64.0518L266.15 63.2183L263.793 62.3847C262.939 64.8012 261.677 66.7995 260.023 68.4259L261.775 70.209ZM266.15 63.2183L268.51 64.0429C269.592 60.9468 270.109 57.4917 270.109 53.7129H267.609H265.109C265.109 57.0421 264.653 59.924 263.79 62.3937L266.15 63.2183ZM267.609 53.7129H270.109V10.4106H267.609H265.109V53.7129H267.609ZM267.609 10.4106V12.9106H283.552V10.4106V7.91064H267.609V10.4106ZM283.552 10.4106H281.052V55.624H283.552H286.052V10.4106H283.552ZM283.552 55.624H281.052C281.052 60.5025 280.229 64.867 278.626 68.7523L280.937 69.7061L283.247 70.6598C285.131 66.0959 286.052 61.0723 286.052 55.624H283.552ZM280.937 69.7061L278.626 68.7523C277.02 72.642 274.701 75.9552 271.661 78.7195L273.342 80.5693L275.024 82.4192C278.622 79.1483 281.366 75.2193 283.247 70.6598L280.937 69.7061ZM273.342 80.5693L271.661 78.7195C268.627 81.477 264.864 83.6458 260.316 85.1933L261.121 87.5601L261.926 89.9268C267.035 88.1886 271.419 85.6968 275.024 82.4192L273.342 80.5693ZM261.121 87.5601L260.311 85.195C255.827 86.7316 250.627 87.5244 244.675 87.5244V90.0244V92.5244C251.062 92.5244 256.826 91.6743 261.931 89.9251L261.121 87.5601ZM244.675 90.0244V87.5244C238.724 87.5244 233.505 86.7317 228.985 85.1933L228.179 87.5601L227.374 89.9268C232.509 91.6742 238.288 92.5244 244.675 92.5244V90.0244ZM228.179 87.5601L228.99 85.195C224.476 83.6483 220.726 81.4798 217.69 78.7195L216.008 80.5693L214.327 82.4192C217.929 85.6941 222.294 88.186 227.369 89.9251L228.179 87.5601ZM216.008 80.5693L217.69 78.7195C214.649 75.9552 212.33 72.642 210.725 68.7523L208.414 69.7061L206.103 70.6598C207.985 75.2193 210.729 79.1483 214.327 82.4192L216.008 80.5693ZM208.414 69.7061L210.725 68.7523C209.122 64.867 208.299 60.5025 208.299 55.624H205.799H203.299C203.299 61.0723 204.22 66.0959 206.103 70.6598L208.414 69.7061ZM205.799 55.624H208.299V10.4106H205.799H203.299V55.624H205.799ZM325.345 49.0859L327.28 50.6696L328.546 49.1222L327.315 47.5465L325.345 49.0859ZM295.119 10.4106V7.91064H289.992L293.149 11.9501L295.119 10.4106ZM314.633 10.4106L316.612 8.88371L315.862 7.91064H314.633V10.4106ZM335.504 37.4683L333.525 38.9952L335.5 41.5552L337.48 38.9998L335.504 37.4683ZM356.477 10.4106V7.91064H355.251L354.501 8.8791L356.477 10.4106ZM375.688 10.4106L377.642 11.9711L380.886 7.91064H375.688V10.4106ZM344.909 48.9351L342.956 47.3746L341.713 48.9304L342.952 50.4899L344.909 48.9351ZM376.745 89.0186V91.5186H381.923L378.702 87.4637L376.745 89.0186ZM357.181 89.0186L355.221 90.5705L355.971 91.5186H357.181V89.0186ZM334.8 60.7539L336.76 59.202L334.822 56.7541L332.857 59.1808L334.8 60.7539ZM311.917 89.0186V91.5186H313.11L313.86 90.5917L311.917 89.0186ZM292.655 89.0186L290.72 87.4349L287.377 91.5186H292.655V89.0186ZM325.345 49.0859L327.315 47.5465L297.089 8.87119L295.119 10.4106L293.149 11.9501L323.375 50.6254L325.345 49.0859ZM295.119 10.4106V12.9106H314.633V10.4106V7.91064H295.119V10.4106ZM314.633 10.4106L312.653 11.9376L333.525 38.9952L335.504 37.4683L337.484 35.9413L316.612 8.88371L314.633 10.4106ZM335.504 37.4683L337.48 38.9998L358.453 11.9422L356.477 10.4106L354.501 8.8791L333.528 35.9367L335.504 37.4683ZM356.477 10.4106V12.9106H375.688V10.4106V7.91064H356.477V10.4106ZM375.688 10.4106L373.735 8.85015L342.956 47.3746L344.909 48.9351L346.862 50.4956L377.642 11.9711L375.688 10.4106ZM344.909 48.9351L342.952 50.4899L374.787 90.5734L376.745 89.0186L378.702 87.4637L346.867 47.3802L344.909 48.9351ZM376.745 89.0186V86.5186H357.181V89.0186V91.5186H376.745V89.0186ZM357.181 89.0186L359.141 87.4666L336.76 59.202L334.8 60.7539L332.84 62.3058L355.221 90.5705L357.181 89.0186ZM334.8 60.7539L332.857 59.1808L309.974 87.4455L311.917 89.0186L313.86 90.5917L336.743 62.327L334.8 60.7539ZM311.917 89.0186V86.5186H292.655V89.0186V91.5186H311.917V89.0186ZM292.655 89.0186L294.589 90.6022L327.28 50.6696L325.345 49.0859L323.411 47.5023L290.72 87.4349L292.655 89.0186ZM422.914 10.4106V7.91064H420.414V10.4106H422.914ZM489.049 20.9219L487.447 22.8411L487.455 22.8483L487.464 22.8554L489.049 20.9219ZM498.152 33.1934L495.839 34.1412L495.842 34.1509L495.847 34.1606L498.152 33.1934ZM498.202 65.23L500.516 66.1778L500.518 66.1722L498.202 65.23ZM489.149 77.8032L490.788 79.6914L490.797 79.6837L489.149 77.8032ZM473.76 86.1016L474.519 88.4834L474.531 88.4796L473.76 86.1016ZM451.832 89.0688L451.828 91.5688H451.832V89.0688ZM422.914 89.0186H420.414V91.5142L422.909 91.5186L422.914 89.0186ZM468.177 73.4277L468.974 75.7972L468.984 75.7939L468.994 75.7905L468.177 73.4277ZM477.129 68.1973L475.426 66.3671L475.42 66.373L475.414 66.379L477.129 68.1973ZM482.561 38.9771L480.23 39.8795L480.233 39.8881L482.561 38.9771ZM477.129 31.0811L475.441 32.925L475.455 32.9374L475.468 32.9496L477.129 31.0811ZM468.177 26.0518L468.954 23.6756L468.177 26.0518ZM438.856 24.2915V21.7915H436.356V24.2915H438.856ZM438.856 75.2383H436.356V77.7383H438.856V75.2383ZM422.914 10.4106V12.9106H451.731V10.4106V7.91064H422.914V10.4106ZM451.731 10.4106V12.9106C459.977 12.9106 467.04 13.7988 472.959 15.5263L473.659 13.1265L474.36 10.7266C467.873 8.83308 460.317 7.91064 451.731 7.91064V10.4106ZM473.659 13.1265L472.959 15.5263C478.903 17.2614 483.706 19.7186 487.447 22.8411L489.049 20.9219L490.651 19.0026C486.278 15.3523 480.821 12.6126 474.36 10.7266L473.659 13.1265ZM489.049 20.9219L487.464 22.8554C491.238 25.949 494.02 29.7024 495.839 34.1412L498.152 33.1934L500.465 32.2455C498.327 27.028 495.04 22.6005 490.634 18.9884L489.049 20.9219ZM498.152 33.1934L495.847 34.1606C497.711 38.6054 498.669 43.6675 498.669 49.3877H501.169H503.669C503.669 43.1047 502.616 37.3706 500.457 32.2261L498.152 33.1934ZM501.169 49.3877H498.669C498.669 54.7925 497.733 59.7502 495.887 64.2878L498.202 65.23L500.518 66.1722C502.628 60.9865 503.669 55.3827 503.669 49.3877H501.169ZM498.202 65.23L495.889 64.2822C494.062 68.7397 491.278 72.6149 487.502 75.9227L489.149 77.8032L490.797 79.6837C495.135 75.8834 498.385 71.3765 500.516 66.1778L498.202 65.23ZM489.149 77.8032L487.511 75.915C483.755 79.1741 478.939 81.7936 472.988 83.7235L473.76 86.1016L474.531 88.4796C480.986 86.386 486.43 83.4734 490.788 79.6914L489.149 77.8032ZM473.76 86.1016L473 83.7198C467.103 85.6006 460.061 86.5688 451.832 86.5688V89.0688V91.5688C460.434 91.5688 468.011 90.5589 474.519 88.4834L473.76 86.1016ZM451.832 89.0688L451.836 86.5688L422.918 86.5186L422.914 89.0186L422.909 91.5186L451.828 91.5688L451.832 89.0688ZM422.914 89.0186H425.414V10.4106H422.914H420.414V89.0186H422.914ZM455.654 75.2383V77.7383C460.62 77.7383 465.074 77.1097 468.974 75.7972L468.177 73.4277L467.38 71.0583C464.106 72.1599 460.211 72.7383 455.654 72.7383V75.2383ZM468.177 73.4277L468.994 75.7905C472.863 74.4525 476.169 72.5409 478.845 70.0155L477.129 68.1973L475.414 66.379C473.329 68.3465 470.666 69.9218 467.36 71.065L468.177 73.4277ZM477.129 68.1973L478.832 70.0274C481.537 67.5105 483.56 64.4681 484.899 60.9357L482.561 60.0498L480.223 59.1639C479.148 62.002 477.55 64.3912 475.426 66.3671L477.129 68.1973ZM482.561 60.0498L484.899 60.9357C486.228 57.428 486.872 53.5679 486.872 49.3877H484.372H481.872C481.872 53.0531 481.308 56.3012 480.223 59.1639L482.561 60.0498ZM484.372 49.3877H486.872C486.872 45.2705 486.227 41.4845 484.889 38.0661L482.561 38.9771L480.233 39.8881C481.309 42.6389 481.872 45.7933 481.872 49.3877H484.372ZM482.561 38.9771L484.892 38.0746C483.547 34.5992 481.512 31.6319 478.79 29.2125L477.129 31.0811L475.468 32.9496C477.575 34.8218 479.161 37.1186 480.23 39.8795L482.561 38.9771ZM477.129 31.0811L478.818 29.2371C476.134 26.7803 472.823 24.9411 468.954 23.6756L468.177 26.0518L467.4 28.4279C470.706 29.5094 473.364 31.0231 475.441 32.925L477.129 31.0811ZM468.177 26.0518L468.954 23.6756C465.06 22.4019 460.614 21.7915 455.654 21.7915V24.2915V26.7915C460.217 26.7915 464.119 27.3547 467.4 28.4279L468.177 26.0518ZM455.654 24.2915V21.7915H438.856V24.2915V26.7915H455.654V24.2915ZM438.856 24.2915H436.356V75.2383H438.856H441.356V24.2915H438.856ZM438.856 75.2383V77.7383H455.654V75.2383V72.7383H438.856V75.2383ZM517.163 10.4106V7.91064H514.663V10.4106H517.163ZM584.103 10.4106H586.603V7.91064H584.103V10.4106ZM584.103 24.3921V26.8921H586.603V24.3921H584.103ZM533.105 24.3921V21.8921H530.605V24.3921H533.105ZM533.105 40.0835H530.605V42.5835H533.105V40.0835ZM578.269 40.0835H580.769V37.5835H578.269V40.0835ZM578.269 53.21V55.71H580.769V53.21H578.269ZM533.105 53.21V50.71H530.605V53.21H533.105ZM533.105 75.0874H530.605V77.5874H533.105V75.0874ZM585.159 75.0874H587.659V72.5874H585.159V75.0874ZM585.159 89.0186V91.5186H587.659V89.0186H585.159ZM517.163 89.0186H514.663V91.5186H517.163V89.0186ZM517.163 10.4106V12.9106H584.103V10.4106V7.91064H517.163V10.4106ZM584.103 10.4106H581.603V24.3921H584.103H586.603V10.4106H584.103ZM584.103 24.3921V21.8921H533.105V24.3921V26.8921H584.103V24.3921ZM533.105 24.3921H530.605V40.0835H533.105H535.605V24.3921H533.105ZM533.105 40.0835V42.5835H578.269V40.0835V37.5835H533.105V40.0835ZM578.269 40.0835H575.769V53.21H578.269H580.769V40.0835H578.269ZM578.269 53.21V50.71H533.105V53.21V55.71H578.269V53.21ZM533.105 53.21H530.605V75.0874H533.105H535.605V53.21H533.105ZM533.105 75.0874V77.5874H585.159V75.0874V72.5874H533.105V75.0874ZM585.159 75.0874H582.659V89.0186H585.159H587.659V75.0874H585.159ZM585.159 89.0186V86.5186H517.163V89.0186V91.5186H585.159V89.0186ZM517.163 89.0186H519.663V10.4106H517.163H514.663V89.0186H517.163ZM606.533 65.6323L607.763 63.4554L605.728 62.3066L604.444 64.2587L606.533 65.6323ZM615.184 70.0078L614.161 72.2891L614.177 72.2961L614.193 72.303L615.184 70.0078ZM624.337 73.2769L623.647 75.6797L623.659 75.6831L623.67 75.6864L624.337 73.2769ZM634.245 75.2886L633.908 77.7658L633.911 77.7662L634.245 75.2886ZM657.43 75.0874L657.877 77.5471L657.889 77.5449L657.901 77.5426L657.43 75.0874ZM665.527 72.5225L666.673 74.744L666.68 74.7405L666.687 74.737L665.527 72.5225ZM670.104 68.5996L668.002 67.2454L667.991 67.262L667.981 67.2789L670.104 68.5996ZM667.991 56.9316L666.552 58.9757L666.561 58.9825L666.571 58.9892L667.991 56.9316ZM650.087 54.8696L650.363 57.3543L650.38 57.3524L650.397 57.3503L650.087 54.8696ZM642.744 55.7749L642.409 53.2974L642.405 53.298L642.744 55.7749ZM635.452 56.7305L635.732 59.2148L635.747 59.213L635.762 59.2112L635.452 56.7305ZM618.553 55.7749L617.876 58.1815L617.883 58.1833L618.553 55.7749ZM609.953 51.7012L608.479 53.7206L608.486 53.7253L608.492 53.73L609.953 51.7012ZM602.661 29.019L600.257 28.3322L600.252 28.35L600.247 28.3677L602.661 29.019ZM605.477 22.9839L603.402 21.5889L603.397 21.5971L605.477 22.9839ZM610.506 17.6025L612.072 19.5516L612.082 19.5439L612.091 19.536L610.506 17.6025ZM617.899 13.2773L616.944 10.9673L616.934 10.9712L617.899 13.2773ZM627.958 10.4609L628.394 12.9227L628.402 12.9212L628.411 12.9196L627.958 10.4609ZM651.596 10.0083L651.314 12.4924L651.326 12.4937L651.338 12.4949L651.596 10.0083ZM661.956 11.6177L661.442 14.0643L661.447 14.0653L661.956 11.6177ZM671.713 14.1826L670.945 16.5619L670.957 16.5656L670.969 16.5693L671.713 14.1826ZM680.414 17.4517L682.611 18.6446L683.896 16.2773L681.439 15.1719L680.414 17.4517ZM673.423 30.3267L672.417 32.6155L674.523 33.5406L675.62 31.5196L673.423 30.3267ZM666.281 27.6611L665.5 30.0359L665.514 30.0406L665.528 30.0451L666.281 27.6611ZM649.634 24.0903L649.324 26.571L649.34 26.573L649.355 26.5747L649.634 24.0903ZM629.718 24.4927L629.173 22.0529L629.167 22.0543L629.718 24.4927ZM622.979 26.957L624.233 29.1196L624.249 29.1103L624.265 29.1008L622.979 26.957ZM619.458 30.2764L617.259 29.0876L617.253 29.0985L617.248 29.1095L619.458 30.2764ZM621.671 39.6812L620.218 41.7155L620.229 41.7232L620.24 41.7308L621.671 39.6812ZM637.312 41.542L637.572 44.0285L637.588 44.0268L637.605 44.0249L637.312 41.542ZM644.454 40.687L644.156 38.2048L644.152 38.2053L644.454 40.687ZM652.099 39.8823L652.325 42.3721L652.339 42.3708L652.354 42.3693L652.099 39.8823ZM671.964 41.0391L671.263 43.4386L671.269 43.4403L671.964 41.0391ZM680.967 45.5151L679.398 47.462L679.407 47.4687L679.415 47.4753L680.967 45.5151ZM686.449 52.5059L684.17 53.5341L684.175 53.5446L686.449 52.5059ZM685.141 73.7798L682.992 72.5025L682.988 72.5087L685.141 73.7798ZM676.189 82.7319L677.516 84.8509L677.521 84.8478L676.189 82.7319ZM662.208 88.2642L662.761 90.7021L662.768 90.7005L662.775 90.6989L662.208 88.2642ZM630.976 89.27L631.31 86.7925L631.3 86.7912L631.291 86.7899L630.976 89.27ZM618.805 86.9565L618.154 89.3704L618.166 89.3737L618.179 89.3769L618.805 86.9565ZM607.74 83.2852L606.785 85.5955L606.798 85.601L606.812 85.6063L607.74 83.2852ZM598.034 78.5576L595.945 77.184L594.484 79.4051L596.791 80.7267L598.034 78.5576ZM606.533 65.6323L605.304 67.8092C608.219 69.4557 611.172 70.9491 614.161 72.2891L615.184 70.0078L616.206 67.7265C613.361 66.4512 610.547 65.0277 607.763 63.4554L606.533 65.6323ZM615.184 70.0078L614.193 72.303C617.243 73.6202 620.395 74.7456 623.647 75.6797L624.337 73.2769L625.027 70.874C621.976 69.9976 619.025 68.9436 616.175 67.7127L615.184 70.0078ZM624.337 73.2769L623.67 75.6864C626.937 76.59 630.35 77.2822 633.908 77.7658L634.245 75.2886L634.581 72.8114C631.232 72.3561 628.04 71.7072 625.003 70.8673L624.337 73.2769ZM634.245 75.2886L633.911 77.7662C637.52 78.2521 641.337 78.4927 645.359 78.4927V75.9927V73.4927C641.536 73.4927 637.943 73.2639 634.578 72.8109L634.245 75.2886ZM645.359 75.9927V78.4927C650.182 78.4927 654.365 78.1857 657.877 77.5471L657.43 75.0874L656.982 72.6277C653.856 73.1962 649.992 73.4927 645.359 73.4927V75.9927ZM657.43 75.0874L657.901 77.5426C661.361 76.8786 664.31 75.9636 666.673 74.744L665.527 72.5225L664.38 70.3009C662.586 71.2271 660.137 72.0221 656.958 72.6322L657.43 75.0874ZM665.527 72.5225L666.687 74.737C669.064 73.4921 670.985 71.9156 672.226 69.9204L670.104 68.5996L667.981 67.2789C667.345 68.3012 666.215 69.3399 664.367 70.3079L665.527 72.5225ZM670.104 68.5996L672.205 69.9539C673.435 68.0456 674.062 65.9334 674.062 63.6709H671.562H669.062C669.062 64.9625 668.717 66.136 668.002 67.2454L670.104 68.5996ZM671.562 63.6709H674.062C674.062 59.9847 672.456 56.9753 669.411 54.8741L667.991 56.9316L666.571 58.9892C668.288 60.1737 669.062 61.6572 669.062 63.6709H671.562ZM667.991 56.9316L669.431 54.8876C666.424 52.7705 662.13 51.917 656.977 51.917V54.417V56.917C661.749 56.917 664.797 57.74 666.552 58.9757L667.991 56.9316ZM656.977 54.417V51.917C654.683 51.917 652.282 52.0758 649.777 52.3889L650.087 54.8696L650.397 57.3503C652.72 57.06 654.912 56.917 656.977 56.917V54.417ZM650.087 54.8696L649.811 52.3849C647.377 52.6554 644.909 52.9596 642.409 53.2974L642.744 55.7749L643.079 58.2524C645.541 57.9197 647.969 57.6203 650.363 57.3543L650.087 54.8696ZM642.744 55.7749L642.405 53.298C639.967 53.632 637.546 53.9492 635.142 54.2498L635.452 56.7305L635.762 59.2112C638.186 58.9082 640.626 58.5884 643.083 58.2518L642.744 55.7749ZM635.452 56.7305L635.172 54.2462C632.872 54.5053 630.72 54.6328 628.712 54.6328V57.1328V59.6328C630.93 59.6328 633.27 59.4921 635.732 59.2148L635.452 56.7305ZM628.712 57.1328V54.6328C625.409 54.6328 622.248 54.2084 619.224 53.3665L618.553 55.7749L617.883 58.1833C621.363 59.1519 624.975 59.6328 628.712 59.6328V57.1328ZM618.553 55.7749L619.23 53.3683C616.27 52.5359 613.673 51.2991 611.414 49.6723L609.953 51.7012L608.492 53.73C611.262 55.7244 614.399 57.2034 617.876 58.1815L618.553 55.7749ZM609.953 51.7012L611.427 49.6817C609.247 48.091 607.515 46.1107 606.215 43.7183L604.019 44.9116L601.822 46.1049C603.473 49.1442 605.697 51.6903 608.479 53.7206L609.953 51.7012ZM604.019 44.9116L606.215 43.7183C604.971 41.427 604.306 38.6823 604.306 35.4062H601.806H599.306C599.306 39.3724 600.116 42.9646 601.822 46.1049L604.019 44.9116ZM601.806 35.4062H604.306C604.306 33.4847 604.56 31.5745 605.074 29.6703L602.661 29.019L600.247 28.3677C599.621 30.6882 599.306 33.0362 599.306 35.4062H601.806ZM602.661 29.019L605.064 29.7058C605.594 27.8533 606.42 26.0765 607.557 24.3706L605.477 22.9839L603.397 21.5971C601.986 23.7136 600.935 25.9601 600.257 28.3322L602.661 29.019ZM605.477 22.9839L607.552 24.3789C608.703 22.6668 610.2 21.0552 612.072 19.5516L610.506 17.6025L608.941 15.6535C606.722 17.4357 604.867 19.4116 603.402 21.5889L605.477 22.9839ZM610.506 17.6025L612.091 19.536C613.919 18.0381 616.165 16.7135 618.865 15.5834L617.899 13.2773L616.934 10.9712C613.867 12.2553 611.185 13.8141 608.922 15.6691L610.506 17.6025ZM617.899 13.2773L618.855 15.5874C621.573 14.4627 624.746 13.5683 628.394 12.9227L627.958 10.4609L627.522 7.9992C623.592 8.69475 620.06 9.67791 616.944 10.9673L617.899 13.2773ZM627.958 10.4609L628.411 12.9196C632.052 12.2488 636.238 11.9048 640.984 11.9048V9.40479V6.90479C636.006 6.90479 631.508 7.26485 627.505 8.0023L627.958 10.4609ZM640.984 9.40479V11.9048C644.409 11.9048 647.852 12.1005 651.314 12.4924L651.596 10.0083L651.877 7.52417C648.231 7.11142 644.6 6.90479 640.984 6.90479V9.40479ZM651.596 10.0083L651.338 12.4949C654.809 12.8552 658.177 13.3787 661.442 14.0643L661.956 11.6177L662.47 9.17104C659.029 8.44846 655.49 7.899 651.854 7.52165L651.596 10.0083ZM661.956 11.6177L661.447 14.0653C664.751 14.7523 667.917 15.5849 670.945 16.5619L671.713 14.1826L672.48 11.8033C669.273 10.7686 665.934 9.89129 662.465 9.17002L661.956 11.6177ZM671.713 14.1826L670.969 16.5693C674.001 17.5149 676.806 18.5699 679.388 19.7315L680.414 17.4517L681.439 15.1719C678.656 13.9194 675.661 12.795 672.457 11.796L671.713 14.1826ZM680.414 17.4517L678.217 16.2587L671.226 29.1337L673.423 30.3267L675.62 31.5196L682.611 18.6446L680.414 17.4517ZM673.423 30.3267L674.429 28.0379C672.125 27.0257 669.659 26.1062 667.034 25.2772L666.281 27.6611L665.528 30.0451C668 30.8254 670.295 31.6829 672.417 32.6155L673.423 30.3267ZM666.281 27.6611L667.062 25.2863C664.427 24.4193 661.677 23.6761 658.815 23.0553L658.285 25.4985L657.755 27.9417C660.458 28.528 663.039 29.2265 665.5 30.0359L666.281 27.6611ZM658.285 25.4985L658.815 23.0553C655.944 22.4329 652.977 21.9502 649.913 21.606L649.634 24.0903L649.355 26.5747C652.26 26.901 655.059 27.3571 657.755 27.9417L658.285 25.4985ZM649.634 24.0903L649.944 21.6096C646.887 21.2275 643.766 21.0371 640.582 21.0371V23.5371V26.0371C643.566 26.0371 646.48 26.2155 649.324 26.571L649.634 24.0903ZM640.582 23.5371V21.0371C636.088 21.0371 632.267 21.3612 629.173 22.0529L629.718 24.4927L630.264 26.9325C632.869 26.3501 636.291 26.0371 640.582 26.0371V23.5371ZM629.718 24.4927L629.167 22.0543C626.203 22.7247 623.678 23.6224 621.693 24.8133L622.979 26.957L624.265 29.1008C625.633 28.28 627.601 27.5347 630.27 26.9311L629.718 24.4927ZM622.979 26.957L621.725 24.7945C619.793 25.9148 618.216 27.3169 617.259 29.0876L619.458 30.2764L621.658 31.4652C622.042 30.7547 622.812 29.9439 624.233 29.1196L622.979 26.957ZM619.458 30.2764L617.248 29.1095C616.446 30.6286 616.003 32.2332 616.003 33.8975H618.503H621.003C621.003 33.1477 621.197 32.3382 621.669 31.4433L619.458 30.2764ZM618.503 33.8975H616.003C616.003 37.1465 617.53 39.7953 620.218 41.7155L621.671 39.6812L623.125 37.6468C621.588 36.5495 621.003 35.3424 621.003 33.8975H618.503ZM621.671 39.6812L620.24 41.7308C622.971 43.6381 626.803 44.394 631.328 44.394V41.894V39.394C627.202 39.394 624.596 38.6747 623.103 37.6315L621.671 39.6812ZM631.328 41.894V44.394C633.179 44.394 635.263 44.2697 637.572 44.0285L637.312 41.542L637.053 39.0555C634.869 39.2837 632.963 39.394 631.328 39.394V41.894ZM637.312 41.542L637.605 44.0249C639.888 43.7562 642.272 43.4708 644.756 43.1687L644.454 40.687L644.152 38.2053C641.674 38.5067 639.297 38.7913 637.02 39.0591L637.312 41.542ZM644.454 40.687L644.752 43.1692C647.242 42.8704 649.767 42.6046 652.325 42.3721L652.099 39.8823L651.872 37.3926C649.267 37.6294 646.695 37.9001 644.156 38.2048L644.454 40.687ZM652.099 39.8823L652.354 42.3693C654.89 42.1091 657.336 41.98 659.693 41.98V39.48V36.98C657.154 36.98 654.537 37.1191 651.844 37.3954L652.099 39.8823ZM659.693 39.48V41.98C664.139 41.98 667.985 42.48 671.263 43.4386L671.964 41.0391L672.666 38.6396C668.836 37.5193 664.501 36.98 659.693 36.98V39.48ZM671.964 41.0391L671.269 43.4403C674.602 44.406 677.289 45.763 679.398 47.462L680.967 45.5151L682.535 43.5683C679.816 41.3779 676.502 39.7509 672.66 38.6378L671.964 41.0391ZM680.967 45.5151L679.415 47.4753C681.523 49.1437 683.097 51.1568 684.17 53.5341L686.449 52.5059L688.727 51.4776C687.319 48.3562 685.239 45.7089 682.519 43.555L680.967 45.5151ZM686.449 52.5059L684.175 53.5446C685.248 55.8933 685.81 58.5831 685.81 61.6592H688.31H690.81C690.81 57.9625 690.131 54.5501 688.723 51.4671L686.449 52.5059ZM688.31 61.6592H685.81C685.81 65.7799 684.853 69.371 682.992 72.5025L685.141 73.7798L687.29 75.0571C689.654 71.0805 690.81 66.5912 690.81 61.6592H688.31ZM685.141 73.7798L682.988 72.5087C681.136 75.6456 678.452 78.354 674.857 80.616L676.189 82.7319L677.521 84.8478C681.705 82.2147 684.989 78.955 687.294 75.0509L685.141 73.7798ZM676.189 82.7319L674.862 80.613C671.288 82.851 666.897 84.6039 661.64 85.8294L662.208 88.2642L662.775 90.6989C668.449 89.3762 673.379 87.441 677.516 84.8509L676.189 82.7319ZM662.208 88.2642L661.654 85.8262C656.402 87.0184 650.506 87.625 643.951 87.625V90.125V92.625C650.808 92.625 657.083 91.991 662.761 90.7021L662.208 88.2642ZM643.951 90.125V87.625C639.633 87.625 635.42 87.3469 631.31 86.7925L630.976 89.27L630.641 91.7476C634.981 92.3331 639.418 92.625 643.951 92.625V90.125ZM630.976 89.27L631.291 86.7899C627.165 86.266 623.212 85.5141 619.431 84.5362L618.805 86.9565L618.179 89.3769C622.176 90.4108 626.337 91.2011 630.661 91.7501L630.976 89.27ZM618.805 86.9565L619.455 84.5427C615.689 83.5274 612.094 82.334 608.669 80.964L607.74 83.2852L606.812 85.6063C610.428 87.0527 614.209 88.3069 618.154 89.3704L618.805 86.9565ZM607.74 83.2852L608.695 80.9748C605.298 79.5701 602.159 78.0405 599.277 76.3885L598.034 78.5576L596.791 80.7267C599.876 82.4947 603.209 84.1168 606.785 85.5955L607.74 83.2852ZM598.034 78.5576L600.123 79.9312L608.622 67.0059L606.533 65.6323L604.444 64.2587L595.945 77.184L598.034 78.5576ZM703.85 10.4106V7.91064H701.35V10.4106H703.85ZM719.894 10.4106H722.394V7.91064H719.894V10.4106ZM719.894 89.0186V91.5186H722.394V89.0186H719.894ZM703.85 89.0186H701.35V91.5186H703.85V89.0186ZM703.85 10.4106V12.9106H719.894V10.4106V7.91064H703.85V10.4106ZM719.894 10.4106H717.394V89.0186H719.894H722.394V10.4106H719.894ZM719.894 89.0186V86.5186H703.85V89.0186V91.5186H719.894V89.0186ZM703.85 89.0186H706.35V10.4106H703.85H701.35V89.0186H703.85ZM737.999 33.4951L740.293 34.4896L740.295 34.4838L737.999 33.4951ZM761.788 12.5229L760.961 10.1637L760.956 10.1652L761.788 12.5229ZM789.952 9.90771L789.676 12.3924L789.692 12.3943L789.709 12.3959L789.952 9.90771ZM798.049 11.2153L797.493 13.6529L797.5 13.6544L798.049 11.2153ZM805.844 13.5288L804.97 15.8709L804.989 15.8779L805.007 15.8846L805.844 13.5288ZM813.086 16.7979L815.222 18.0972L816.57 15.8809L814.306 14.6155L813.086 16.7979ZM805.744 28.8682L804.481 31.0257L806.602 32.2674L807.88 30.1675L805.744 28.8682ZM801.066 26.7056L800.169 29.0389L800.189 29.0465L800.208 29.0537L801.066 26.7056ZM795.434 25.0459L794.856 27.4784L794.88 27.484L794.904 27.4892L795.434 25.0459ZM789.248 23.9897L788.971 26.4745L788.976 26.4749L789.248 23.9897ZM769.583 25.5488L770.343 27.9306L770.352 27.9276L770.361 27.9246L769.583 25.5488ZM759.726 30.8296L761.331 32.7462L761.338 32.7403L761.345 32.7344L759.726 30.8296ZM753.59 38.9268L755.872 39.9466L753.59 38.9268ZM753.69 59.9995L751.414 61.0322L753.69 59.9995ZM769.834 73.9307L769.013 76.2919L769.022 76.2951L769.032 76.2982L769.834 73.9307ZM793.17 74.6348L793.813 77.0508L793.825 77.0476L793.837 77.0443L793.17 74.6348ZM807.152 65.2803L809.232 66.667L809.237 66.6598L809.242 66.6526L807.152 65.2803ZM810.069 57.7363L812.534 58.1521L813.026 55.2363H810.069V57.7363ZM782.609 57.7363H780.109V60.2363H782.609V57.7363ZM782.609 44.6099V42.1099H780.109V44.6099H782.609ZM824.402 44.6099H826.902V42.1099H824.402V44.6099ZM824.402 44.6602H821.902V50.6957L826.17 46.4279L824.402 44.6602ZM824.453 44.6099L826.9 44.1L825.956 39.5705L822.685 42.8421L824.453 44.6099ZM825.207 56.3784L822.717 56.16L822.716 56.1699L822.715 56.1799L825.207 56.3784ZM822.592 67.1411L820.292 66.1618L820.287 66.173L822.592 67.1411ZM807.856 83.6875L809.114 85.8477L809.122 85.8432L809.13 85.8386L807.856 83.6875ZM796.087 88.415L796.698 90.8393L796.707 90.8371L796.715 90.8349L796.087 88.415ZM761.989 86.856L761.117 89.199L761.121 89.2007L761.989 86.856ZM738.049 64.9785L735.747 65.9521L735.749 65.9586L735.752 65.9652L738.049 64.9785ZM734.881 48.9854H737.381C737.381 43.7748 738.358 38.9521 740.293 34.4896L737.999 33.4951L735.705 32.5006C733.483 37.6273 732.381 43.1314 732.381 48.9854H734.881ZM737.999 33.4951L740.295 34.4838C742.227 29.9968 745.043 26.1039 748.765 22.7887L747.102 20.9219L745.439 19.0551C741.181 22.8479 737.928 27.3372 735.703 32.5065L737.999 33.4951ZM747.102 20.9219L748.765 22.7887C752.478 19.4809 757.079 16.834 762.619 14.8807L761.788 12.5229L760.956 10.1652C754.895 12.3024 749.706 15.2548 745.439 19.0551L747.102 20.9219ZM761.788 12.5229L762.615 14.8822C768.133 12.9477 774.517 11.9551 781.804 11.9551V9.45508V6.95508C774.071 6.95508 767.11 8.00773 760.961 10.1637L761.788 12.5229ZM781.804 9.45508V11.9551C784.427 11.9551 787.051 12.1008 789.676 12.3924L789.952 9.90771L790.228 7.423C787.421 7.11112 784.613 6.95508 781.804 6.95508V9.45508ZM789.952 9.90771L789.709 12.3959C792.355 12.654 794.949 13.0732 797.493 13.6529L798.049 11.2153L798.604 8.7778C795.851 8.15042 793.047 7.69785 790.194 7.41953L789.952 9.90771ZM798.049 11.2153L797.5 13.6544C800.074 14.2336 802.564 14.9727 804.97 15.8709L805.844 13.5288L806.719 11.1867C804.095 10.2073 801.388 9.40411 798.598 8.77631L798.049 11.2153ZM805.844 13.5288L805.007 15.8846C807.428 16.7445 809.714 17.7769 811.867 18.9802L813.086 16.7979L814.306 14.6155C811.899 13.2706 809.357 12.1236 806.681 11.1731L805.844 13.5288ZM813.086 16.7979L810.951 15.4986L803.608 27.5689L805.744 28.8682L807.88 30.1675L815.222 18.0972L813.086 16.7979ZM805.744 28.8682L807.007 26.7106C805.484 25.8193 803.786 25.0376 801.924 24.3574L801.066 26.7056L800.208 29.0537C801.834 29.6477 803.254 30.3077 804.481 31.0257L805.744 28.8682ZM801.066 26.7056L801.964 24.3722C800.089 23.6512 798.088 23.0629 795.963 22.6026L795.434 25.0459L794.904 27.4892C796.803 27.9006 798.557 28.4188 800.169 29.0389L801.066 26.7056ZM795.434 25.0459L796.011 22.6134C793.926 22.1188 791.762 21.7498 789.519 21.5046L789.248 23.9897L788.976 26.4749C791.025 26.6991 792.985 27.0342 794.856 27.4784L795.434 25.0459ZM789.248 23.9897L789.524 21.505C787.319 21.2601 785.098 21.1377 782.86 21.1377V23.6377V26.1377C784.915 26.1377 786.952 26.25 788.971 26.4745L789.248 23.9897ZM782.86 23.6377V21.1377C777.688 21.1377 772.992 21.8013 768.805 23.1731L769.583 25.5488L770.361 27.9246C773.953 26.7481 778.108 26.1377 782.86 26.1377V23.6377ZM769.583 25.5488L768.823 23.1671C764.669 24.4923 761.078 26.3991 758.106 28.9247L759.726 30.8296L761.345 32.7344C763.738 30.7002 766.719 29.0865 770.343 27.9306L769.583 25.5488ZM759.726 30.8296L758.12 28.913C755.151 31.3996 752.872 34.4039 751.307 37.9069L753.59 38.9268L755.872 39.9466C757.124 37.1462 758.935 34.7524 761.331 32.7462L759.726 30.8296ZM753.59 38.9268L751.307 37.9069C749.744 41.4068 748.978 45.2117 748.978 49.2871H751.478H753.978C753.978 45.8521 754.62 42.7501 755.872 39.9466L753.59 38.9268ZM751.478 49.2871H748.978C748.978 53.5005 749.779 57.4276 751.414 61.0322L753.69 59.9995L755.967 58.9668C754.652 56.0669 753.978 52.8523 753.978 49.2871H751.478ZM753.69 59.9995L751.414 61.0322C753.039 64.6156 755.354 67.7078 758.342 70.29L759.977 68.3984L761.612 66.5069C759.168 64.3951 757.292 61.888 755.967 58.9668L753.69 59.9995ZM759.977 68.3984L758.342 70.29C761.328 72.8699 764.9 74.8611 769.013 76.2919L769.834 73.9307L770.656 71.5694C767.058 70.3179 764.058 68.621 761.612 66.5069L759.977 68.3984ZM769.834 73.9307L769.032 76.2982C773.186 77.707 777.771 78.3921 782.76 78.3921V75.8921V73.3921C778.227 73.3921 774.195 72.7696 770.637 71.5631L769.834 73.9307ZM782.76 75.8921V78.3921C786.731 78.3921 790.421 77.9529 793.813 77.0508L793.17 74.6348L792.528 72.2188C789.616 72.9931 786.366 73.3921 782.76 73.3921V75.8921ZM793.17 74.6348L793.837 77.0443C797.208 76.112 800.21 74.7858 802.812 73.0389L801.418 70.9634L800.025 68.8878C797.933 70.2927 795.437 71.4141 792.504 72.2252L793.17 74.6348ZM801.418 70.9634L802.812 73.0389C805.413 71.2923 807.564 69.1691 809.232 66.667L807.152 65.2803L805.072 63.8935C803.789 65.8172 802.117 67.4828 800.025 68.8878L801.418 70.9634ZM807.152 65.2803L809.242 66.6526C810.916 64.1023 812.01 61.259 812.534 58.1521L810.069 57.7363L807.604 57.3205C807.189 59.7794 806.338 61.9654 805.062 63.908L807.152 65.2803ZM810.069 57.7363V55.2363H782.609V57.7363V60.2363H810.069V57.7363ZM782.609 57.7363H785.109V44.6099H782.609H780.109V57.7363H782.609ZM782.609 44.6099V47.1099H824.402V44.6099V42.1099H782.609V44.6099ZM824.402 44.6099H821.902V44.6602H824.402H826.902V44.6099H824.402ZM824.402 44.6602L826.17 46.4279L826.22 46.3776L824.453 44.6099L822.685 42.8421L822.635 42.8924L824.402 44.6602ZM824.453 44.6099L822.005 45.1197C822.797 48.9208 823.029 52.598 822.717 56.16L825.207 56.3784L827.697 56.5969C828.056 52.5143 827.785 48.3458 826.9 44.1L824.453 44.6099ZM825.207 56.3784L822.715 56.1799C822.434 59.7086 821.624 63.0317 820.292 66.1618L822.592 67.1411L824.892 68.1204C826.443 64.4777 827.377 60.6257 827.699 56.5769L825.207 56.3784ZM822.592 67.1411L820.287 66.173C818.987 69.268 817.19 72.1228 814.882 74.7424L816.758 76.395L818.634 78.0476C821.288 75.0344 823.38 71.72 824.897 68.1092L822.592 67.1411ZM816.758 76.395L814.882 74.7424C812.586 77.349 809.826 79.6155 806.582 81.5364L807.856 83.6875L809.13 85.8386C812.793 83.669 815.968 81.0739 818.634 78.0476L816.758 76.395ZM807.856 83.6875L806.598 81.5273C803.366 83.4098 799.66 84.905 795.459 85.9952L796.087 88.415L796.715 90.8349C801.299 89.6451 805.439 87.9886 809.114 85.8477L807.856 83.6875ZM796.087 88.415L795.477 85.9908C791.312 87.0399 786.709 87.5747 781.653 87.5747V90.0747V92.5747C787.059 92.5747 792.078 92.0031 796.698 90.8393L796.087 88.415ZM781.653 90.0747V87.5747C774.588 87.5747 768.334 86.5376 762.856 84.5113L761.989 86.856L761.121 89.2007C767.245 91.466 774.101 92.5747 781.653 92.5747V90.0747ZM761.989 86.856L762.861 84.5129C757.362 82.4669 752.757 79.694 749.001 76.2194L747.303 78.0547L745.606 79.8899C749.896 83.8587 755.082 86.9533 761.117 89.199L761.989 86.856ZM747.303 78.0547L749.001 76.2194C745.232 72.7336 742.353 68.6633 740.346 63.9919L738.049 64.9785L735.752 65.9652C738.037 71.2853 741.327 75.9325 745.606 79.8899L747.303 78.0547ZM738.049 64.9785L740.352 64.0049C738.376 59.3309 737.381 54.3325 737.381 48.9854H734.881H732.381C732.381 54.9709 733.498 60.6346 735.747 65.9521L738.049 64.9785ZM843.162 10.4106V7.91064H840.662V10.4106H843.162ZM859.104 10.4106L860.264 8.19588L859.719 7.91064H859.104V10.4106ZM908.09 36.0601L906.93 38.2748L910.59 40.1911V36.0601H908.09ZM908.09 10.4106V7.91064H905.59V10.4106H908.09ZM924.033 10.4106H926.533V7.91064H924.033V10.4106ZM924.033 89.0186V91.5186H926.533V89.0186H924.033ZM908.09 89.0186H905.59V91.5186H908.09V89.0186ZM908.09 52.9585H910.59V51.4414L909.244 50.7409L908.09 52.9585ZM859.104 27.46L860.259 25.2424L856.604 23.3402V27.46H859.104ZM859.104 89.0186V91.5186H861.604V89.0186H859.104ZM843.162 89.0186H840.662V91.5186H843.162V89.0186ZM843.162 10.4106V12.9106H859.104V10.4106V7.91064H843.162V10.4106ZM859.104 10.4106L857.945 12.6254L906.93 38.2748L908.09 36.0601L909.25 33.8453L860.264 8.19588L859.104 10.4106ZM908.09 36.0601H910.59V10.4106H908.09H905.59V36.0601H908.09ZM908.09 10.4106V12.9106H924.033V10.4106V7.91064H908.09V10.4106ZM924.033 10.4106H921.533V89.0186H924.033H926.533V10.4106H924.033ZM924.033 89.0186V86.5186H908.09V89.0186V91.5186H924.033V89.0186ZM908.09 89.0186H910.59V52.9585H908.09H905.59V89.0186H908.09ZM908.09 52.9585L909.244 50.7409L860.259 25.2424L859.104 27.46L857.95 29.6775L906.936 55.1761L908.09 52.9585ZM859.104 27.46H856.604V89.0186H859.104H861.604V27.46H859.104ZM859.104 89.0186V86.5186H843.162V89.0186V91.5186H859.104V89.0186ZM843.162 89.0186H845.662V10.4106H843.162H840.662V89.0186H843.162ZM946.262 10.4106V7.91064H943.762V10.4106H946.262ZM1013.2 10.4106H1015.7V7.91064H1013.2V10.4106ZM1013.2 24.3921V26.8921H1015.7V24.3921H1013.2ZM962.205 24.3921V21.8921H959.705V24.3921H962.205ZM962.205 40.0835H959.705V42.5835H962.205V40.0835ZM1007.37 40.0835H1009.87V37.5835H1007.37V40.0835ZM1007.37 53.21V55.71H1009.87V53.21H1007.37ZM962.205 53.21V50.71H959.705V53.21H962.205ZM962.205 75.0874H959.705V77.5874H962.205V75.0874ZM1014.26 75.0874H1016.76V72.5874H1014.26V75.0874ZM1014.26 89.0186V91.5186H1016.76V89.0186H1014.26ZM946.262 89.0186H943.762V91.5186H946.262V89.0186ZM946.262 10.4106V12.9106H1013.2V10.4106V7.91064H946.262V10.4106ZM1013.2 10.4106H1010.7V24.3921H1013.2H1015.7V10.4106H1013.2ZM1013.2 24.3921V21.8921H962.205V24.3921V26.8921H1013.2V24.3921ZM962.205 24.3921H959.705V40.0835H962.205H964.705V24.3921H962.205ZM962.205 40.0835V42.5835H1007.37V40.0835V37.5835H962.205V40.0835ZM1007.37 40.0835H1004.87V53.21H1007.37H1009.87V40.0835H1007.37ZM1007.37 53.21V50.71H962.205V53.21V55.71H1007.37V53.21ZM962.205 53.21H959.705V75.0874H962.205H964.705V53.21H962.205ZM962.205 75.0874V77.5874H1014.26V75.0874V72.5874H962.205V75.0874ZM1014.26 75.0874H1011.76V89.0186H1014.26H1016.76V75.0874H1014.26ZM1014.26 89.0186V86.5186H946.262V89.0186V91.5186H1014.26V89.0186ZM946.262 89.0186H948.762V10.4106H946.262H943.762V89.0186H946.262ZM1031.96 10.4106V7.91064H1029.46V10.4106H1031.96ZM1087.64 12.3218L1086.94 14.7242L1086.95 14.7266L1086.96 14.729L1087.64 12.3218ZM1105.14 26.4541L1102.83 27.406L1102.83 27.4156L1102.83 27.4253L1105.14 26.4541ZM1106.24 46.4204L1108.66 47.0703L1108.66 47.0627L1106.24 46.4204ZM1102.98 53.6626L1100.9 52.2758L1100.89 52.2868L1100.88 52.2979L1102.98 53.6626ZM1097.49 59.5972L1099.02 61.5754L1099.03 61.5682L1099.04 61.5609L1097.49 59.5972ZM1089.7 63.8721L1088.81 61.5367L1085.85 62.6645L1087.63 65.2778L1089.7 63.8721ZM1106.8 89.0186V91.5186H1111.52L1108.86 87.6128L1106.8 89.0186ZM1087.28 89.0186L1085.2 90.3988L1085.94 91.5186H1087.28V89.0186ZM1072.5 66.6885L1074.58 65.3082L1073.84 64.1885H1072.5V66.6885ZM1072.04 66.6885L1072.04 69.1885H1072.04V66.6885ZM1047.9 66.6382L1047.91 64.1382L1045.4 64.133V66.6382H1047.9ZM1047.9 89.0186V91.5186H1050.4V89.0186H1047.9ZM1031.96 89.0186H1029.46V91.5186H1031.96V89.0186ZM1080.24 51.8018L1079.51 49.4131L1079.49 49.4162L1080.24 51.8018ZM1085.93 48.8345L1084.33 46.9071L1084.32 46.9157L1084.31 46.9244L1085.93 48.8345ZM1089.35 44.2075L1087.04 43.243L1087.03 43.2536L1087.03 43.2643L1089.35 44.2075ZM1085.98 27.9126L1084.41 29.8648L1084.42 29.8701L1084.43 29.8754L1085.98 27.9126ZM1047.9 24.2915V21.7915H1045.4V24.2915H1047.9ZM1047.9 52.8579H1045.4V55.3579H1047.9V52.8579ZM1031.96 10.4106V12.9106H1071.94V10.4106V7.91064H1031.96V10.4106ZM1071.94 10.4106V12.9106C1077.81 12.9106 1082.8 13.5313 1086.94 14.7242L1087.64 12.3218L1088.33 9.91935C1083.62 8.56407 1078.15 7.91064 1071.94 7.91064V10.4106ZM1087.64 12.3218L1086.96 14.729C1091.13 15.8967 1094.47 17.5696 1097.07 19.6903L1098.65 17.7534L1100.23 15.8165C1097 13.1762 1093 11.2279 1088.31 9.91456L1087.64 12.3218ZM1098.65 17.7534L1097.07 19.6903C1099.67 21.8132 1101.58 24.3771 1102.83 27.406L1105.14 26.4541L1107.45 25.5022C1105.88 21.6912 1103.46 18.4547 1100.23 15.8165L1098.65 17.7534ZM1105.14 26.4541L1102.83 27.4253C1104.13 30.4913 1104.8 34.0256 1104.8 38.0718H1107.3H1109.8C1109.8 33.4675 1109.03 29.2568 1107.44 25.4829L1105.14 26.4541ZM1107.3 38.0718H1104.8C1104.8 40.7858 1104.47 43.352 1103.83 45.7782L1106.24 46.4204L1108.66 47.0627C1109.42 44.1913 1109.8 41.1917 1109.8 38.0718H1107.3ZM1106.24 46.4204L1103.83 45.7705C1103.2 48.1285 1102.22 50.293 1100.9 52.2758L1102.98 53.6626L1105.06 55.0493C1106.68 52.6064 1107.88 49.9428 1108.66 47.0703L1106.24 46.4204ZM1102.98 53.6626L1100.88 52.2979C1099.6 54.2679 1097.96 56.0472 1095.95 57.6334L1097.49 59.5972L1099.04 61.5609C1101.45 59.6602 1103.47 57.4831 1105.07 55.0273L1102.98 53.6626ZM1097.49 59.5972L1095.96 57.619C1093.97 59.1599 1091.59 60.4718 1088.81 61.5367L1089.7 63.8721L1090.59 66.2075C1093.77 64.9924 1096.59 63.4544 1099.02 61.5754L1097.49 59.5972ZM1089.7 63.8721L1087.63 65.2778L1104.73 90.4243L1106.8 89.0186L1108.86 87.6128L1091.77 62.4663L1089.7 63.8721ZM1106.8 89.0186V86.5186H1087.28V89.0186V91.5186H1106.8V89.0186ZM1087.28 89.0186L1089.37 87.6383L1074.58 65.3082L1072.5 66.6885L1070.41 68.0687L1085.2 90.3988L1087.28 89.0186ZM1072.5 66.6885V64.1885H1072.04V66.6885V69.1885H1072.5V66.6885ZM1072.04 66.6885L1072.05 64.1885L1047.91 64.1382L1047.9 66.6382L1047.9 69.1382L1072.04 69.1885L1072.04 66.6885ZM1047.9 66.6382H1045.4V89.0186H1047.9H1050.4V66.6382H1047.9ZM1047.9 89.0186V86.5186H1031.96V89.0186V91.5186H1047.9V89.0186ZM1031.96 89.0186H1034.46V10.4106H1031.96H1029.46V89.0186H1031.96ZM1072.35 52.8579V55.3579C1075.55 55.3579 1078.44 54.9852 1080.99 54.1873L1080.24 51.8018L1079.49 49.4162C1077.55 50.0266 1075.18 50.3579 1072.35 50.3579V52.8579ZM1080.24 51.8018L1080.98 54.1904C1083.52 53.4074 1085.73 52.2755 1087.54 50.7445L1085.93 48.8345L1084.31 46.9244C1083.11 47.9416 1081.53 48.7879 1079.51 49.4131L1080.24 51.8018ZM1085.93 48.8345L1087.52 50.7619C1089.37 49.2309 1090.76 47.3533 1091.66 45.1508L1089.35 44.2075L1087.03 43.2643C1086.45 44.6829 1085.56 45.8898 1084.33 46.9071L1085.93 48.8345ZM1089.35 44.2075L1091.65 45.172C1092.57 42.9868 1093 40.6084 1093 38.0718H1090.5H1088C1088 40.028 1087.67 41.7401 1087.04 43.243L1089.35 44.2075ZM1090.5 38.0718H1093C1093 33.0377 1091.23 28.8761 1087.52 25.9498L1085.98 27.9126L1084.43 29.8754C1086.75 31.7102 1088 34.3214 1088 38.0718H1090.5ZM1085.98 27.9126L1087.54 25.9604C1083.89 23.0395 1078.68 21.7915 1072.35 21.7915V24.2915V26.7915C1078.15 26.7915 1082.03 27.9576 1084.41 29.8648L1085.98 27.9126ZM1072.35 24.2915V21.7915H1047.9V24.2915V26.7915H1072.35V24.2915ZM1047.9 24.2915H1045.4V52.8579H1047.9H1050.4V24.2915H1047.9ZM1047.9 52.8579V55.3579H1072.35V52.8579V50.3579H1047.9V52.8579Z" fill="url(#paint0_linear_475_490)" mask="url(#path-1-inside-1_475_490)"/>
<defs>
<linearGradient id="paint0_linear_475_490" x1="-8.57617" y1="38.0186" x2="1115.42" y2="38.0186" gradientUnits="userSpaceOnUse">
<stop stop-color="#504C46"/>
<stop offset="0.451923"/>
<stop offset="1" stop-color="#504C46"/>
</linearGradient>
</defs>
</svg>
